STARTFONT 2.3
FONT -FontForge-Bungee Shade-Book-R-Normal--36-360-72-72-P-308-ISO10646-1
SIZE 36 72 72  2
FONTBOUNDINGBOX 92 92 -22 -33
COMMENT "Generated by fontforge, http://fontforge.sourceforge.net"
COMMENT "Copyright 2008 The Bungee Project Authors (david@djr.com)"
STARTPROPERTIES 40
FOUNDRY "FontForge"
FAMILY_NAME "Bungee Shade"
WEIGHT_NAME "Book"
SLANT "R"
SETWIDTH_NAME "Normal"
ADD_STYLE_NAME ""
PIXEL_SIZE 36
POINT_SIZE 360
RESOLUTION_X 72
RESOLUTION_Y 72
SPACING "P"
AVERAGE_WIDTH 308
CHARSET_REGISTRY "ISO10646"
CHARSET_ENCODING "1"
FONTNAME_REGISTRY ""
CHARSET_COLLECTIONS "ISO8859-2 ISO8859-9 ISO8859-4 ISO10646-1"
BITS_PER_PIXEL 2
FONT_NAME "BungeeShade-Regular"
FACE_NAME "Bungee Shade"
COPYRIGHT "Copyright 2008 The Bungee Project Authors (david@djr.com)"
FONT_VERSION "1.000;PS 1.0;hotconv 1.0.72;makeotf.lib2.5.5900"
FONT_ASCENT 31
FONT_DESCENT 5
UNDERLINE_POSITION 0
UNDERLINE_THICKNESS 0
X_HEIGHT 25
CAP_HEIGHT 25
RAW_ASCENT 860
RAW_DESCENT 140
NORM_SPACE 12
RELATIVE_WEIGHT 40
RELATIVE_SETWIDTH 50
SUPERSCRIPT_X 0
SUPERSCRIPT_Y 12
SUPERSCRIPT_SIZE 21
SUBSCRIPT_X 0
SUBSCRIPT_Y 2
SUBSCRIPT_SIZE 21
AVG_LOWERCASE_WIDTH 293
AVG_UPPERCASE_WIDTH 299
ENDPROPERTIES
CHARS 1065
STARTCHAR space
ENCODING 32
SWIDTH 325 0
DWIDTH 12 0
BBX 1 1 0 0
BITMAP
00
ENDCHAR
STARTCHAR exclam
ENCODING 33
SWIDTH 524 0
DWIDTH 19 0
BBX 15 30 2 -4
BITMAP
00555554
01C00004
0BC00004
7FD01004
BFD01004
FFD01004
BFD01004
BFD01004
BFD01004
BFD01004
BFD01004
BFE01004
BFE01004
BFE00004
BFE00004
7FE00004
7FFAAAA0
7FFFFF80
7FFAAA54
7FD00004
2FD00004
1FD01004
7FD01004
BFD00004
BFD00004
BFE55554
BFFFFFE0
BFFFFF40
BFFFFD00
7FFFE000
ENDCHAR
STARTCHAR quotedbl
ENCODING 34
SWIDTH 746 0
DWIDTH 27 0
BBX 26 19 0 7
BITMAP
00155554555560
00B00005C00010
02F00007C00010
0BF00007C00010
3FF00407C01010
7FF00407C01010
3FF0040BC01010
3FF0040BC01010
3FF0040BC01010
3FF0040BD01010
3FF0040BD01010
3FF0000BD00010
3FF0000BD00010
3FF4000FE00010
3FFFFFFFFFFF80
3FFFFFFFFFFE00
3FFFFDBFFFF400
2FFFF4BFFFD000
05554015550000
ENDCHAR
STARTCHAR numbersign
ENCODING 35
SWIDTH 850 0
DWIDTH 31 0
BBX 31 30 0 -4
BITMAP
0000055550155500
00001C0011D00100
0000B80017D00100
0002F8102FC04100
000AA4102A804150
0008001000010010
0078001000010004
01F8056555565404
0BF8001000010004
1FF8004000010004
1FFC004000010010
1FFFD040FE050BD0
1FFFD041FE040F40
1FFFC041FE040C00
0FFA8041A9040540
05D0004000040040
02D0010000040040
0FD0165555594040
7FD0010000040040
BFD0010000100040
BFE5010150101580
BFFF010BF4107E00
BFFE000BF4107800
BFFE000FF0005000
7FFE000FF0004000
07FF556FF9554000
07FFFFAFFFFD0000
07FFFE3FFFF40000
07FFF43FFF800000
07FFD02FFE000000
ENDCHAR
STARTCHAR dollar
ENCODING 36
SWIDTH 750 0
DWIDTH 27 0
BBX 26 38 1 -8
BITMAP
00000155540000
00000900010000
00002D00010000
0001FD00010000
00079401015500
00090001000100
00240001000100
00A00155554100
07D01400000100
1FC01000000100
3FC01005555600
BFC0102FFFF800
FFC0102FFFE000
FFC010005A9000
FFC01000001400
FFC01400000140
FFD00155000040
FFE00001550050
FFF80000014010
FFFF9000004010
BFFFFFA5004010
7FFFFFFF805010
1FFFFFFF805010
06D00000004010
02C00000004010
0BC00000014040
7FC05555540040
FFC00001000140
FFC00001000500
FFD5540101A400
FFFFFD00038000
FFFFFD00020000
FFFFFD00050000
BFFFFFFFF40000
000BFFFFD00000
000BFFFE000000
000BFFF8000000
00015550000000
ENDCHAR
STARTCHAR percent
ENCODING 37
SWIDTH 1131 0
DWIDTH 41 0
BBX 41 30 0 -4
BITMAP
0001555540055540000000
0004155424780010000000
002050010AF40040000000
01E040010BF01040000000
07E043C10BF04040000000
2FE043D10BE04040000000
3FE043D10BD04100000000
7FE043D10BC04100000000
7FE043D10B810100000000
7FE043D10B810100000000
7FE040010B410405555000
7FE050010B010490001400
7FF015540E040A01550100
7FF800002E040D04004140
7FFF9556FD041D04001040
3FFFFFFFFC042D10781040
2FFFFFFBF8103D10B81040
0BFFFFDBF8103D10B81040
01BFF90BF4107D10B81040
0000000FF010BD10B81040
0000001FE040FD10781040
0000002FE040FD04001040
0000002FD001FD04004040
0000003FC002FE01550100
0000007F8003FF40000500
000000BFE55BFFF955A400
000000BFFFEBFFFFFFC000
000000FFFF87FFFFFE0000
000001FFFE02FFFFF80000
000000BFF4006FFE900000
ENDCHAR
STARTCHAR ampersand
ENCODING 38
SWIDTH 866 0
DWIDTH 31 0
BBX 32 30 0 -4
BITMAP
0000055555550000
0000140000010000
0000800000010000
0007401555410000
001F005000010000
00BF004000010000
01FF0100BFFE0000
02FF0101FFF80000
03FF0100FFD00000
03FF410007400000
03FF804001000000
03FF904001155554
03FD016501900004
02F4040003D00001
01F0100003D01501
07E010055BD04001
1FD0101FFFD04001
3FD0102FFFD04014
7FD0101FFFC04070
7FD0100000004040
BFE0100000004040
BFE0140000004040
BFF0015555550040
7FF8000000000100
7FFE000000000400
3FFFE5555555A000
2FFFFFFFFFFF8000
0FFFFFFFFFFE0000
02FFFFFFFFF40000
006FFFFFFE800000
ENDCHAR
STARTCHAR quotesingle
ENCODING 39
SWIDTH 456 0
DWIDTH 16 0
BBX 15 19 1 7
BITMAP
00155550
01D00004
07D00004
2FD00004
BFD01004
BFD01004
BFD01004
BFD01014
BFD01010
BFD01010
BFD01010
BFD00010
BFD00010
BFE00010
BFFFFFD0
BFFFFE00
BFFFF800
7FFFE000
15550000
ENDCHAR
STARTCHAR parenleft
ENCODING 40
SWIDTH 529 0
DWIDTH 19 0
BBX 18 37 1 -7
BITMAP
0000055540
0001500010
0005000010
0024000010
00A0015010
07D0140010
1FC0100010
3FC0100040
BFC0402F40
BFC0403C00
FFC0402000
FFC0401000
FFC0401000
FFC0401000
FFC0401000
FFC0401000
FFC0401000
FFC0401000
FFC0401000
FFC0401000
FFC0401000
FFC0401000
FFC0401000
FFC0401000
FFC0401000
FFC0401540
FFC0100010
FFC0100010
FFD0140010
FFF0015010
FFF8000010
FFFE400010
BFFFF95540
7FFFFFFE00
1FFFFFF800
07FFFFD000
006BFF4000
ENDCHAR
STARTCHAR parenright
ENCODING 41
SWIDTH 529 0
DWIDTH 19 0
BBX 19 37 0 -7
BITMAP
0005554000
0060001400
01E0000140
07E0000040
1FE0150010
3FE0004010
7FE0001010
7FF0001014
7FFFD01004
7FFFE01004
7FFFE01004
3FFFE01004
05BFE01004
007FE01004
007FE01004
007FE01004
007FE01004
007FE01004
007FE01004
007FE01004
007FE01004
007FE01004
007FE01004
007FE01004
007FE01004
007FD01004
0070001010
00A0001010
07E0004010
1FE0150050
3FE0000040
7FE0000500
7FF555B400
7FFFFFD000
7FFFFF0000
7FFFF80000
2FFE400000
ENDCHAR
STARTCHAR asterisk
ENCODING 42
SWIDTH 818 0
DWIDTH 29 0
BBX 28 26 1 0
BITMAP
00000055560000
00000280010000
00000BC0010000
00002FC0010000
0001FFD0410050
00082FD0411510
007801E0425010
01F40010400004
07F00000400004
0FE00540405404
1FD00015550001
2FE50001800058
3FFFF901106FF0
7FFFFC04142F80
BFFFF010040A00
7FFFD010010100
016B4041804040
001E0002D00050
003F4007E00080
00FFD00FF40600
03FFF81FF82800
07FFFFBFFE9000
03FFFFBFFF4000
00BFFD2FF80000
001FE01FD00000
0006800A400000
ENDCHAR
STARTCHAR plus
ENCODING 43
SWIDTH 834 0
DWIDTH 30 0
BBX 28 26 1 -2
BITMAP
00000015550000
000001C0014000
00000B80004000
00007F80404000
0000FF80404000
0001FF80404000
0001FF80404000
0015AA80405554
00600000400001
01E00000400001
0BE01555955501
2FE00000400001
7FE00000400001
7FF00000400005
7FFFFF8040FFF8
7FFFFF8040FFD0
7FFFFF8040FF40
7FFFFF8040F800
0555FF80005000
0001FF80004000
0001FFC0004000
0001FFD5550000
0001FFFFF80000
0001FFFFE00000
0000FFFF400000
0000BFFD000000
ENDCHAR
STARTCHAR comma
ENCODING 44
SWIDTH 484 0
DWIDTH 17 0
BBX 16 18 1 -8
BITMAP
00155554
00900001
03C00001
1FC00001
7FC05541
FFC00041
FFC00041
FFD00041
FFEAA441
FFFFF041
FFE00104
BFE05404
1FE00010
2FF55590
7FFFFE00
7FFFF800
7FFFD000
7FFE4000
ENDCHAR
STARTCHAR hyphen
ENCODING 45
SWIDTH 520 0
DWIDTH 19 0
BBX 19 12 0 5
BITMAP
0015555550
0060000010
02E0000014
0BE0155414
3FE0000014
7FE0000014
7FE0000014
7FF5555560
7FFFFFFF80
7FFFFFFE00
7FFFFFF400
3FFFFFD000
ENDCHAR
STARTCHAR period
ENCODING 46
SWIDTH 484 0
DWIDTH 17 0
BBX 16 15 1 -4
BITMAP
00155554
00900001
02C00001
1FC00001
7FC00401
BFC00401
FFC00401
FFC00001
FFC00001
FFC00001
FFE55554
FFFFFFE0
FFFFFF80
FFFFFE00
7FFFF400
ENDCHAR
STARTCHAR slash
ENCODING 47
SWIDTH 487 0
DWIDTH 18 0
BBX 18 38 0 -8
BITMAP
0000155540
0000600010
0002D00010
000BD00010
003FC05010
007FC04040
00BF804040
00BF804040
00FF404040
00FF404040
01FF404040
01FF010040
02FF010100
02FE010100
02FE010100
03FD010100
03FD010100
07FD010100
07FC040100
0BFC040400
0BF8040400
0FF8040400
0FF4040400
0FF4040400
1FF0040400
1FF0101400
2FF0101000
2FE0101000
3FE0101000
3FD0101000
3FD0001000
7FC0001000
7FD0004000
BFFFFF4000
BFFFFC0000
FFFFE00000
BFFF800000
1555000000
ENDCHAR
STARTCHAR zero
ENCODING 48
SWIDTH 827 0
DWIDTH 30 0
BBX 28 32 1 -5
BITMAP
00000055554000
00005500001500
00014000000050
00080055550014
00700500005004
01E01400000401
0BD01000000401
2FD0100BF40101
3FD0102FFC0101
7FD0102FFC0101
BFD0102FFC0101
BFD0102FFC0101
BFD0101FFC0101
BFD0101FFC0101
BFD0101FFC0101
BFD0101FFC0101
BFD0101FFC0101
BFD0101FFC0101
BFD0101FFC0101
BFD0101FF80101
BFD01000000401
BFD01400000401
BFE00500005001
BFF00055550004
BFF80000000014
7FFE4000000050
3FFFE500001B40
2FFFFFFEBFF800
0BFFFFFFFFE000
02FFFFFFFF4000
006FFFFFF80000
00005555000000
ENDCHAR
STARTCHAR one
ENCODING 49
SWIDTH 701 0
DWIDTH 25 0
BBX 24 30 1 -4
BITMAP
001555555400
00A000000400
07E000000400
1FE015540400
7FE000040400
7FE000040400
7FF550040400
7FFFF4040400
7FFFF4040400
7FFFF4040400
2FFFF4040400
002FF4040400
002FF4040400
002FF4040400
002FF4040400
002FF4040400
002FF4040400
002FF4040400
002AA0040554
008000040001
07C000040001
1FC000040001
7FC055555501
FFC000000001
FFC000000001
FFD555555555
FFFFFFFFFFF4
FFFFFFFFFFD0
FFFFFFFFFE00
BFFFFFFFF800
ENDCHAR
STARTCHAR two
ENCODING 50
SWIDTH 739 0
DWIDTH 27 0
BBX 26 30 0 -4
BITMAP
00055555555400
001C0000000100
00BC0000000040
02FC0555550040
0BFC0000004010
0FFC0000005010
0FFE5555401010
0FFFFFFFC01010
0FFFFFFF801010
0FFFFFE4001010
0BFFF900004010
00014000014010
00050001540040
00180055000100
00B00500001800
02F0140006E000
0BE01001BF4000
1FE0100FFD0000
3FE0101AA55540
7FE01000000010
7FE01000000010
7FE01000000010
7FE01555555010
7FE00000000010
7FE00000000010
7FF55555555550
7FFFFFFFFFFF40
7FFFFFFFFFFC00
7FFFFFFFFFE000
3FFFFFFFFF8000
ENDCHAR
STARTCHAR three
ENCODING 51
SWIDTH 737 0
DWIDTH 27 0
BBX 25 30 1 -4
BITMAP
00555555550000
01C00000004000
0BC00000001000
3FC05555400400
FFC00000500400
FFC00000140400
FFFAAAA0040400
FFFFFFF4040400
FFFFFFF0040400
FFFF0000041000
6AAE0000045000
002E0000100500
00FE0155940100
03FE0000010040
07FE0000004040
07FF4000004040
07FFFFFF404040
07FFFFFF804040
07FFFFFF404040
03D00000004040
02C00000004040
0BC00000010040
7FC05555540040
FFC00000000100
FFC00000000400
FFD5555555A000
FFFFFFFFFF4000
FFFFFFFFFD0000
FFFFFFFFF40000
BFFFFFFE400000
ENDCHAR
STARTCHAR four
ENCODING 52
SWIDTH 809 0
DWIDTH 29 0
BBX 27 30 1 -4
BITMAP
00155550155554
00900010700004
07D00012F00004
1FD0101FF00404
7FD0101FF00404
BFD0101FF00404
BFD0101FF00404
BFD0101FF00404
BFD0101FF00404
BFD0101FF00404
BFD0101FF00404
BFD0100BF00404
BFD01000000404
BFD01000000404
BFD00400000404
BFE00155555404
BFE00000000404
BFF40000000404
7FFD0000000404
7FFFE555500404
3FFFFFFFF00404
1FFFFFFFF00404
07FFFFFFF00404
01BFFFFFF00004
0000003FF00004
0000003FF95554
0000003FFFFFD0
0000003FFFFF00
0000003FFFF800
0000002FFFE000
ENDCHAR
STARTCHAR five
ENCODING 53
SWIDTH 747 0
DWIDTH 27 0
BBX 26 30 1 -4
BITMAP
00155555555500
00A00000000100
03D00000000100
1FD01555550100
7FD01000000100
BFD01000000100
BFD01005555500
BFD0101FFFF800
BFD0101FFFD000
BFD01000005400
BFD01000000100
BFD01000000040
BFD01555540040
BFD00000014040
BFD00000004010
BFE00000004010
BFFFFFFF804010
BFFFFFFF804010
BFFFFFFF804010
7FD00000004010
06C00000004050
0BC00000014040
2FC05555540040
BFC00000000100
FFC00000000500
FFE5555555A000
FFFFFFFFFF8000
FFFFFFFFFE0000
FFFFFFFFF40000
7FFFFFFE400000
ENDCHAR
STARTCHAR six
ENCODING 54
SWIDTH 793 0
DWIDTH 29 0
BBX 27 31 1 -5
BITMAP
00001555555500
00014000000100
00080000000100
00240155550100
01E00400000100
07D01000000100
1FD01005555600
3FD0101FFFF800
7FD0102FFFD000
BFD01014001500
BFD01000000040
BFD01155554010
BFD01500005004
BFD02000001404
BFD01000000404
BFD0101FE00404
BFD0102FF40404
BFD0102FF40404
BFD0102FF40404
BFD0100AA00404
BFD01400001004
BFE00500005004
BFF00055550010
BFF80000000010
7FFE0000000140
7FFFE400005900
2FFFFFFEBFF400
0FFFFFFFFFC000
02FFFFFFFE0000
006FFFFFE40000
00015555000000
ENDCHAR
STARTCHAR seven
ENCODING 55
SWIDTH 727 0
DWIDTH 26 0
BBX 26 30 0 -4
BITMAP
00155555555540
00A00000000050
07E00000000010
1FE01555554010
7FE00000004010
7FE00000004010
BFF55555404010
BFFFFFFF804010
BFFFFFFF804010
7FFFFFFF804010
7FFFFFE9004010
00000140004040
00001000014040
00009000140040
00028005400040
000F4010000100
003F4040001400
00FF004006D000
01FF00407F4000
02FF0040780000
02FF0040500000
03FF0040400000
03FF0040400000
03FF0000400000
03FF0000400000
03FF9555400000
03FFFFFE000000
03FFFFF4000000
03FFFFD0000000
01FFFE00000000
ENDCHAR
STARTCHAR eight
ENCODING 56
SWIDTH 811 0
DWIDTH 29 0
BBX 29 32 0 -5
BITMAP
0000001555400000
0000054000150000
0000500000005000
0002401555401000
000A004000500400
003E010000040400
01FE0102F8040400
03FE0107FD040400
07FE0107FD040400
07FE0103FC040400
07FF410050041000
07FFD10000045000
07FE014000101400
07FC00295A800100
03F4014000140100
01F0040000010040
07F01405A4010040
0FE0100FFF004040
2FE0101FFF004040
3FE0101FFF004040
3FE0100BFE004040
3FF0100000010040
7FF0080000020140
7FF4014000140100
3FFC001555400500
3FFF400000001400
2FFFF90000069000
1FFFFFFFAFFE0000
0BFFFFFFFFF80000
02FFFFFFFFE00000
001BFFFFFE000000
0000555540000000
ENDCHAR
STARTCHAR nine
ENCODING 57
SWIDTH 793 0
DWIDTH 29 0
BBX 28 31 0 -4
BITMAP
00000055554000
00001500001500
00014000000050
00050055554010
00280500005004
00B00400000404
07F01400000401
0FF0100BF40401
2FE0100FFC0401
3FE0100FFC0401
3FE0100FF80401
3FF01006A40401
7FF00400000801
7FF00500002801
7FF80055554401
3FFD0000000401
3FFF4000000401
3FFFFA55A80401
2FFFFFFFF80401
0FFFFFFFF40401
02FF8000000401
005B8000000404
001F8000001004
007F8055554004
01FF8000000020
01FF8000000180
01FFD555556A00
01FFFFFFFFF400
01FFFFFFFFD000
01FFFFFFFE0000
00FFFFFFA40000
ENDCHAR
STARTCHAR colon
ENCODING 58
SWIDTH 484 0
DWIDTH 17 0
BBX 16 28 1 -4
BITMAP
00155554
00900001
02C00001
1FC00001
7FC00401
BFC00401
FFC00401
FFC00001
FFC00001
FFC00001
FFE55554
FFFFFFF0
FFFFFF80
FFFAAA54
BFD00001
07C00001
1FC00001
7FC00401
BFC00401
FFC00401
FFC00001
FFC00001
FFC00001
FFE55554
FFFFFFE0
FFFFFF80
FFFFFE00
7FFFF400
ENDCHAR
STARTCHAR semicolon
ENCODING 59
SWIDTH 484 0
DWIDTH 17 0
BBX 16 31 1 -8
BITMAP
00155554
00900001
02C00001
1FC00001
7FC00401
BFC00401
FFC00401
FFC00001
FFC00001
FFC00001
FFE55558
FFFFFFF0
FFFFFF80
FFFAAA54
7FD00001
07C00001
1FC00001
7FC05541
FFC00041
FFC00041
FFD00041
FFEAA441
FFFFF041
FFE00104
BFE05404
1FE00010
2FF55590
7FFFFE00
7FFFF800
7FFFD000
7FFE4000
ENDCHAR
STARTCHAR less
ENCODING 60
SWIDTH 814 0
DWIDTH 29 0
BBX 25 26 2 -2
BITMAP
00000000005540
00000000150040
00000015400040
00000540000040
00015000014040
00040000540040
00600055000040
01D01500000140
07C0500001BD00
2FC04001AFF400
7FC0406FFF8000
BFC0407FFE0000
FFC04005A00000
FFC04000055000
FFD01500000540
FFE00154000040
FFF80001500040
FFFF4000054040
BFFFF940000040
7FFFFFF9000040
2FFFFFFFE50040
06FFFFFFFFE440
001BFFFFFFFE00
00006FFFFFF800
0000006FFFE000
00000001BF4000
ENDCHAR
STARTCHAR equal
ENCODING 61
SWIDTH 834 0
DWIDTH 30 0
BBX 28 23 1 0
BITMAP
00055555555554
00600000000001
01E00000000001
0BE00000000001
2FE01555555501
7FE00000000001
7FE00000000001
7FF55555555554
7FFFFFFFFFFFE0
7FFFFFFFFFFF80
7FFFFFFFFFFD00
2FFAAAAAAAA954
00600000000001
01E00000000001
07E00000000001
2FE01555555501
7FE00000000001
7FE00000000001
7FF55555555554
7FFFFFFFFFFFE0
7FFFFFFFFFFF80
7FFFFFFFFFFE00
2FFFFFFFFFF400
ENDCHAR
STARTCHAR greater
ENCODING 62
SWIDTH 814 0
DWIDTH 29 0
BBX 26 27 2 -3
BITMAP
00155000000000
01D00540000000
07D00015400000
1FD00000150000
7FD01000005400
BFD00550000100
BFD00005400040
BFF40000150040
BFFFE400004010
BFFFFFA4001010
BFFFFFFF901010
7FFFFFFFD01010
05BFFFE5001010
0006E900001010
00050000014040
00500000540040
01D00055000200
0BD01500001900
2FD000001AE000
BFD00006FF8000
BFD006BFFD0000
BFE1BFFFE40000
BFFFFFFA400000
BFFFFE40000000
BFFE9000000000
BF900000000000
14000000000000
ENDCHAR
STARTCHAR question
ENCODING 63
SWIDTH 756 0
DWIDTH 27 0
BBX 27 30 0 -4
BITMAP
00155555555400
00A00000000140
02E00000000050
1FE01555554010
3FE00000005004
7FE00000001004
7FF55555401004
7FFFFFFFF01004
7FFFFFFFE01004
7FFFFA50001004
2FFF8000001004
00078000001004
001F8001554014
00BFC054000020
01FFC000000080
01FFD000005A00
01FFE015AFF800
00FFFFFFFFE000
00FFEAAABF4000
00BF8000180000
00BF8000140000
003F8010140000
00BF8010140000
01FF8000140000
01FF8000100000
01FFD555600000
01FFFFFF800000
01FFFFFE000000
01FFFFF4000000
00FFFFD0000000
ENDCHAR
STARTCHAR at
ENCODING 64
SWIDTH 967 0
DWIDTH 35 0
BBX 33 38 1 -8
BITMAP
000000155555400000
000005400000150000
000050155555405000
000105400000551400
00181006AAA5014500
007441FFFFFFE41100
01E10BFFFFFFFD1100
0BE12FFFFFFFFF0440
1FD13EABFFFFFF4440
3FD1101400000B8440
7FD1114000000B8440
7FD1160155550B8440
BFD12D0500010B8440
BFD13C0400010B8440
BFD13C102F410B8440
BFD13C103F410B8440
BFD13C103F410B8440
BFD13C103F410B8440
BFD13C103F410B8440
BFD13C103F410B8440
BFD13C103F410B8440
BFD13C103F410B4440
BFD13C0400010A1040
BFD13D040001005100
BFD13E015555554100
BFD13F400000000800
BFD13FE4000001A000
BFE12FFFFFFFFF8000
BFF10FFFFFFFFD0000
7FF441FFFFFFF40000
7FFD1016AAAA940000
3FFF45400000040000
2FFFF4155555450000
0FFFFFE95555540000
07FFFFFFFFFFE00000
00BFFFFFFFFF800000
001BFFFFFFFD000000
00006BFFFFF4000000
ENDCHAR
STARTCHAR A
ENCODING 65
SWIDTH 830 0
DWIDTH 30 0
BBX 28 30 1 -4
BITMAP
00001555555400
00006000000100
0002D000000100
000BC015550100
003F4040010040
00BF0040004040
00FE0100004010
01FD0103D01010
02FC0407E01010
03F4040BF01004
07F0040FF40404
0FE0101FF80404
1FD0102FF80101
2FD01000000101
3FC01000000101
7FC01000000101
BFC02555555501
BFC01000000101
FFC01000000101
FFC01015540101
FFC0103FFD0101
FFC0103FFD0101
FFC0103FFD0101
FFC0003FFD0001
FFC0001BFD0001
FFE5558BFE5555
FFFFFF4BFFFFF8
FFFFF80BFFFFD0
FFFFE00BFFFF40
BFFF4007FFF800
ENDCHAR
STARTCHAR B
ENCODING 66
SWIDTH 825 0
DWIDTH 30 0
BBX 28 30 1 -4
BITMAP
00155555555400
00A00000000100
02E00000000040
1FE01555550010
3FE01000008010
7FE01000001010
7FE0101FE01010
7FE0101FF01010
7FE0101FF01010
7FE0101FE01050
7FE01000001140
7FE01000004050
7FE01555565004
7FE01000000501
7FE01000000201
7FE0101FFD0101
7FE0101FFE0101
7FE0101FFE0101
7FE0101FFE0101
7FE01005540101
7FE01000000101
7FE01000000501
7FE01555555001
7FE00000000004
7FE00000000014
7FF55555555690
7FFFFFFFFFFE00
7FFFFFFFFFF800
7FFFFFFFFFE000
3FFFFFFFFA0000
ENDCHAR
STARTCHAR C
ENCODING 67
SWIDTH 728 0
DWIDTH 26 0
BBX 25 30 1 -4
BITMAP
00001555555540
00014000000040
00080000000040
00240155554040
01E00900000040
07D01000000040
1FD01001555540
3FD0101FFFFD00
7FD0102FFFF400
BFD0102FFF8000
BFD0102FFE0000
BFD01010000000
BFD01010000000
BFD01010000000
BFD01010000000
BFD01010000000
BFD01010000000
BFD01010000000
BFD01005555500
BFD01000000040
BFD01000000040
BFE00400000040
BFF40155554040
BFFC0000000040
7FFF4000000040
3FFFF955555500
1FFFFFFFFFFD00
0BFFFFFFFFE000
01FFFFFFFF8000
001BFFFFFD0000
ENDCHAR
STARTCHAR D
ENCODING 68
SWIDTH 846 0
DWIDTH 30 0
BBX 29 30 1 -4
BITMAP
0015555555550000
00A0000000005000
02E0000000000400
1FE0155555400100
3FE0100000140100
7FE0100000010100
7FE0100550010140
7FE0101FFD010040
7FE0101FFE010040
7FE0101FFE010040
7FE0101FFE010040
7FE0101BFE010040
7FE01017FE010040
7FE01017FE010040
7FE01017FE010040
7FE01017FE010040
7FE01017FE010040
7FE01017FE010040
7FE01006A8010040
7FE0100000010140
7FE0100000010100
7FE0100000140100
7FE0155555500100
7FE0000000000800
7FE0000000006000
7FF55555555B8000
7FFFFFFFFFFD0000
7FFFFFFFFFF40000
7FFFFFFFFF800000
3FFFFFFFE4000000
ENDCHAR
STARTCHAR E
ENCODING 69
SWIDTH 754 0
DWIDTH 27 0
BBX 26 30 1 -4
BITMAP
00155555555540
00A00000000010
02E00000000010
1FE01555555010
3FE01000000010
7FE01000000050
7FE0101AAAAA80
7FE0101FFFFD00
7FE0101FFFF400
7FE01000001400
7FE01000000400
7FE01000000400
7FE01555540400
7FE01000000400
7FE01000000400
7FE01005555000
7FE0101FFF8000
7FE0101FFE0000
7FE0101AA95540
7FE01000000050
7FE01000000010
7FE01000000010
7FE01555555010
7FE00000000010
7FE00000000010
7FF55555555540
7FFFFFFFFFFE00
7FFFFFFFFFF800
7FFFFFFFFFD000
3FFFFFFFFF4000
ENDCHAR
STARTCHAR F
ENCODING 70
SWIDTH 718 0
DWIDTH 26 0
BBX 25 30 1 -4
BITMAP
00155555555540
00A00000000040
02E00000000040
1FE01555554040
3FE01000000040
7FE01000000040
7FE0100AAAAA40
7FE0101FFFF800
7FE0101FFFE000
7FE0101FFF8000
7FE01000001000
7FE01000001000
7FE01000001000
7FE01555501000
7FE01000001000
7FE01000001000
7FE01000001000
7FE0101FFF8000
7FE0101FFD0000
7FE0101FF40000
7FE0101FD00000
7FE01015000000
7FE00010000000
7FE00010000000
7FE00010000000
7FF55550000000
7FFFFF80000000
7FFFFD00000000
7FFFF400000000
3FFFD000000000
ENDCHAR
STARTCHAR G
ENCODING 71
SWIDTH 808 0
DWIDTH 29 0
BBX 27 30 1 -4
BITMAP
00001555555540
00014000000040
00080000000040
00240155554040
01E00900000040
07D01000000040
1FD01001555540
3FD0101FFFFE00
7FD0102FFFF400
BFD0102FFFD000
BFD0102FFE0000
BFD01010055554
BFD01010180004
BFD01010780004
BFD01011F80004
BFD0101BF80404
BFD0102FF80404
BFD0102FF80404
BFD0101FF80404
BFD01000000404
BFD01000000404
BFE00500000404
BFF40055555404
BFFC0000000004
7FFF4000000004
3FFFF955555554
1FFFFFFFFFFFE0
0BFFFFFFFFFF40
01FFFFFFFFFD00
001BFFFFFFE400
ENDCHAR
STARTCHAR H
ENCODING 72
SWIDTH 859 0
DWIDTH 31 0
BBX 29 30 1 -4
BITMAP
0015555001555500
00A000100B000040
02E000102E000040
1FE01011FE010040
3FE01017FE010040
7FE01017FE010040
7FE01017FE010040
7FE01017FE010040
7FE01006AA010040
7FE0100000010040
7FE0100000010040
7FE0100000010040
7FE0155555560040
7FE0100000010040
7FE0100000010040
7FE0100000010040
7FE0100555010040
7FE0101FFE010040
7FE0101FFE010040
7FE0101FFE010040
7FE0101FFE010040
7FE01017FE010040
7FE01017FE010040
7FE00017FE000040
7FE00017FE000040
7FF55567FF555500
7FFFFF87FFFFFC00
7FFFFE07FFFFE000
7FFFF407FFFF8000
3FFFD002FFFD0000
ENDCHAR
STARTCHAR I
ENCODING 73
SWIDTH 705 0
DWIDTH 25 0
BBX 24 30 1 -4
BITMAP
005555555554
01C000000001
0BC000000001
2FC055555501
BFC000040001
FFC000040001
FFEA900406A8
FFFFF0040BE0
FFFFF0040B80
FFFFF0040900
6ABFF0040400
003FF0040400
003FF0040400
003FF0040400
003FF0040400
003FF0040400
003FF0040400
003FF0040400
003AA0040554
008000040001
02C000040001
1FC000040001
7FC055555501
FFC000000001
FFC000000001
FFE555555554
FFFFFFFFFFE0
FFFFFFFFFF80
FFFFFFFFFE00
BFFFFFFFF400
ENDCHAR
STARTCHAR J
ENCODING 74
SWIDTH 788 0
DWIDTH 28 0
BBX 27 31 0 -5
BITMAP
00000000055554
00000000340004
00000001F40004
00000007F40404
0000001FF40404
0000002FF40404
0000002FF40404
0000002FF40404
0000002FF40404
0000002FF40404
0000002FF40404
0015556FF40404
0060002FF40404
01E0002FF40404
0BE0002FF40404
2FE0102FF40404
7FE0102FF40404
7FE0102FF40404
7FE0100BE00404
7FE01000000404
7FE00400001004
7FF00500005004
7FF40055550004
7FFC0000000010
3FFF4000000180
2FFFF500005A00
1FFFFFFEBFF400
07FFFFFFFFD000
01FFFFFFFE0000
002FFFFFE40000
00005555000000
ENDCHAR
STARTCHAR K
ENCODING 75
SWIDTH 846 0
DWIDTH 30 0
BBX 29 30 1 -4
BITMAP
0015555001555500
00A0001018000100
02E00010B4000400
1FE01016F0100400
3FE0101FD0101000
7FE0101FC0401000
7FE0101F80404000
7FE0101F00404000
7FE0101E01014000
7FE0100001005000
7FE0100004000400
7FE0100004000100
7FE0155555500100
7FE0100000050100
7FE0100000010040
7FE0100000010040
7FE0101FFD010040
7FE0101FFE010040
7FE0101FFE010040
7FE0101FFE010040
7FE0101FFE010040
7FE01017FE010040
7FE01017FE010040
7FE00017FE000040
7FE00017FE000100
7FF55557FF555500
7FFFFF87FFFFF800
7FFFFE07FFFFE000
7FFFF407FFFF4000
3FFFD002FFFD0000
ENDCHAR
STARTCHAR L
ENCODING 76
SWIDTH 795 0
DWIDTH 29 0
BBX 27 30 1 -4
BITMAP
00155550000000
00A00010000000
02E00010000000
1FE01010000000
3FE01010000000
7FE01010000000
7FE01010000000
7FE01010000000
7FE01010000000
7FE01010000000
7FE01010000000
7FE01010015554
7FE01010180004
7FE01010780004
7FE01011F80004
7FE0101BF80404
7FE0101FF80404
7FE0101FF80404
7FE0101FF80404
7FE01000000404
7FE01000000404
7FE01000000404
7FE01555555404
7FE00000000004
7FE00000000004
7FF55555555554
7FFFFFFFFFFFD0
7FFFFFFFFFFF40
7FFFFFFFFFFD00
3FFFFFFFFFE000
ENDCHAR
STARTCHAR M
ENCODING 77
SWIDTH 949 0
DWIDTH 34 0
BBX 32 30 1 -4
BITMAP
0015555400055555
00A0000400240001
02E0000100A00001
1FE0150107C05401
3FE010405F804401
7FE010503F010401
7FE010101D040401
7FE0100404040401
7FE0100100100401
7FE0100140400401
7FE0100041400401
7FE0100015000401
7FE0101400080401
7FE01018000C0401
7FE0101D002C0401
7FE0101E007C0401
7FE0101FAAFC0401
7FE0101FFFFC0401
7FE0101FFFFC0401
7FE0101FCFFC0401
7FE0101E0FFC0401
7FE010100FFC0401
7FE000100FFC0001
7FE000100FFC0001
7FE000100FFC0001
7FF555500FFE5555
7FFFFF400FFFFFF4
7FFFFD000FFFFFC0
7FFFF4000FFFFE00
3FFF80000BFFF800
ENDCHAR
STARTCHAR N
ENCODING 78
SWIDTH 853 0
DWIDTH 31 0
BBX 28 30 1 -4
BITMAP
00155540015555
00A000200A0001
02E000087E0001
1FE01406FE0101
3FE01101FE0101
7FE011407E0101
7FE010501E0101
7FE01010060101
7FE01004010101
7FE01001000101
7FE01000400101
7FE01000100101
7FE01000040101
7FE01014050101
7FE0101D014101
7FE0101F005101
7FE0101F801101
7FE0101FE00501
7FE0101FF40201
7FE0101FFD0101
7FE0101FFE0101
7FE0101FFE0101
7FE0101FFE0101
7FE0001BFE0001
7FE00017FE0001
7FF55557FF5556
7FFFFF87FFFFF8
7FFFFD07FFFFE0
7FFFF407FFFF40
3FFF8002FFFD00
ENDCHAR
STARTCHAR O
ENCODING 79
SWIDTH 837 0
DWIDTH 30 0
BBX 28 32 1 -5
BITMAP
00000055554000
00001500001500
00014000000050
00080055550004
00700500005005
01E00400000401
0BD01000000101
2FD0100BF80101
3FD0102FFD0101
7FD0102FFD0101
BFD0102FFD0101
BFD0102FFD0101
BFD0101BFD0101
BFD0101BFD0101
BFD0101BFD0101
BFD0101BFD0101
BFD0101BFD0101
BFD0101BFD0101
BFD0101BFD0101
BFD0101BFC0101
BFD01000000101
BFD00400000401
BFE00500005001
BFF00055550005
BFF80000000008
7FFE4000000060
3FFFE500001A80
2FFFFFFEAFFD00
0BFFFFFFFFF400
02FFFFFFFF8000
002FFFFFF90000
00005555000000
ENDCHAR
STARTCHAR P
ENCODING 80
SWIDTH 782 0
DWIDTH 28 0
BBX 27 30 1 -4
BITMAP
00155555555400
00A00000000140
02E00000000050
1FE01555554010
3FE01000005004
7FE01000000404
7FE01005500404
7FE0101FF40404
7FE0101FF80404
7FE0101FF80404
7FE0101FF80404
7FE0101FF40404
7FE01000000404
7FE01000000404
7FE01000005004
7FE01555554010
7FE01000000010
7FE01000000140
7FE01005556D00
7FE0101FFFF400
7FE0101FFF8000
7FE0101FFE0000
7FE0101FA00000
7FE00010000000
7FE00010000000
7FF55560000000
7FFFFF80000000
7FFFFE00000000
7FFFF400000000
3FFFD000000000
ENDCHAR
STARTCHAR Q
ENCODING 81
SWIDTH 837 0
DWIDTH 30 0
BBX 28 35 1 -8
BITMAP
00000055554000
00001500001500
00014000000050
00080000000004
00200055550004
01E00500005001
07D00400000401
1FD01000000101
3FD0100BF80101
7FD0102FFD0101
BFD0102FFD0101
BFD0102FFD0101
BFD0102FFD0101
BFD0101BFD0101
BFD0101BFD0101
BFD0101BFD0101
BFD0101BFD0101
BFD0101BFD0101
BFD0101BFD0101
BFD0101BFD0101
BFD0101BFC0101
BFD01001500101
BFE00400000401
BFF00500005001
BFF40055554004
BFFD0000400010
7FFF9000400180
3FFFFE40006E00
1FFFFF4000B800
07FFFF40009000
01BFFF95554000
0017FFFFFD0000
0002FFFFF40000
0002FFFFC00000
0001FFFE000000
ENDCHAR
STARTCHAR R
ENCODING 82
SWIDTH 843 0
DWIDTH 30 0
BBX 29 30 1 -4
BITMAP
0015555555550000
00A0000000014000
02E0000000001000
1FE0155555001000
3FE0100000401400
7FE0100000100400
7FE0101FE0100400
7FE0101FF0100400
7FE0101FF0100400
7FE0101FF0101000
7FE0100A90101000
7FE0100000105000
7FE0100000400500
7FE0155556540100
7FE0100000050040
7FE0100000010040
7FE0100000004040
7FE0101FFE004040
7FE0101FFF004040
7FE0101FFF404040
7FE0101FFF404040
7FE0101BFF404040
7FE00013FF400040
7FE00013FF400040
7FE00013FF400040
7FF55553FF955540
7FFFFF83FFFFFD00
7FFFFD03FFFFF400
7FFFF402FFFF8000
3FFFD001FFFE0000
ENDCHAR
STARTCHAR S
ENCODING 83
SWIDTH 750 0
DWIDTH 27 0
BBX 26 30 1 -4
BITMAP
00005555555500
00050000000100
00140000000100
00A00155554100
02D01400000100
0BC01000000100
2FC01005555600
7FC0102FFFF800
BFC0102FFFE000
FFC01000569000
FFC01000000400
FFC01400000140
FFD00155000040
FFE00001550050
FFF80000014010
FFFF5000004010
BFFFFEA5004010
7FFFFFFF805010
1FFFFFFF805010
06D00000004010
02C00000004010
0BC00000014040
7FC05555540040
FFC00000000140
FFC00000000500
FFE5555555A000
FFFFFFFFFF8000
FFFFFFFFFE0000
FFFFFFFFF40000
BFFFFFFE400000
ENDCHAR
STARTCHAR T
ENCODING 84
SWIDTH 756 0
DWIDTH 27 0
BBX 27 30 0 -4
BITMAP
00155555555554
01C00000000004
07C00000000004
2FC05555555504
BFC00001000004
FFC00001000004
FFE55501005558
FFFFFE0100FFE0
FFFFFE0100FF80
FFFFFE0100FD00
7FFFFE0100F400
0007FE01004000
0007FE01004000
0007FE01004000
0007FE01004000
0007FE01004000
0007FE01004000
0007FE01004000
0007FE01004000
0007FE01004000
0007FE01004000
0007FE01004000
0007FE00004000
0007FE00004000
0007FE00004000
0007FF55554000
0007FFFFFD0000
0007FFFFE00000
0007FFFF800000
0002FFFD000000
ENDCHAR
STARTCHAR U
ENCODING 85
SWIDTH 846 0
DWIDTH 30 0
BBX 28 31 1 -5
BITMAP
00155550015555
009000100A0001
07D000102E0001
1FD01011FE0101
7FD01017FE0101
BFD01017FE0101
BFD01017FE0101
BFD01017FE0101
BFD01017FE0101
BFD01017FE0101
BFD01017FE0101
BFD01017FE0101
BFD01017FE0101
BFD01017FE0101
BFD01017FE0101
BFD01017FE0101
BFD01017FE0101
BFD01017FE0101
BFD0100BFD0101
BFD01000000101
BFE00400000401
BFE00140001401
BFF40055554001
7FFC0000000008
7FFF4000000060
3FFFF900001680
1FFFFFFEAFFD00
0BFFFFFFFFF400
01FFFFFFFF8000
001FFFFFF90000
00005555400000
ENDCHAR
STARTCHAR V
ENCODING 86
SWIDTH 830 0
DWIDTH 30 0
BBX 28 30 1 -4
BITMAP
00155550015555
01C000101D0001
07C000107D0001
2FC01011FD0101
BFC01017FD0101
FFC0101BFD0101
FFC0101BFD0101
FFC0101BFD0101
FFC0101BFD0101
FFC0101BFD0101
FFC0101BFD0101
FFC0101BFD0101
FFC0101BFC0101
FFD0100FF80501
FFE0100BF40401
FFF00407F00404
BFF40403E01004
BFFC0102D01010
7FFD0100401010
3FFE0140004010
2FFF0040004040
0FFF8050010040
0BFFC015540100
07FFD000000100
03FFE000000500
01FFF955555400
00FFFFFFFFE000
00BFFFFFFF4000
007FFFFFFD0000
002FFFFFE00000
ENDCHAR
STARTCHAR W
ENCODING 87
SWIDTH 931 0
DWIDTH 34 0
BBX 32 30 1 -4
BITMAP
0015555000055554
00D00010001C0001
07D0001000BC0001
1FD0101002FC0401
7FD010100FFC0401
BFD010100FFC0401
BFD010100FFC0401
BFD010100FFC0401
BFD010105AFC0401
BFD01016007C0401
BFD0101D002C0401
BFD01028001C0401
BFD01024000C0401
BFD0101015040401
BFD0100041000401
BFD0100100400401
BFD0100100400401
BFD0100400100404
BFE0100418100404
BFF014103C040404
BFF404107D040404
BFF804407E011010
7FFC0540BF015010
3FFD0000FF400050
2FFE0001FF800040
1FFF9557FFD55540
0FFFFFF7FFFFFD00
0BFFFFD2FFFFE000
07FFFF01FFFF8000
02FFF800BFFD0000
ENDCHAR
STARTCHAR X
ENCODING 88
SWIDTH 837 0
DWIDTH 30 0
BBX 28 30 1 -4
BITMAP
00155550015555
00D00010090001
07D000107D0001
1FD01012FD0101
7FD01017FD0101
BFD0100FFC0101
BFE01407F40401
BFF00402E00401
BFF80100001004
BFFD0040004010
7FFF0040004050
3FFF8010010040
1FFFD019580100
0BFF8010010040
03FF0040004050
01FD0140004010
00B80100401004
01F00402E00401
07E0100BF40501
0FD0101FFC0101
2FD0102FFD0101
7FD0102FFD0101
BFD0102FFD0101
BFD0001FFD0001
BFD0001BFD0001
BFE5555BFE5555
BFFFFF4BFFFFF8
BFFFFD0BFFFFD0
BFFFE00BFFFF40
7FFF8007FFF800
ENDCHAR
STARTCHAR Y
ENCODING 89
SWIDTH 805 0
DWIDTH 29 0
BBX 29 30 0 -4
BITMAP
0015555001555500
00A0000407000040
02E000042F000040
0BE01004BF000040
3FE01006FF010040
7FE01007FF010040
7FE01007FF010040
7FE01007FF010040
7FE01007FE010040
7FE01407FD010040
7FF00402F8010100
7FF40100F0040100
7FFC014000100500
7FFE004000500400
3FFF401000401000
2FFFD00401004000
0FFFF00154014000
07FFF80040010000
02FFFD0040040000
00BFFF4040100000
003FFF8040100000
001FFF8040100000
0007FF8040100000
0002FF8000100000
0001FF8000100000
0001FFD555400000
0001FFFFFF400000
0001FFFFF8000000
0001FFFFE0000000
0000FFFF40000000
ENDCHAR
STARTCHAR Z
ENCODING 90
SWIDTH 760 0
DWIDTH 27 0
BBX 27 30 0 -4
BITMAP
00055555555550
00240000000010
01F40000000010
07F40555555010
1FF40000001010
2FF40000001010
2FF95554004010
2FFFFFF8014010
2FFFFFF0010010
2FFFFFD0040040
1FFFFF40100100
00001D00500400
00007800401000
0000E001005000
0002C004004000
000B4010010000
001D0050040000
00780040100000
01F00100555550
03E00400000004
0BE00400000004
2FE01000000004
3FE00555555404
7FE00000000004
7FE00000000004
7FF55555555554
7FFFFFFFFFFFD0
7FFFFFFFFFFE00
7FFFFFFFFFF800
2FFFFFFFFFE000
ENDCHAR
STARTCHAR bracketleft
ENCODING 91
SWIDTH 529 0
DWIDTH 19 0
BBX 18 37 1 -7
BITMAP
0015555540
0080000010
07C0000010
1FC0000010
7FC0155010
FFC0400010
FFC0400010
FFC0400040
FFC0403F40
FFC0403C00
FFC0402000
FFC0401000
FFC0401000
FFC0401000
FFC0401000
FFC0401000
FFC0401000
FFC0401000
FFC0401000
FFC0401000
FFC0401000
FFC0401000
FFC0401000
FFC0401000
FFC0401000
FFC0401540
FFC0400010
FFC0400010
FFC0400010
FFC0155010
FFC0000010
FFC0000010
FFD5555540
FFFFFFFE00
FFFFFFF800
FFFFFFD000
BFFFFF4000
ENDCHAR
STARTCHAR backslash
ENCODING 92
SWIDTH 487 0
DWIDTH 18 0
BBX 18 38 0 -8
BITMAP
0015554000
0080004000
03C0001000
1FD0001000
7FD0101000
FFE0101000
FFE0101000
BFF0101000
BFF0100400
7FF4040400
7FF4040400
3FF4040400
3FF8040400
2FF8040400
2FFC040400
2FFC040100
1FFD010100
1FFD010100
0FFD010100
0FFE010100
0BFE010100
0BFF010100
0BFF010040
07FF404040
07FF404040
03FF404040
03FF804040
02FF804040
02FFC04040
02FFC00010
01FFD00010
01FFD00010
00FFE00010
00FFFFFF80
00BFFFFD00
00BFFFF400
007FFFD000
0015550000
ENDCHAR
STARTCHAR bracketright
ENCODING 93
SWIDTH 529 0
DWIDTH 19 0
BBX 19 37 0 -7
BITMAP
0005555550
0060000010
01E0000004
07E0000004
1FE0155004
3FE0001004
7FE0001004
7FF0001004
7FFFE01004
7FFFE01004
7FFFE01004
3FFFE01004
05BFE01004
007FE01004
007FE01004
007FE01004
007FE01004
007FE01004
007FE01004
007FE01004
007FE01004
007FE01004
007FE01004
007FE01004
007FE01004
007FE01004
0070001004
00A0001004
07E0001004
1FE0155004
3FE0000004
7FE0000004
7FF5555550
7FFFFFFF80
7FFFFFFE00
7FFFFFF400
2FFFFFD000
ENDCHAR
STARTCHAR asciicircum
ENCODING 94
SWIDTH 814 0
DWIDTH 29 0
BBX 28 25 0 1
BITMAP
00000055554000
00000500001000
00001800000400
0000B005540500
0002E010010100
000BD050010100
001FC040004140
003FC040404040
007F8041D04040
00BF4102D01040
00FF0102E01010
01FE0103F01010
01FD0507F41010
02FC040BF80410
03FC040FF80404
07F8040FFC0404
0BF4101FFD0004
0FF0002FFE0001
1FE0002FFF0001
1FE0004FFF4001
2FFFFF4BFFFFF8
3FFFFD07FFFFE0
7FFFE003FFFF40
7FFF8002FFFD00
15550000555000
ENDCHAR
STARTCHAR underscore
ENCODING 95
SWIDTH 834 0
DWIDTH 30 0
BBX 28 12 1 -8
BITMAP
00155555555554
00600000000001
01E00000000001
0BE01555555501
2FE00000000001
7FE00000000001
7FE00000000001
7FF55555555558
7FFFFFFFFFFFF4
7FFFFFFFFFFF80
7FFFFFFFFFFE00
3FFFFFFFFFF400
ENDCHAR
STARTCHAR grave
ENCODING 96
SWIDTH 600 0
DWIDTH 22 0
BBX 21 12 0 23
BITMAP
001555400000
00A000155500
02E000000040
1FE015000040
3FE000554040
7FE000000040
7FFA54000040
7FFFFFFA5440
7FFFFFFFFE00
7FFFFFFFF800
1AFFFFFFE000
00016AFF4000
ENDCHAR
STARTCHAR a
ENCODING 97
SWIDTH 830 0
DWIDTH 30 0
BBX 28 30 1 -4
BITMAP
00001555555400
00006000000100
0002D000000100
000BC015550100
003F4040010040
00BF0040004040
00FE0100004010
01FD0103D01010
02FC0407E01010
03F4040BF01004
07F0040FF40404
0FE0101FF80404
1FD0102FF80101
2FD01000000101
3FC01000000101
7FC01000000101
BFC02555555501
BFC01000000101
FFC01000000101
FFC01015540101
FFC0103FFD0101
FFC0103FFD0101
FFC0103FFD0101
FFC0003FFD0001
FFC0001BFD0001
FFE5558BFE5555
FFFFFF4BFFFFF8
FFFFF80BFFFFD0
FFFFE00BFFFF40
BFFF4007FFF800
ENDCHAR
STARTCHAR b
ENCODING 98
SWIDTH 825 0
DWIDTH 30 0
BBX 28 30 1 -4
BITMAP
00155555555400
00A00000000100
02E00000000040
1FE01555550010
3FE01000008010
7FE01000001010
7FE0101FE01010
7FE0101FF01010
7FE0101FF01010
7FE0101FE01050
7FE01000001140
7FE01000004050
7FE01555565004
7FE01000000501
7FE01000000201
7FE0101FFD0101
7FE0101FFE0101
7FE0101FFE0101
7FE0101FFE0101
7FE01005540101
7FE01000000101
7FE01000000501
7FE01555555001
7FE00000000004
7FE00000000014
7FF55555555690
7FFFFFFFFFFE00
7FFFFFFFFFF800
7FFFFFFFFFE000
3FFFFFFFFA0000
ENDCHAR
STARTCHAR c
ENCODING 99
SWIDTH 728 0
DWIDTH 26 0
BBX 25 30 1 -4
BITMAP
00001555555540
00014000000040
00080000000040
00240155554040
01E00900000040
07D01000000040
1FD01001555540
3FD0101FFFFD00
7FD0102FFFF400
BFD0102FFF8000
BFD0102FFE0000
BFD01010000000
BFD01010000000
BFD01010000000
BFD01010000000
BFD01010000000
BFD01010000000
BFD01010000000
BFD01005555500
BFD01000000040
BFD01000000040
BFE00400000040
BFF40155554040
BFFC0000000040
7FFF4000000040
3FFFF955555500
1FFFFFFFFFFD00
0BFFFFFFFFE000
01FFFFFFFF8000
001BFFFFFD0000
ENDCHAR
STARTCHAR d
ENCODING 100
SWIDTH 846 0
DWIDTH 30 0
BBX 29 30 1 -4
BITMAP
0015555555550000
00A0000000005000
02E0000000000400
1FE0155555400100
3FE0100000140100
7FE0100000010100
7FE0100550010140
7FE0101FFD010040
7FE0101FFE010040
7FE0101FFE010040
7FE0101FFE010040
7FE0101BFE010040
7FE01017FE010040
7FE01017FE010040
7FE01017FE010040
7FE01017FE010040
7FE01017FE010040
7FE01017FE010040
7FE01006A8010040
7FE0100000010140
7FE0100000010100
7FE0100000140100
7FE0155555500100
7FE0000000000800
7FE0000000006000
7FF55555555B8000
7FFFFFFFFFFD0000
7FFFFFFFFFF40000
7FFFFFFFFF800000
3FFFFFFFE4000000
ENDCHAR
STARTCHAR e
ENCODING 101
SWIDTH 754 0
DWIDTH 27 0
BBX 26 30 1 -4
BITMAP
00155555555540
00A00000000010
02E00000000010
1FE01555555010
3FE01000000010
7FE01000000050
7FE0101AAAAA80
7FE0101FFFFD00
7FE0101FFFF400
7FE01000001400
7FE01000000400
7FE01000000400
7FE01555540400
7FE01000000400
7FE01000000400
7FE01005555000
7FE0101FFF8000
7FE0101FFE0000
7FE0101AA95540
7FE01000000050
7FE01000000010
7FE01000000010
7FE01555555010
7FE00000000010
7FE00000000010
7FF55555555540
7FFFFFFFFFFE00
7FFFFFFFFFF800
7FFFFFFFFFD000
3FFFFFFFFF4000
ENDCHAR
STARTCHAR f
ENCODING 102
SWIDTH 718 0
DWIDTH 26 0
BBX 25 30 1 -4
BITMAP
00155555555540
00A00000000040
02E00000000040
1FE01555554040
3FE01000000040
7FE01000000040
7FE0100AAAAA40
7FE0101FFFF800
7FE0101FFFE000
7FE0101FFF8000
7FE01000001000
7FE01000001000
7FE01000001000
7FE01555501000
7FE01000001000
7FE01000001000
7FE01000001000
7FE0101FFF8000
7FE0101FFD0000
7FE0101FF40000
7FE0101FD00000
7FE01015000000
7FE00010000000
7FE00010000000
7FE00010000000
7FF55550000000
7FFFFF80000000
7FFFFD00000000
7FFFF400000000
3FFFD000000000
ENDCHAR
STARTCHAR g
ENCODING 103
SWIDTH 808 0
DWIDTH 29 0
BBX 27 30 1 -4
BITMAP
00001555555540
00014000000040
00080000000040
00240155554040
01E00900000040
07D01000000040
1FD01001555540
3FD0101FFFFE00
7FD0102FFFF400
BFD0102FFFD000
BFD0102FFE0000
BFD01010055554
BFD01010180004
BFD01010780004
BFD01011F80004
BFD0101BF80404
BFD0102FF80404
BFD0102FF80404
BFD0101FF80404
BFD01000000404
BFD01000000404
BFE00500000404
BFF40055555404
BFFC0000000004
7FFF4000000004
3FFFF955555554
1FFFFFFFFFFFE0
0BFFFFFFFFFF40
01FFFFFFFFFD00
001BFFFFFFE400
ENDCHAR
STARTCHAR h
ENCODING 104
SWIDTH 859 0
DWIDTH 31 0
BBX 29 30 1 -4
BITMAP
0015555001555500
00A000100B000040
02E000102E000040
1FE01011FE010040
3FE01017FE010040
7FE01017FE010040
7FE01017FE010040
7FE01017FE010040
7FE01006AA010040
7FE0100000010040
7FE0100000010040
7FE0100000010040
7FE0155555560040
7FE0100000010040
7FE0100000010040
7FE0100000010040
7FE0100555010040
7FE0101FFE010040
7FE0101FFE010040
7FE0101FFE010040
7FE0101FFE010040
7FE01017FE010040
7FE01017FE010040
7FE00017FE000040
7FE00017FE000040
7FF55567FF555500
7FFFFF87FFFFFC00
7FFFFE07FFFFE000
7FFFF407FFFF8000
3FFFD002FFFD0000
ENDCHAR
STARTCHAR i
ENCODING 105
SWIDTH 705 0
DWIDTH 25 0
BBX 24 30 1 -4
BITMAP
005555555554
01C000000001
0BC000000001
2FC055555501
BFC000040001
FFC000040001
FFEA900406A8
FFFFF0040BE0
FFFFF0040B80
FFFFF0040900
6ABFF0040400
003FF0040400
003FF0040400
003FF0040400
003FF0040400
003FF0040400
003FF0040400
003FF0040400
003AA0040554
008000040001
02C000040001
1FC000040001
7FC055555501
FFC000000001
FFC000000001
FFE555555554
FFFFFFFFFFE0
FFFFFFFFFF80
FFFFFFFFFE00
BFFFFFFFF400
ENDCHAR
STARTCHAR j
ENCODING 106
SWIDTH 788 0
DWIDTH 28 0
BBX 27 31 0 -5
BITMAP
00000000055554
00000000340004
00000001F40004
00000007F40404
0000001FF40404
0000002FF40404
0000002FF40404
0000002FF40404
0000002FF40404
0000002FF40404
0000002FF40404
0015556FF40404
0060002FF40404
01E0002FF40404
0BE0002FF40404
2FE0102FF40404
7FE0102FF40404
7FE0102FF40404
7FE0100BE00404
7FE01000000404
7FE00400001004
7FF00500005004
7FF40055550004
7FFC0000000010
3FFF4000000180
2FFFF500005A00
1FFFFFFEBFF400
07FFFFFFFFD000
01FFFFFFFE0000
002FFFFFE40000
00005555000000
ENDCHAR
STARTCHAR k
ENCODING 107
SWIDTH 846 0
DWIDTH 30 0
BBX 29 30 1 -4
BITMAP
0015555001555500
00A0001018000100
02E00010B4000400
1FE01016F0100400
3FE0101FD0101000
7FE0101FC0401000
7FE0101F80404000
7FE0101F00404000
7FE0101E01014000
7FE0100001005000
7FE0100004000400
7FE0100004000100
7FE0155555500100
7FE0100000050100
7FE0100000010040
7FE0100000010040
7FE0101FFD010040
7FE0101FFE010040
7FE0101FFE010040
7FE0101FFE010040
7FE0101FFE010040
7FE01017FE010040
7FE01017FE010040
7FE00017FE000040
7FE00017FE000100
7FF55557FF555500
7FFFFF87FFFFF800
7FFFFE07FFFFE000
7FFFF407FFFF4000
3FFFD002FFFD0000
ENDCHAR
STARTCHAR l
ENCODING 108
SWIDTH 795 0
DWIDTH 29 0
BBX 27 30 1 -4
BITMAP
00155550000000
00A00010000000
02E00010000000
1FE01010000000
3FE01010000000
7FE01010000000
7FE01010000000
7FE01010000000
7FE01010000000
7FE01010000000
7FE01010000000
7FE01010015554
7FE01010180004
7FE01010780004
7FE01011F80004
7FE0101BF80404
7FE0101FF80404
7FE0101FF80404
7FE0101FF80404
7FE01000000404
7FE01000000404
7FE01000000404
7FE01555555404
7FE00000000004
7FE00000000004
7FF55555555554
7FFFFFFFFFFFD0
7FFFFFFFFFFF40
7FFFFFFFFFFD00
3FFFFFFFFFE000
ENDCHAR
STARTCHAR m
ENCODING 109
SWIDTH 949 0
DWIDTH 34 0
BBX 32 30 1 -4
BITMAP
0015555400055555
00A0000400240001
02E0000100A00001
1FE0150107C05401
3FE010405F804401
7FE010503F010401
7FE010101D040401
7FE0100404040401
7FE0100100100401
7FE0100140400401
7FE0100041400401
7FE0100015000401
7FE0101400080401
7FE01018000C0401
7FE0101D002C0401
7FE0101E007C0401
7FE0101FAAFC0401
7FE0101FFFFC0401
7FE0101FFFFC0401
7FE0101FCFFC0401
7FE0101E0FFC0401
7FE010100FFC0401
7FE000100FFC0001
7FE000100FFC0001
7FE000100FFC0001
7FF555500FFE5555
7FFFFF400FFFFFF4
7FFFFD000FFFFFC0
7FFFF4000FFFFE00
3FFF80000BFFF800
ENDCHAR
STARTCHAR n
ENCODING 110
SWIDTH 853 0
DWIDTH 31 0
BBX 28 30 1 -4
BITMAP
00155540015555
00A000200A0001
02E000087E0001
1FE01406FE0101
3FE01101FE0101
7FE011407E0101
7FE010501E0101
7FE01010060101
7FE01004010101
7FE01001000101
7FE01000400101
7FE01000100101
7FE01000040101
7FE01014050101
7FE0101D014101
7FE0101F005101
7FE0101F801101
7FE0101FE00501
7FE0101FF40201
7FE0101FFD0101
7FE0101FFE0101
7FE0101FFE0101
7FE0101FFE0101
7FE0001BFE0001
7FE00017FE0001
7FF55557FF5556
7FFFFF87FFFFF8
7FFFFD07FFFFE0
7FFFF407FFFF40
3FFF8002FFFD00
ENDCHAR
STARTCHAR o
ENCODING 111
SWIDTH 837 0
DWIDTH 30 0
BBX 28 32 1 -5
BITMAP
00000055554000
00001500001500
00014000000050
00080055550004
00700500005005
01E00400000401
0BD01000000101
2FD0100BF80101
3FD0102FFD0101
7FD0102FFD0101
BFD0102FFD0101
BFD0102FFD0101
BFD0101BFD0101
BFD0101BFD0101
BFD0101BFD0101
BFD0101BFD0101
BFD0101BFD0101
BFD0101BFD0101
BFD0101BFD0101
BFD0101BFC0101
BFD01000000101
BFD00400000401
BFE00500005001
BFF00055550005
BFF80000000008
7FFE4000000060
3FFFE500001A80
2FFFFFFEAFFD00
0BFFFFFFFFF400
02FFFFFFFF8000
002FFFFFF90000
00005555000000
ENDCHAR
STARTCHAR p
ENCODING 112
SWIDTH 782 0
DWIDTH 28 0
BBX 27 30 1 -4
BITMAP
00155555555400
00A00000000140
02E00000000050
1FE01555554010
3FE01000005004
7FE01000000404
7FE01005500404
7FE0101FF40404
7FE0101FF80404
7FE0101FF80404
7FE0101FF80404
7FE0101FF40404
7FE01000000404
7FE01000000404
7FE01000005004
7FE01555554010
7FE01000000010
7FE01000000140
7FE01005556D00
7FE0101FFFF400
7FE0101FFF8000
7FE0101FFE0000
7FE0101FA00000
7FE00010000000
7FE00010000000
7FF55560000000
7FFFFF80000000
7FFFFE00000000
7FFFF400000000
3FFFD000000000
ENDCHAR
STARTCHAR q
ENCODING 113
SWIDTH 837 0
DWIDTH 30 0
BBX 28 35 1 -8
BITMAP
00000055554000
00001500001500
00014000000050
00080000000004
00200055550004
01E00500005001
07D00400000401
1FD01000000101
3FD0100BF80101
7FD0102FFD0101
BFD0102FFD0101
BFD0102FFD0101
BFD0102FFD0101
BFD0101BFD0101
BFD0101BFD0101
BFD0101BFD0101
BFD0101BFD0101
BFD0101BFD0101
BFD0101BFD0101
BFD0101BFD0101
BFD0101BFC0101
BFD01001500101
BFE00400000401
BFF00500005001
BFF40055554004
BFFD0000400010
7FFF9000400180
3FFFFE40006E00
1FFFFF4000B800
07FFFF40009000
01BFFF95554000
0017FFFFFD0000
0002FFFFF40000
0002FFFFC00000
0001FFFE000000
ENDCHAR
STARTCHAR r
ENCODING 114
SWIDTH 843 0
DWIDTH 30 0
BBX 29 30 1 -4
BITMAP
0015555555550000
00A0000000014000
02E0000000001000
1FE0155555001000
3FE0100000401400
7FE0100000100400
7FE0101FE0100400
7FE0101FF0100400
7FE0101FF0100400
7FE0101FF0101000
7FE0100A90101000
7FE0100000105000
7FE0100000400500
7FE0155556540100
7FE0100000050040
7FE0100000010040
7FE0100000004040
7FE0101FFE004040
7FE0101FFF004040
7FE0101FFF404040
7FE0101FFF404040
7FE0101BFF404040
7FE00013FF400040
7FE00013FF400040
7FE00013FF400040
7FF55553FF955540
7FFFFF83FFFFFD00
7FFFFD03FFFFF400
7FFFF402FFFF8000
3FFFD001FFFE0000
ENDCHAR
STARTCHAR s
ENCODING 115
SWIDTH 750 0
DWIDTH 27 0
BBX 26 30 1 -4
BITMAP
00005555555500
00050000000100
00140000000100
00A00155554100
02D01400000100
0BC01000000100
2FC01005555600
7FC0102FFFF800
BFC0102FFFE000
FFC01000569000
FFC01000000400
FFC01400000140
FFD00155000040
FFE00001550050
FFF80000014010
FFFF5000004010
BFFFFEA5004010
7FFFFFFF805010
1FFFFFFF805010
06D00000004010
02C00000004010
0BC00000014040
7FC05555540040
FFC00000000140
FFC00000000500
FFE5555555A000
FFFFFFFFFF8000
FFFFFFFFFE0000
FFFFFFFFF40000
BFFFFFFE400000
ENDCHAR
STARTCHAR t
ENCODING 116
SWIDTH 756 0
DWIDTH 27 0
BBX 27 30 0 -4
BITMAP
00155555555554
01C00000000004
07C00000000004
2FC05555555504
BFC00001000004
FFC00001000004
FFE55501005558
FFFFFE0100FFE0
FFFFFE0100FF80
FFFFFE0100FD00
7FFFFE0100F400
0007FE01004000
0007FE01004000
0007FE01004000
0007FE01004000
0007FE01004000
0007FE01004000
0007FE01004000
0007FE01004000
0007FE01004000
0007FE01004000
0007FE01004000
0007FE00004000
0007FE00004000
0007FE00004000
0007FF55554000
0007FFFFFD0000
0007FFFFE00000
0007FFFF800000
0002FFFD000000
ENDCHAR
STARTCHAR u
ENCODING 117
SWIDTH 846 0
DWIDTH 30 0
BBX 28 31 1 -5
BITMAP
00155550015555
009000100A0001
07D000102E0001
1FD01011FE0101
7FD01017FE0101
BFD01017FE0101
BFD01017FE0101
BFD01017FE0101
BFD01017FE0101
BFD01017FE0101
BFD01017FE0101
BFD01017FE0101
BFD01017FE0101
BFD01017FE0101
BFD01017FE0101
BFD01017FE0101
BFD01017FE0101
BFD01017FE0101
BFD0100BFD0101
BFD01000000101
BFE00400000401
BFE00140001401
BFF40055554001
7FFC0000000008
7FFF4000000060
3FFFF900001680
1FFFFFFEAFFD00
0BFFFFFFFFF400
01FFFFFFFF8000
001FFFFFF90000
00005555400000
ENDCHAR
STARTCHAR v
ENCODING 118
SWIDTH 830 0
DWIDTH 30 0
BBX 28 30 1 -4
BITMAP
00155550015555
01C000101D0001
07C000107D0001
2FC01011FD0101
BFC01017FD0101
FFC0101BFD0101
FFC0101BFD0101
FFC0101BFD0101
FFC0101BFD0101
FFC0101BFD0101
FFC0101BFD0101
FFC0101BFD0101
FFC0101BFC0101
FFD0100FF80501
FFE0100BF40401
FFF00407F00404
BFF40403E01004
BFFC0102D01010
7FFD0100401010
3FFE0140004010
2FFF0040004040
0FFF8050010040
0BFFC015540100
07FFD000000100
03FFE000000500
01FFF955555400
00FFFFFFFFE000
00BFFFFFFF4000
007FFFFFFD0000
002FFFFFE00000
ENDCHAR
STARTCHAR w
ENCODING 119
SWIDTH 931 0
DWIDTH 34 0
BBX 32 30 1 -4
BITMAP
0015555000055554
00D00010001C0001
07D0001000BC0001
1FD0101002FC0401
7FD010100FFC0401
BFD010100FFC0401
BFD010100FFC0401
BFD010100FFC0401
BFD010105AFC0401
BFD01016007C0401
BFD0101D002C0401
BFD01028001C0401
BFD01024000C0401
BFD0101015040401
BFD0100041000401
BFD0100100400401
BFD0100100400401
BFD0100400100404
BFE0100418100404
BFF014103C040404
BFF404107D040404
BFF804407E011010
7FFC0540BF015010
3FFD0000FF400050
2FFE0001FF800040
1FFF9557FFD55540
0FFFFFF7FFFFFD00
0BFFFFD2FFFFE000
07FFFF01FFFF8000
02FFF800BFFD0000
ENDCHAR
STARTCHAR x
ENCODING 120
SWIDTH 837 0
DWIDTH 30 0
BBX 28 30 1 -4
BITMAP
00155550015555
00D00010090001
07D000107D0001
1FD01012FD0101
7FD01017FD0101
BFD0100FFC0101
BFE01407F40401
BFF00402E00401
BFF80100001004
BFFD0040004010
7FFF0040004050
3FFF8010010040
1FFFD019580100
0BFF8010010040
03FF0040004050
01FD0140004010
00B80100401004
01F00402E00401
07E0100BF40501
0FD0101FFC0101
2FD0102FFD0101
7FD0102FFD0101
BFD0102FFD0101
BFD0001FFD0001
BFD0001BFD0001
BFE5555BFE5555
BFFFFF4BFFFFF8
BFFFFD0BFFFFD0
BFFFE00BFFFF40
7FFF8007FFF800
ENDCHAR
STARTCHAR y
ENCODING 121
SWIDTH 805 0
DWIDTH 29 0
BBX 29 30 0 -4
BITMAP
0015555001555500
00A0000407000040
02E000042F000040
0BE01004BF000040
3FE01006FF010040
7FE01007FF010040
7FE01007FF010040
7FE01007FF010040
7FE01007FE010040
7FE01407FD010040
7FF00402F8010100
7FF40100F0040100
7FFC014000100500
7FFE004000500400
3FFF401000401000
2FFFD00401004000
0FFFF00154014000
07FFF80040010000
02FFFD0040040000
00BFFF4040100000
003FFF8040100000
001FFF8040100000
0007FF8040100000
0002FF8000100000
0001FF8000100000
0001FFD555400000
0001FFFFFF400000
0001FFFFF8000000
0001FFFFE0000000
0000FFFF40000000
ENDCHAR
STARTCHAR z
ENCODING 122
SWIDTH 760 0
DWIDTH 27 0
BBX 27 30 0 -4
BITMAP
00055555555550
00240000000010
01F40000000010
07F40555555010
1FF40000001010
2FF40000001010
2FF95554004010
2FFFFFF8014010
2FFFFFF0010010
2FFFFFD0040040
1FFFFF40100100
00001D00500400
00007800401000
0000E001005000
0002C004004000
000B4010010000
001D0050040000
00780040100000
01F00100555550
03E00400000004
0BE00400000004
2FE01000000004
3FE00555555404
7FE00000000004
7FE00000000004
7FF55555555554
7FFFFFFFFFFFD0
7FFFFFFFFFFE00
7FFFFFFFFFF800
2FFFFFFFFFE000
ENDCHAR
STARTCHAR braceleft
ENCODING 123
SWIDTH 555 0
DWIDTH 20 0
BBX 20 37 0 -7
BITMAP
0000005554
0000050005
0000500001
0001800001
000B001501
002E004001
00BD010001
02FD010004
07FC0101F0
0BFC010280
0BFC010100
0BFC010100
0FFC010100
0FF4010100
0FD0140100
0FC0100500
0FC040B400
7FC0505400
FFC0100100
FFE0050100
FFF8010100
FFFC010100
FFFC010100
BFFC010100
1FFC010100
0FFD010054
0FFD010005
0FFD010001
0FFE004001
0BFF401501
0BFFC00001
0BFFF40001
07FFFF9554
03FFFFFFE0
01FFFFFF80
002FFFFD00
0006BFF400
ENDCHAR
STARTCHAR bar
ENCODING 124
SWIDTH 447 0
DWIDTH 16 0
BBX 14 38 1 -8
BITMAP
00155540
00600010
02D00010
0BD00010
2FD01010
7FD01010
BFD01010
BFD01010
BFD01010
BFD01010
BFD01010
BFD01010
BFD01010
BFD01010
BFD01010
BFD01010
BFD01010
BFD01010
BFD01010
BFD01010
BFD01010
BFD01010
BFD01010
BFD01010
BFD01010
BFD01010
BFD01010
BFD01010
BFD01010
BFD01010
BFD00010
BFD00010
BFE00010
BFFFFF80
BFFFFD00
BFFFF400
7FFFC000
15550000
ENDCHAR
STARTCHAR braceright
ENCODING 125
SWIDTH 555 0
DWIDTH 20 0
BBX 20 37 0 -7
BITMAP
0005554000
0060001400
01E0000100
07E0000080
1FE0150050
3FE0004010
7FE0001010
7FF0001010
7FFF801010
7FFFD01010
7FFFD01010
3FFFD01010
05FFD01010
00BFD01014
00BFD01401
00BFE00101
00BFFA4101
00BFFE4101
00BFE00101
007FD01401
001FD01008
002FD01010
007FD01010
00BFD01010
00BFD01010
00BF801010
00B0001010
00E0005010
07E0014010
1FE0150040
3FE0000140
7FE0000500
7FF556B400
7FFFFF8000
7FFFFE0000
7FFFF40000
2FFA400000
ENDCHAR
STARTCHAR asciitilde
ENCODING 126
SWIDTH 834 0
DWIDTH 30 0
BBX 28 13 1 5
BITMAP
00005555000014
00050001555545
00200000000001
00E00000000001
07E01555000001
1FE00000555501
3FE00000000001
7FE00540000004
7FF5BFFFA545A0
7FFFFFFFFFFF80
7FFFFFFFFFFD00
7FFFFFFFFFF400
3E5016AFFE4000
ENDCHAR
STARTCHAR uni00A0
ENCODING 160
SWIDTH 325 0
DWIDTH 12 0
BBX 1 1 0 0
BITMAP
00
ENDCHAR
STARTCHAR exclamdown
ENCODING 161
SWIDTH 523 0
DWIDTH 19 0
BBX 15 30 2 -4
BITMAP
00155554
01D00004
07D01004
2FD01004
BFD00004
BFD00004
BFD00004
BFFFFFE0
BFFFFF80
BFF40010
7FE00004
07E00004
1FE01004
7FE01004
7FE01004
7FD01004
7FD01004
7FD01004
BFD01004
BFD01004
BFD01004
BFD01004
BFD00004
BFC00004
BFC00004
BFE55554
BFFFFFD0
FFFFFF40
FFFFFC00
7FFFE000
ENDCHAR
STARTCHAR cent
ENCODING 162
SWIDTH 728 0
DWIDTH 26 0
BBX 25 35 1 -6
BITMAP
00000055550000
00000240004000
00000B40004000
00002F40004000
0000FA00400000
00024000400040
00080000400040
00740155554040
01E00400000040
07E01000000040
1FD01000000040
3FD0100BFFFE00
7FD0101FFFF400
BFD0102FFFD000
BFD0102FFE0000
BFD01015540000
BFD01010000000
BFD01010000000
BFD01010000000
BFD01010000000
BFD01005555500
BFD01000000040
BFE00400000040
BFF00155554040
BFF80000400040
7FFD0000400040
3FFF9000400040
2FFFFF4000AA00
1FFFFF4000F800
07FFFF4000E000
01BFFF95564000
0017FFFFFD0000
0002FFFFE00000
0002FFFF800000
0001FFFD000000
ENDCHAR
STARTCHAR sterling
ENCODING 163
SWIDTH 795 0
DWIDTH 29 0
BBX 28 30 0 -4
BITMAP
00000555555500
00005000000100
00014000000100
000A0015550100
007D0140000100
01FC0500000100
07F80400000100
0BF80402FFF800
0FF80403FFE000
1FF80407FF4000
1FC00400180000
1FC00400140000
2FC05954140000
BFC00400145555
FFC00400160001
FFC004001E0001
FFF80407FE0001
FFF80407FE0101
FFF80402AA0101
FFF80400000101
6FF80400000101
1FF80400000101
1FF80555555501
1FF80000000001
1FF80000000001
1FFD5555555555
1FFFFFFFFFFFF4
1FFFFFFFFFFFD0
1FFFFFFFFFFF40
0FFFFFFFFFF800
ENDCHAR
STARTCHAR currency
ENCODING 164
SWIDTH 921 0
DWIDTH 33 0
BBX 32 32 1 -5
BITMAP
0000500000000500
0002580000002580
0009060000009060
0074015555560018
01D0000000000005
07C0100000000401
1FE0040155401000
7FF8011400144000
FFFE008000020040
FFFF804000010100
3FFF8141FF404100
1FFF8102FFC04100
07FF8103FFC04100
01FF8103FFC04100
01FF8103FFC04100
01FF8103FFC04100
01FF8103FFC04100
01FF8142FF804100
01FF804055010100
01FF408000020140
01FD011400144050
01F4040555501014
01D0100000000405
03C0000000000001
0FE000BEAAAE0004
3FF802FFFFFF8010
FFFE0BFFFFFFE040
FFFFFFFFFFFFFE00
7FFF56AA57FFF400
1FFD000001FFD000
07F40000007F4000
0180000000180000
ENDCHAR
STARTCHAR yen
ENCODING 165
SWIDTH 803 0
DWIDTH 29 0
BBX 29 30 0 -4
BITMAP
0015555001555500
00A0000407000040
02E000042F000040
1FE01004BF000040
3FE01006FF010040
7FE01007FF010040
7FE01007FF010100
7FF01007FF010100
7FF00407FD010100
7FF80402F8040100
7FFD0100A0000400
3FFF404000101000
2FFFC01000404000
1FFFE00001014000
07FFA40040015000
02FE000040000400
00BE000040000400
00BE015595540400
03FE000040000400
07FE000040000400
07FF554040155400
07FFFF80403FD000
07FFFF80003F4000
07FFFF80003C0000
07FFFF8000600000
0155FFD555400000
0001FFFFFE000000
0001FFFFF8000000
0001FFFFD0000000
0000BFFF40000000
ENDCHAR
STARTCHAR brokenbar
ENCODING 166
SWIDTH 447 0
DWIDTH 16 0
BBX 14 38 1 -8
BITMAP
00155540
00600010
02D00010
0BD00010
2FD01010
7FD01010
BFD01010
BFD01010
BFD01010
BFD01010
BFD01010
BFD01010
BFD00010
BFD00010
BFE00010
BFF55550
BFFFFF40
BFFFFD00
7FFAA540
7FE00010
02D00010
0BD00010
3FD01010
7FD01010
BFD01010
BFD01010
BFD01010
BFD01010
BFD01010
BFD01010
BFD00010
BFD00010
BFE00010
BFFFFF80
BFFFFE00
BFFFF400
7FFFD000
15550000
ENDCHAR
STARTCHAR section
ENCODING 167
SWIDTH 750 0
DWIDTH 27 0
BBX 26 30 1 -4
BITMAP
00001555555500
00014000000100
00080155554100
00700400000100
01E01000000100
0BD0101BFFFD00
2FC0403FFFF400
7FC04000019000
BFC04000000500
BFC05555540100
FFC04000014040
FFC04015405040
FFC0503FC01010
FFD0102FD01010
FFE01000001010
FFF40500001010
BFFD0155556010
BFFF9400001010
7FFFFFFFC01010
2FFFFFFF801010
0BE00000001050
02D00000004040
0BD01555550040
2FD00000000100
7FD00000001800
BFE5555556A000
BFFFFFFFFF4000
BFFFFFFFFD0000
BFFFFFFFE00000
7FFFFFFA400000
ENDCHAR
STARTCHAR dieresis
ENCODING 168
SWIDTH 600 0
DWIDTH 22 0
BBX 23 12 -1 23
BITMAP
000555415550
006000180004
01E0003C0004
07E0103C0404
2FE0103C0404
7FE0003C0004
7FE0003C0004
7FF5557E5554
7FFFFFFFFFD0
7FFFFFFFFF40
7FFFEFFFF800
2FFF4BFFE000
ENDCHAR
STARTCHAR copyright
ENCODING 169
SWIDTH 967 0
DWIDTH 35 0
BBX 33 38 1 -8
BITMAP
000000155555400000
000005400000150000
000050155555405000
000105400000151400
001850001540014500
0074406FFFFF901100
01E107FFFFFFF81100
0BE11FFFFFFFFF0440
1FD13FF900003F4440
3FD1258000002F8440
7FD1124055542F8440
7FD11F0100002F8440
BFD13E0405557F8440
BFD13E041FFFFF8440
BFD13E041FFEFF8440
BFD13E041FF1FF8440
BFD13E041F81FF8440
BFD13E041001FF8440
BFD13E041001FF8440
BFD13E041001FF8440
BFD13E041001FF8440
BFD13E040556BF8440
BFD13F0100002F8440
BFD13F4055542F8440
BFD13F8000002F8440
BFD13FE400002F8440
BFD12FFFEAAAFF4440
BFE11FFFFFFFFE1140
BFF047FFFFF9F85100
BFF4506BFFE5414100
7FFD05400000540400
3FFF40155555001000
2FFFF4000000068000
1FFFFFE95556BD0000
07FFFFFFFFFFF40000
01FFFFFFFFFF800000
001FFFFFFFF9000000
00016BFFFA40000000
ENDCHAR
STARTCHAR ordfeminine
ENCODING 170
SWIDTH 620 0
DWIDTH 22 0
BBX 22 30 0 -4
BITMAP
000055555400
000240000400
000B01550100
003E04004100
01FD04004100
02FC10704040
03F810B41040
07F010F81010
0BF041FC0410
0FE040000410
2FE040000410
3FD055555410
7FD040000410
7FD040000410
7FD042FE0410
BFD042FE0410
BFD002FE0010
BFD002FE0010
BFFAABFFAA90
BFFFFBFFFF40
BFFA9AAAAA50
BFE000000010
7FD000000010
07D055555410
2FD000000010
7FE555555550
BFFFFFFFFF80
BFFFFFFFFD00
BFFFFFFFF400
7FFFFFFF8000
ENDCHAR
STARTCHAR guillemotleft
ENCODING 171
SWIDTH 912 0
DWIDTH 33 0
BBX 31 23 1 -1
BITMAP
0000000550000150
0000015010005504
0000540010150004
0005000011400004
0020001015000404
0090054028015004
07C0500034040004
1FC04000B4100010
7FC0406BF4101B80
BFC040FFF4103E00
FFC0401BF4100540
FFC0400074100010
FFC0500024050004
FFD0054028015404
FFF000102D000004
FFFD00002F800004
FFFFE4002FF94004
BFFFFFA43FFFF904
3FFFFFFFBFFFFFE0
0BFFFFFEFFFFFF80
01BFFFF81BFFFD00
0001BFD0006FF400
0000054000014000
ENDCHAR
STARTCHAR logicalnot
ENCODING 172
SWIDTH 834 0
DWIDTH 30 0
BBX 28 21 1 -2
BITMAP
00055555555554
00600000000001
01E00000000001
07E00000000001
2FE01555555501
7FE00000000101
7FE00000000101
7FF00000000101
7FFFFFFFFF0101
7FFFFFFFFF0101
7FFFFFFFFF0101
3FFFFFFFFF0101
05555557FF0101
00000003FF0101
00000003FF0001
00000003FF0001
00000003FF9554
00000003FFFFE0
00000003FFFF80
00000003FFFE00
00000002FFF400
ENDCHAR
STARTCHAR uni00AD
ENCODING 173
SWIDTH 520 0
DWIDTH 19 0
BBX 19 12 0 5
BITMAP
0015555550
0060000010
02E0000014
0BE0155414
3FE0000014
7FE0000014
7FE0000014
7FF5555560
7FFFFFFF80
7FFFFFFE00
7FFFFFF400
3FFFFFD000
ENDCHAR
STARTCHAR registered
ENCODING 174
SWIDTH 660 0
DWIDTH 24 0
BBX 22 25 1 2
BITMAP
000005554000
00016555A500
000540001540
00652BFF9140
01D4FFFFF950
0BD6D555FC50
2FC685547C50
7FC684053C50
BFC684E13C50
BFC684E13C50
FFC684017C50
FFC685591C50
FFC684504C50
FFC684F84C50
FFC684F84C50
FFD680F80C50
FFD5FFFFFD50
FFE5BFFFF510
BFF555A55440
BFFE15555500
7FFFEA5AB800
3FFFFFFFD000
1FFFFFFF4000
07FFFFF80000
006AEA500000
ENDCHAR
STARTCHAR macron
ENCODING 175
SWIDTH 600 0
DWIDTH 22 0
BBX 21 11 0 23
BITMAP
001555555540
006000000040
01E000000040
0BE015554040
2FE000000040
7FE000000040
7FF555555540
7FFFFFFFFE00
7FFFFFFFF400
7FFFFFFFD000
3FFFFFFE0000
ENDCHAR
STARTCHAR degree
ENCODING 176
SWIDTH 583 0
DWIDTH 21 0
BBX 21 20 0 6
BITMAP
000055555000
000500000500
002405550100
00B050004100
02E040001040
0FE042F41040
2FE043F81040
3FE043F81040
7FE043F81040
7FE042F41040
7FE040001040
7FE050004040
7FF005550100
7FF800000200
7FFE40001800
3FFFFFAFE000
2FFFFFFF8000
1FFFFFFD0000
07FFFFF40000
006AAA400000
ENDCHAR
STARTCHAR plusminus
ENCODING 177
SWIDTH 834 0
DWIDTH 30 0
BBX 28 30 1 -4
BITMAP
00000055550000
000002C0004000
00001F80004000
0000BF80404000
0000FF80404000
0001FF80404000
0005AA80405554
00600000400001
01E00000400001
07E00000400001
2FE01555955501
7FE00000400001
7FE00000400001
7FF40000400004
7FFFFF8040FFE0
7FFFFF8040FF80
7FFFFF8040FE00
2FFFFF8040F400
0005AA80005554
00600000000001
01E00000000001
07E00000000001
2FE01555555501
7FE00000000001
7FE00000000001
7FF55555555554
7FFFFFFFFFFFE0
7FFFFFFFFFFF80
7FFFFFFFFFFE00
2FFFFFFFFFF400
ENDCHAR
STARTCHAR twosuperior
ENCODING 178
SWIDTH 585 0
DWIDTH 21 0
BBX 20 24 0 2
BITMAP
0009555550
0028000004
00F8155501
07F8000041
1FF8000041
1FFFFFE041
1FFFFFD041
1FFFF90041
1FFE400541
0AA8015001
0020140004
00E0400060
07E0401680
1FE041FE00
3FE041A955
7FE0400001
7FE0555541
7FE0000001
7FE0000001
7FFFFFFFFE
7FFFFFFFF4
7FFFFFFFC0
7FFFFFFE00
1555555400
ENDCHAR
STARTCHAR threesuperior
ENCODING 179
SWIDTH 584 0
DWIDTH 21 0
BBX 20 24 1 2
BITMAP
0055555500
02C0000040
0BC1555010
2FC0001410
FFC0000410
FFFFFD0410
FFFFFE0410
FFFD000450
FFFC000450
56FC155404
03FC000101
0FFD000041
0FFFFFD041
0FFFFFD041
0FD5554041
0BC0000101
0FC1555404
7FC0000004
FFC0000050
FFFFFFFF40
FFFFFFFD00
FFFFFFF400
FFFFFF8000
1555540000
ENDCHAR
STARTCHAR acute
ENCODING 180
SWIDTH 600 0
DWIDTH 22 0
BBX 21 12 0 23
BITMAP
000000155540
000555400040
002000000040
01E000054040
07E015500040
1FE000000040
7FE000015A40
7FE15ABFFD00
7FFFFFFFE000
7FFFFFFF8000
7FFFFFE90000
7FEA50000000
ENDCHAR
STARTCHAR mu
ENCODING 181
SWIDTH 813 0
DWIDTH 29 0
BBX 27 29 1 -7
BITMAP
00155550015554
00900010180004
02D00010780004
0BD00011F80004
3FD0101BF80404
BFD0101FF80404
BFD0101FF80404
BFD0101FF80404
BFD0101FF80404
BFD0101FF80404
BFD0101FF80404
BFD0101FF80404
BFD0101FF80404
BFD0101FF80404
BFD0101FF40404
BFD02001400404
BFD01400001004
BFD01100005004
BFD01055550004
BFD01000000020
BFD01000000180
BFD00004016E00
BFD0001FFFF800
BFD0002FFFD000
BFE0002FFF4000
BFFFFFFFE40000
BFFFFE55000000
BFFFF400000000
7FFF8000000000
ENDCHAR
STARTCHAR paragraph
ENCODING 182
SWIDTH 782 0
DWIDTH 28 0
BBX 27 30 0 -4
BITMAP
00001555555554
00014000000004
00080000000004
00240155555404
01E01400000404
07E01000000404
1FD04000000404
3FD04000000404
7FD04000000404
7FD04000000404
BFD04000000404
BFD04000000404
BFD01000000404
BFE01400000404
BFF00155555804
BFF80004000404
BFFE0004000404
7FFFE404000404
3FFFFC041D0404
2FFFFC041D0404
0BFFFC041D0404
01FFFC041D0404
001FFC001D0004
000FFC001D0004
000FFC001D0004
000FFD556F5554
000FFFFFFFFFD0
000FFFFFFFFF00
000FFFFBFFF800
000BFF87FFE000
ENDCHAR
STARTCHAR periodcentered
ENCODING 183
SWIDTH 464 0
DWIDTH 17 0
BBX 16 15 0 4
BITMAP
00055555
00600001
01E00001
07E00001
2FE00401
7FE00401
7FE00401
7FE00001
7FE00001
7FE00001
7FF55555
7FFFFFF8
7FFFFFD0
7FFFFF40
2FFFF800
ENDCHAR
STARTCHAR cedilla
ENCODING 184
SWIDTH 600 0
DWIDTH 22 0
BBX 15 15 3 -9
BITMAP
00015500
00070054
002E0004
00BD0404
02FC0404
03F80404
07F01010
0BE01010
0FD00050
2FC00040
3FD55540
7FFFFD00
BFFFF000
FFFF8000
BFFE0000
ENDCHAR
STARTCHAR onesuperior
ENCODING 185
SWIDTH 557 0
DWIDTH 20 0
BBX 19 24 1 2
BITMAP
0025555800
01D0000400
07D0550400
2FD0010400
7FE0010400
BFFF810400
BFFF810400
BFFF810400
BFFF810400
15FF810400
01FF810400
01FF810400
01FF810400
01EA410150
01C0010004
07C0010004
1FC1555504
BFC0000004
FFC0000004
FFFFFFFFE0
FFFFFFFF40
FFFFFFFD00
FFFFFFF400
1555554000
ENDCHAR
STARTCHAR ordmasculine
ENCODING 186
SWIDTH 625 0
DWIDTH 23 0
BBX 22 31 0 -4
BITMAP
000005554000
000150001500
000405554040
002410001010
01E040000410
07E040000410
1FE040FD0410
3FE041FE0410
7FE041FE0410
7FE041FE0410
7FE041FE0410
7FE041FE0410
7FE041FE0410
7FE041FE0410
7FE040FD0410
7FE040000410
7FF010001010
7FF405554010
7FFD00000140
7FFFE5016900
7FFFFFFFF000
2FFAAAAA9550
0FE000000010
02E000000010
07E055555410
2FE000000010
7FF555555550
7FFFFFFFFF80
7FFFFFFFFD00
7FFFFFFFF400
3FFFFFFF9000
ENDCHAR
STARTCHAR guillemotright
ENCODING 187
SWIDTH 912 0
DWIDTH 33 0
BBX 31 23 1 -1
BITMAP
0015000005500000
0090550024154000
02D00155F4001500
1FD00006F4000050
7FD04000B4140010
BFD0154074015004
BFD0005034000404
BFF400102D000104
BFFF90102FE40104
BFFFF8102FFE0104
BFFF90102FA40104
3FE0001028000504
06D0005034001404
07D0150074055004
1FD04000B4000010
7FD00007F4000180
BFD001BFF4006A00
BFD16FFFF41BF800
BFFFFF6FFEFFD000
BFFFF82FFFFE4000
BFFF902FFFE40000
BF90002FE9000000
1400001900000000
ENDCHAR
STARTCHAR onequarter
ENCODING 188
SWIDTH 1303 0
DWIDTH 47 0
BBX 45 30 1 -4
BITMAP
002555580005555000000000
01D000040028001000000000
0BD0550400B8001000000000
2FD0010407F4101000000000
BFE001040FF4101000000000
BFFF81041FF0104000000000
BFFF81041FF0105555055540
BFFF81042FE050A001180040
6AFF81043FD040A001780040
01FF81043FD040E041F81040
01FF81047FC041E041F81040
01FF81047FC041E041F81040
01FF8104BF8042E041F81040
01EA4101AF8102E041F81040
01C001000F4103E041F81040
07C001000B0103E041F81040
1FC155550B0107E040541040
BFC000000A010BE010001040
FFD555555E040BE005556040
FFFFFFFFFD040FF000001040
FFFFFFFFFD040FF800001040
FFFFFFFFFC041FFF95541040
FFFFFFE7F8041FFFFFF81040
0000000BF8002FFFFFF80040
0000000BF4001FFFFFF80040
0000000FF95541AAAFFD5540
0000001FFFFF00001FFFFE00
0000001FFFF800001FFFF800
0000002FFFE000001FFFD000
0000001FFF4000000FFF4000
ENDCHAR
STARTCHAR onehalf
ENCODING 189
SWIDTH 1260 0
DWIDTH 45 0
BBX 44 30 1 -4
BITMAP
0025555800055550000000
01D0000400280010000000
07D0550400B80010000000
2FD0010407F41010000000
BFE001040FF41010000000
BFFF81041FF01040000000
BFFF81041FF01045555540
BFFF81042FE05060000010
7FFF81043FD040B0000004
01FF81043FD040F0555404
01FF81047FC041F0000101
01FF81047FC041F0000141
01FF8104BF8042FFFFC041
01EA4101AF8102FFFF8041
01C001000F4103FFE40101
07C001000B0103FD000504
1FC155550B0106A0015014
BFC000000A010490540050
FFD555555E040AC1401B40
FFFFFFFFFD040FC102FD00
FFFFFFFFFD040FC102A554
FFFFFFFFFC041FC1000001
FFFFFFE7F8041FC1000001
0000000BF8002FC1555541
0000000FF4003FC0000001
0000000FF9557FD5555555
0000001FFFFFFFFFFFFFF4
0000001FFFF9FFFFFFFFC0
0000002FFFE0FFFFFFFE00
0000001FFF40BFFFFFF800
ENDCHAR
STARTCHAR threequarters
ENCODING 190
SWIDTH 1313 0
DWIDTH 47 0
BBX 46 30 1 -4
BITMAP
005555550001555000000000
02C00000401C000400000000
1FC15550107C001000000000
7FC0001412F8041000000000
FFC000041BF8101000000000
FFFFFE041FF4101000000000
FFFE54041FF4101555015540
FFFC00046FF0107000490010
56FC15540BE0107000BD0010
03FC000107E050B010FD0410
0FFD000043D040B010FD0410
0FFFFFD043D040F010FD0410
0FFFFFD043C041F010FD0410
0FD5554043C041F010FD0410
0BC00001038042F010FD0410
0FC15554034102F010680410
7FC00000074103F010000410
FFC000001F0103F010000410
FFD55555BF0107F405555410
FFFFFFFFFE010BF400000410
FFFFFFFAFE040BFD00000410
FFFFFFE3FD040FFF95540410
BFFFFE43FC040FFFFFFD0410
00000007FC001FFFFFFD0010
0000000BF8001BFFFFFD0010
0000000BFD5551AAAFFE5540
0000000FFFFF40000BFFFF40
0000000FFFFD00000BFFF800
0000001FFFF000000BFFE000
0000000BFF8000000BFF8000
ENDCHAR
STARTCHAR questiondown
ENCODING 191
SWIDTH 756 0
DWIDTH 27 0
BBX 27 30 0 -4
BITMAP
00000015555500
00000070000100
000002F0040100
00000BF0040100
00002FF0000100
00003FF0000100
00003FF4000500
00003FFFFFF800
00003FFFA95400
00003A50000400
00014000000400
00080000000100
00240015550100
01F00540000100
07F00400000100
1FE00400005400
2FE00406AFE000
3FE0040FFF8000
7FE00406AA5550
7FE00400000004
7FF00400000004
7FF00500000004
7FF80155555404
7FFD0000000004
3FFF4000000004
3FFFF955555550
2FFFFFFFFFFFD0
0BFFFFFFFFFE00
02FFFFFFFFF800
006BFFFFFFD000
ENDCHAR
STARTCHAR Agrave
ENCODING 192
SWIDTH 830 0
DWIDTH 30 0
BBX 28 40 1 -4
BITMAP
00001540000000
0001D6BFA54000
0007800056AE00
001F8000000100
00BF8055550100
01FF8000000100
01FF8000000100
01FFE950000100
01FFFFFFE95000
01FFFAAAAAA800
00FFE000000500
001AD000000100
0003C000000100
001F8015550040
003F4040010040
00BE0040004040
00FD0100004010
01FC0103D01010
02F80407E01004
03F4040BF01004
07F0040FF40404
0FE0101FF80401
1FD0102FF80101
2FD01000000101
3FC01000000101
7FC01000000101
BFC02555555501
BFC01000000101
FFC01000000101
FFC01015540101
FFC0103FFD0101
FFC0103FFD0101
FFC0103FFD0101
FFC0003FFD0001
FFC0001BFD0001
FFE5558BFE5555
FFFFFF4BFFFFF4
FFFFF80BFFFFD0
FFFFE00BFFFF00
BFFF4007FFF800
ENDCHAR
STARTCHAR Aacute
ENCODING 193
SWIDTH 830 0
DWIDTH 30 0
BBX 28 39 1 -4
BITMAP
00000000000100
00000000000100
00004000000100
00028000014100
000B8055550100
003F8000000100
00FF8000016A00
01FFD56AFFF800
01FFFFFFFFD000
01FFF955555400
01FFE000000100
00FFD000000100
001FC015550100
003F4040010040
00BF0040004040
00FE0100004010
01FD0103D01010
02FC0407E01010
03F4040BF01004
07F0040FF40404
0FE0101FF80404
1FD0102FF80101
2FD01000000101
3FC01000000101
7FC01000000101
BFC02555555501
BFC01000000101
FFC01000000101
FFC01015540101
FFC0103FFD0101
FFC0103FFD0101
FFC0103FFD0101
FFC0003FFD0001
FFC0001BFD0001
FFE5558BFE5555
FFFFFF4BFFFFF8
FFFFF80BFFFFD0
FFFFE00BFFFF40
BFFF4007FFF800
ENDCHAR
STARTCHAR Acircumflex
ENCODING 194
SWIDTH 830 0
DWIDTH 30 0
BBX 28 40 1 -4
BITMAP
00000005500000
00000150054000
00001500001400
00008005500100
00028050054100
001F8000000100
007F8000000100
00FF801BE90100
01FFD6FFFFE500
01FFFFFFFFFD00
01FFF400000400
01FFD000000100
01FFC000000100
001F8015550040
003F4040010040
00BF0040004040
00FE0100004010
01FC0103D01010
02F80407E01010
03F4040BF01004
07F0040FF40404
0FE0101FF80401
1FD0102FF80101
2FD01000000101
3FC01000000101
7FC01000000101
BFC02555555501
BFC01000000101
FFC01000000101
FFC01015540101
FFC0103FFD0101
FFC0103FFD0101
FFC0103FFD0101
FFC0003FFD0001
FFC0001BFD0001
FFE5558BFE5555
FFFFFF4BFFFFF4
FFFFF80BFFFFD0
FFFFE00BFFFF40
BFFF4007FFF800
ENDCHAR
STARTCHAR Atilde
ENCODING 195
SWIDTH 830 0
DWIDTH 30 0
BBX 28 39 1 -4
BITMAP
00000555400500
00005000155100
00018000000100
00078000000100
002F8055540100
00BF8000050100
01FF8000000100
01FF8154000100
01FFEFFFEAA800
01FFFEAAAAA400
01FFE000000400
00FFD000000100
001BC015550100
003F8040010040
00BF4040004040
00FE0100004040
01FD0103D01010
02FC0407E01010
03F8040BF01004
07F4040FF40404
0FF0101FF80404
1FE0102FF80101
2FD01000000101
3FC01000000101
7FC01000000101
BFC02555555501
BFC01000000101
FFC01000000101
FFC01015540101
FFC0103FFD0101
FFC0103FFD0101
FFC0103FFD0101
FFC0003FFD0001
FFC0001BFD0001
FFE5558BFE5555
FFFFFF4BFFFFF8
FFFFF80BFFFFD0
FFFFE00BFFFF40
BFFF4007FFF800
ENDCHAR
STARTCHAR Adieresis
ENCODING 196
SWIDTH 830 0
DWIDTH 30 0
BBX 28 39 1 -4
BITMAP
00005554155540
00020001900040
001F0002D00040
007F0102D04040
02FF0102D04040
03FF0002D00040
03FF4007E00140
03FFFFFFFFFE00
03FFF955555800
03FFE000000100
03FFD000000100
02AFC000000100
001F4015550040
003F0040010040
00BE0040004050
00FD0100004010
01FC0103D01010
02F80407E01004
03F4040BF01004
07F0040FF40404
0FE0101FF80401
1FD0102FF80101
2FD01000000101
3FC01000000101
7FC01000000101
BFC02555555501
BFC01000000101
FFC01000000101
FFC01015540101
FFC0103FFD0101
FFC0103FFD0101
FFC0103FFD0101
FFC0003FFD0001
FFC0001BFD0001
FFE5558BFE5555
FFFFFF4BFFFFF4
FFFFF80BFFFFD0
FFFFE00BFFFF00
BFFF4007FFF800
ENDCHAR
STARTCHAR Aring
ENCODING 197
SWIDTH 830 0
DWIDTH 30 0
BBX 28 40 1 -4
BITMAP
00000055554000
00000500005400
00001000000100
00018015550100
00078040004040
001F4107E05040
00BF410BF41040
00FF410BF41040
01FF810BF41040
02FF8101405140
02FFD040004100
02FFD015550100
01FFC000000100
01FF8015550040
00FF0040010040
00BE0040004040
00FD0100004010
01FC0103D01010
02F80407E01004
03F4040BF01004
07F0040FF40404
0FE0101FF80401
1FD0102FF80101
2FD01000000101
3FC01000000101
7FC01000000101
BFC02555555501
BFC01000000101
FFC01000000101
FFC01015540101
FFC0103FFD0101
FFC0103FFD0101
FFC0103FFD0101
FFC0003FFD0001
FFC0001BFD0001
FFE5558BFE5555
FFFFFF4BFFFFF4
FFFFF80BFFFFD0
FFFFE00BFFFF00
BFFF4007FFF800
ENDCHAR
STARTCHAR AE
ENCODING 198
SWIDTH 1105 0
DWIDTH 40 0
BBX 38 30 1 -4
BITMAP
00001555555555555550
00009000000000000010
0002C000000000000010
000B8055555555555010
007F4040000100000010
00BF0100000100000010
00FE0100540101555550
01FC0103FC0103FFFF80
02F80407FC0103FFFD00
07F4040BFC0101AAA800
0BF0140FFC0100000400
0FE0101FFC0100000400
1FD0102FFC0255540400
2FD01000000100000400
3FC01000000100000400
7FC05000000100000000
BFC05555555502AA9000
BFC05000000103FF4000
FFC05000000102AA5550
FFC05015540100000010
FFC0503FFC0100000010
FFC0503FFC0100000010
FFC0003FFC0155555010
FFC0003FFC0000000010
FFC0001FFC0000000010
FFE5558FFE5555555550
FFFFFF4FFFFFFFFFFF40
FFFFF80FFFFFFFFFFD00
FFFFE00FFFFFFFFFF400
BFFF400BFFFFFFFF8000
ENDCHAR
STARTCHAR Ccedilla
ENCODING 199
SWIDTH 728 0
DWIDTH 26 0
BBX 25 36 1 -10
BITMAP
00001555555540
00014000000040
00050000000040
00240155554040
00A00900000040
07E01000000040
1FD01000000040
2FD01001555500
7FD0101FFFFC00
BFD0102FFFE000
BFD0102FFF8000
BFD0102FFD0000
BFD01010000000
BFD01010000000
BFD01010000000
BFD01010000000
BFD01010000000
BFD01010000000
BFD01010000000
BFD01005555500
BFD01000000040
BFD01000000040
BFE00500000040
BFF40155554040
7FFC0000100040
7FFF4000400040
2FFFF940405500
1FFFFF4041F800
07FFFF0002E000
01FFFE00034000
0016FE00050000
0002FFFFF00000
0003FFFF800000
0007FFFE000000
000BFFF4000000
00015540000000
ENDCHAR
STARTCHAR Egrave
ENCODING 200
SWIDTH 754 0
DWIDTH 27 0
BBX 26 39 1 -4
BITMAP
00010000000000
00090000000000
002D0000000400
00BD0100000400
07FD0055540400
0BFD0000000400
0BFFA540000400
0BFFFFFEA54800
0BFFFFFFFFF000
0BF55555555540
02E00000000010
02E00000000010
1FE01555555010
3FE01000000010
7FE01000000050
7FE0101AAAAA80
7FE0101FFFFD00
7FE0101FFFF400
7FE01000001400
7FE01000000400
7FE01000000400
7FE01555540400
7FE01000000400
7FE01000000400
7FE01005555000
7FE0101FFF8000
7FE0101FFE0000
7FE0101AA95540
7FE01000000050
7FE01000000010
7FE01000000010
7FE01555555010
7FE00000000010
7FE00000000010
7FF55555555540
7FFFFFFFFFFE00
7FFFFFFFFFF800
7FFFFFFFFFD000
3FFFFFFFFF4000
ENDCHAR
STARTCHAR Eacute
ENCODING 201
SWIDTH 754 0
DWIDTH 27 0
BBX 26 38 1 -4
BITMAP
00000000000100
00004000000100
00024000010100
001F4055540100
007F4000000100
01FF4000056900
02FF856AFFF400
02FFFFFFFFD000
02F55555555540
02E00000000010
02E00000000010
1FE01555555010
3FE01000000010
7FE01000000050
7FE0101AAAAA80
7FE0101FFFFD00
7FE0101FFFF400
7FE01000001400
7FE01000000400
7FE01000000400
7FE01555540400
7FE01000000400
7FE01000000400
7FE01005555000
7FE0101FFF8000
7FE0101FFE0000
7FE0101AA95540
7FE01000000050
7FE01000000010
7FE01000000010
7FE01555555010
7FE00000000010
7FE00000000010
7FF55555555540
7FFFFFFFFFFE00
7FFFFFFFFFF800
7FFFFFFFFFD000
3FFFFFFFFF4000
ENDCHAR
STARTCHAR Ecircumflex
ENCODING 202
SWIDTH 754 0
DWIDTH 27 0
BBX 26 40 1 -4
BITMAP
00000015400000
00000540150000
00005400005000
00020015400400
000E0140150400
007E0000000400
01FE0000000400
03FE006B900400
07FF5BFFFE9400
07FFFFFFFFF800
07F55555555540
07E00000000010
07E00000000010
2FE01555555010
7FE01000000010
7FE01000000050
7FE0101AAAAA80
7FE0101FFFFD00
7FE0101FFFF400
7FE01000001400
7FE01000000400
7FE01000000400
7FE01555540400
7FE01000000400
7FE01000000400
7FE01005555000
7FE0101FFF8000
7FE0101FFE0000
7FE0101AA95540
7FE01000000050
7FE01000000010
7FE01000000010
7FE01555555010
7FE00000000010
7FE00000000010
7FF55555555540
7FFFFFFFFFFE00
7FFFFFFFFFF800
7FFFFFFFFFD000
3FFFFFFFFF4000
ENDCHAR
STARTCHAR Edieresis
ENCODING 203
SWIDTH 754 0
DWIDTH 27 0
BBX 26 39 1 -4
BITMAP
00015554555500
00090005800100
002D0007800040
01FD0407804040
07FD0407804040
0BFD0007800040
0BFE000B900140
0BFFFFFFFFFF00
0BF55555555540
0BE00000000000
0BE00000000010
0BE00000000010
1FE01555555010
7FE01000000010
7FE01000000050
7FE0101AAAAA80
7FE0101FFFFD00
7FE0101FFFF400
7FE01000001400
7FE01000000400
7FE01000000400
7FE01555540400
7FE01000000400
7FE01000000400
7FE01005555000
7FE0101FFF8000
7FE0101FFE0000
7FE0101AA95540
7FE01000000050
7FE01000000010
7FE01000000010
7FE01555555010
7FE00000000010
7FE00000000010
7FF55555555540
7FFFFFFFFFFE00
7FFFFFFFFFF800
7FFFFFFFFFD000
3FFFFFFFFF4000
ENDCHAR
STARTCHAR Igrave
ENCODING 204
SWIDTH 705 0
DWIDTH 25 0
BBX 24 39 1 -4
BITMAP
000400000000
001400000000
00B400000010
02F404000010
0FF401555010
1FF800000010
2FFE95000010
2FFFFFFA9520
2FFFFFFFFFD0
2FE555555554
0BC000000001
0BC000000001
2FC055555501
BFC000040001
FFC000040001
FFEA900406A8
FFFFF0040BE0
FFFFF0040B80
FFFFF0040900
6ABFF0040400
003FF0040400
003FF0040400
003FF0040400
003FF0040400
003FF0040400
003FF0040400
003FF0040400
003AA0040554
008000040001
02C000040001
1FC000040001
7FC055555501
FFC000000001
FFC000000001
FFE555555554
FFFFFFFFFFE0
FFFFFFFFFF80
FFFFFFFFFE00
BFFFFFFFF400
ENDCHAR
STARTCHAR Iacute
ENCODING 205
SWIDTH 705 0
DWIDTH 25 0
BBX 24 38 1 -4
BITMAP
000000000010
000400000010
002400001010
01F405554010
07F400000010
1FF400005690
2FF856AFFF40
2FFFFFFFFD00
2FE555555554
2FC000000001
1FC000000001
2FC055555501
BFC000040001
FFC000040001
FFEA900406A8
FFFFF0040BE0
FFFFF0040B80
FFFFF0040900
6ABFF0040400
003FF0040400
003FF0040400
003FF0040400
003FF0040400
003FF0040400
003FF0040400
003FF0040400
003AA0040554
008000040001
02C000040001
1FC000040001
7FC055555501
FFC000000001
FFC000000001
FFE555555554
FFFFFFFFFFE0
FFFFFFFFFF80
FFFFFFFFFE00
BFFFFFFFF400
ENDCHAR
STARTCHAR Icircumflex
ENCODING 206
SWIDTH 705 0
DWIDTH 25 0
BBX 24 40 1 -4
BITMAP
000000550000
000015005400
000140000140
000800550010
007405005010
01F400000010
0BF400000010
1FF401BA4010
2FF96FFFF950
2FFFFFFFFFD0
2FE555555554
2FC000000001
1FC000000001
2FC055555501
BFC000040001
FFC000040001
FFEA900406A8
FFFFF0040BE0
FFFFF0040B80
FFFFF0040900
6ABFF0040400
003FF0040400
003FF0040400
003FF0040400
003FF0040400
003FF0040400
003FF0040400
003FF0040400
003AA0040554
008000040001
02C000040001
1FC000040001
7FC055555501
FFC000000001
FFC000000001
FFE555555554
FFFFFFFFFFE0
FFFFFFFFFF80
FFFFFFFFFE00
BFFFFFFFF400
ENDCHAR
STARTCHAR Idieresis
ENCODING 207
SWIDTH 705 0
DWIDTH 25 0
BBX 24 39 1 -4
BITMAP
001555415550
006000180004
01E0003C0004
0BE0103C0404
2FE0103C0404
7FE0003C0004
7FF4007D0018
7FFFFFFFFFF4
7FE555555554
7FC000000000
7FC000000001
2FC000000001
7FC055555501
FFC000040001
FFC000040001
FFEA900406A8
FFFFF0040BE0
FFFFF0040B80
FFFFF0040900
6ABFF0040400
003FF0040400
003FF0040400
003FF0040400
003FF0040400
003FF0040400
003FF0040400
003FF0040400
003AA0040554
008000040001
02C000040001
1FC000040001
7FC055555501
FFC000000001
FFC000000001
FFE555555554
FFFFFFFFFFE0
FFFFFFFFFF80
FFFFFFFFFE00
BFFFFFFFF400
ENDCHAR
STARTCHAR Eth
ENCODING 208
SWIDTH 856 0
DWIDTH 31 0
BBX 30 30 0 -4
BITMAP
0005555555555000
001C000000001400
00BC000000000100
02FC015555540080
0FFC010000010040
0FFC010000004010
0FFC010000004010
0FFC0103FF801010
0FFC0103FFC01010
0FFC0103FFC01010
0FC001001FC01010
0FC001001FC01010
2FC055541FC01010
BFC001001FC01010
FFC001001FC01010
FFC001001FC01010
FFFC0103FFC01010
FFFC0102FFC01010
FFFC0101AA401010
FFFC010000005010
5FFC010000004010
0FFC010000014050
0FFC015555540040
0FFC000000000100
0FFC000000000900
0FFE55555556A000
0FFFFFFFFFFF8000
0FFFFFFFFFFD0000
0FFFFFFFFFF40000
0BFFFFFFFA400000
ENDCHAR
STARTCHAR Ntilde
ENCODING 209
SWIDTH 853 0
DWIDTH 31 0
BBX 28 39 1 -4
BITMAP
00000555400600
00002400155440
00009000000040
0007C000000040
001FC055540040
007FC000014040
00BFC000000040
00FFC054000100
00FFEBFFEAA800
00F556FFFF5555
00E0003FFE0001
07E0000FFE0001
1FE01406FE0101
7FE01101FE0101
7FE011407E0101
7FE010501E0101
7FE01010060101
7FE01004010101
7FE01001000101
7FE01000400101
7FE01000100101
7FE01000040101
7FE01014050101
7FE0101D014101
7FE0101F005101
7FE0101F801101
7FE0101FE00501
7FE0101FF40201
7FE0101FFD0101
7FE0101FFE0101
7FE0101FFE0101
7FE0101FFE0101
7FE0001BFE0001
7FE00017FE0001
7FF55557FF5556
7FFFFF87FFFFF8
7FFFFD07FFFFE0
7FFFF407FFFF40
3FFF8002FFFD00
ENDCHAR
STARTCHAR Ograve
ENCODING 210
SWIDTH 837 0
DWIDTH 30 0
BBX 28 41 1 -5
BITMAP
00001540000000
0000A6BFA54000
0007C00056AE00
001F8000000140
007F8055550040
00FF8000004040
01FFC000000040
01FFE950000040
01FFFFFFEA5000
00FFF940005900
00BF4000000050
00080000000014
00240055550004
01E00500005001
07D00400000401
1FD01000000101
3FD0100BF80101
7FD0102FFD0101
BFD0102FFD0101
BFD0102FFD0101
BFD0102FFD0101
BFD0101BFD0101
BFD0101BFD0101
BFD0101BFD0101
BFD0101BFD0101
BFD0101BFD0101
BFD0101BFD0101
BFD0101BFD0101
BFD0101BFC0101
BFD01000000101
BFD00400000401
BFE00500005001
BFF00055550004
BFF80000000004
7FFE4000000050
3FFFE500001B40
2FFFFFFEAFFD00
0BFFFFFFFFF000
02FFFFFFFF8000
002FFFFFF90000
00005555000000
ENDCHAR
STARTCHAR Oacute
ENCODING 211
SWIDTH 837 0
DWIDTH 30 0
BBX 28 41 1 -5
BITMAP
00000000005500
00000056BEA600
00006EA5400040
0001C000000040
0007C015550040
002F8040000040
00BF8000000000
00FFC000016400
01FFD16AFFE000
01FFF940005500
01FF4000000050
00FC0000000014
00B40055550004
01E00500005001
07D00400000401
1FD01000000101
3FD0100BF80101
7FD0102FFD0101
BFD0102FFD0101
BFD0102FFD0101
BFD0102FFD0101
BFD0101BFD0101
BFD0101BFD0101
BFD0101BFD0101
BFD0101BFD0101
BFD0101BFD0101
BFD0101BFD0101
BFD0101BFD0101
BFD0101BFC0101
BFD01000000101
BFD00400000401
BFE00500005001
BFF00055550004
BFF80000000004
7FFE4000000050
3FFFE500001B40
2FFFFFFEAFFD00
0BFFFFFFFFF000
02FFFFFFFF8000
002FFFFFF90000
00005555000000
ENDCHAR
STARTCHAR Ocircumflex
ENCODING 212
SWIDTH 837 0
DWIDTH 30 0
BBX 28 41 1 -5
BITMAP
00000005500000
00000150054000
00001400001500
00008005540100
0007C050054040
001F8000000040
007F8001500040
00FFC06FFE4040
01FFEFFFFFFA00
01FFF940005900
01FF4000000050
00FC0000000014
00B40055550004
01E00500005001
07D00400000401
1FD01000000101
3FD0100BF80101
7FD0102FFD0101
BFD0102FFD0101
BFD0102FFD0101
BFD0102FFD0101
BFD0101BFD0101
BFD0101BFD0101
BFD0101BFD0101
BFD0101BFD0101
BFD0101BFD0101
BFD0101BFD0101
BFD0101BFD0101
BFD0101BFC0101
BFD01000000101
BFD00400000401
BFE00500005001
BFF00055550004
BFF80000000004
7FFE4000000050
3FFFE500001B40
2FFFFFFEAFFD00
0BFFFFFFFFF000
02FFFFFFFF8000
002FFFFFF90000
00005555000000
ENDCHAR
STARTCHAR Otilde
ENCODING 213
SWIDTH 837 0
DWIDTH 30 0
BBX 28 40 1 -5
BITMAP
00000555400500
00006000155100
0001C000000040
000B8000000040
002F8055540040
00BF8000054040
00FF8000000000
01FFC054000100
01FFEFFFEAA800
01FFF940005500
00FF4000000050
00780055550014
01F00500005004
07E00400000401
1FD01000000101
3FD0100BF80101
7FD0102FFD0101
BFD0102FFD0101
BFD0102FFD0101
BFD0102FFD0101
BFD0101BFD0101
BFD0101BFD0101
BFD0101BFD0101
BFD0101BFD0101
BFD0101BFD0101
BFD0101BFD0101
BFD0101BFD0101
BFD0101BFC0101
BFD01000000101
BFD00400000401
BFE00500005001
BFF00055550005
BFF80000000008
7FFE4000000060
3FFFE500001A80
2FFFFFFEAFFD00
0BFFFFFFFFF400
02FFFFFFFF8000
002FFFFFF90000
00005555000000
ENDCHAR
STARTCHAR Odieresis
ENCODING 214
SWIDTH 837 0
DWIDTH 30 0
BBX 28 40 1 -5
BITMAP
00005554155540
00030001900040
001F0002D00040
007F0102D04040
02FF0102D00040
03FF0002D00040
03FF4002D00040
03FFFFFFFFFF40
03FFF940005900
03FF4000000050
03FC0000000014
00740055550004
01E00500005001
07D00400000401
1FD01000000101
3FD0100BF80101
7FD0102FFD0101
BFD0102FFD0101
BFD0102FFD0101
BFD0102FFD0101
BFD0101BFD0101
BFD0101BFD0101
BFD0101BFD0101
BFD0101BFD0101
BFD0101BFD0101
BFD0101BFD0101
BFD0101BFD0101
BFD0101BFC0101
BFD01000000101
BFD00400000401
BFE00500005001
BFF00055550004
BFF80000000004
7FFE4000000050
3FFFE500001B40
2FFFFFFEAFFD00
0BFFFFFFFFF000
02FFFFFFFF8000
002FFFFFF90000
00005555000000
ENDCHAR
STARTCHAR multiply
ENCODING 215
SWIDTH 834 0
DWIDTH 30 0
BBX 26 25 2 -2
BITMAP
00004400004400
00010100050100
00140040140040
00600010500010
01D00006800010
07E00401004010
1FF80100010040
7FFE0040040100
BFFF8010100400
7FFFE004401000
1FFFF402004000
07FFE004401000
01FF8010100400
007E0040040100
00280100010040
00A00402004010
02D0000F800010
0BF0003FE00050
2FFC00FFF80140
BFFF03FFFE0500
BFFFE5FFFFE400
3FFFD07FFFD000
0FFF401FFF4000
03F80007F80000
00A00001E00000
ENDCHAR
STARTCHAR Oslash
ENCODING 216
SWIDTH 837 0
DWIDTH 30 0
BBX 28 37 1 -7
BITMAP
00000000005550
00000000010004
00000000080010
00000055580010
00001500000010
00014000001010
00080055558004
00700500005401
01E01000010501
0BD01000010101
2FD0501F840101
3FD0407F440101
7FD0407E040101
BFD0407D100101
BFD0407C100101
BFD04078424101
BFD04070434101
BFD04061474101
BFD040510B4101
BFD040011F4101
BFD040042F4101
BFD040043F0101
BFD05010BF0101
BFD01010A90101
BFD01050000501
BFE00540001401
BFF00095554005
BFF80100000004
7FFE0100000060
7FFE0000005B40
2FFD000FFFFD00
1FFC002FFFF400
07FFAAFFFF8000
07FFFFFFF90000
0FFFF955000000
0FFFD000000000
05550000000000
ENDCHAR
STARTCHAR Ugrave
ENCODING 217
SWIDTH 846 0
DWIDTH 30 0
BBX 28 39 1 -5
BITMAP
00018000000000
00078000000100
002F8040000100
00BF8015550100
01FF8000000100
01FFE950000100
01FFFFFFE95200
01FFFFFFFFFD00
01F5556FFF5555
00D0001FFE0001
07D0001FFE0001
1FD01011FE0101
7FD01017FE0101
BFD01017FE0101
BFD01017FE0101
BFD01017FE0101
BFD01017FE0101
BFD01017FE0101
BFD01017FE0101
BFD01017FE0101
BFD01017FE0101
BFD01017FE0101
BFD01017FE0101
BFD01017FE0101
BFD01017FE0101
BFD01017FE0101
BFD0100BFD0101
BFD01000000101
BFE00400000401
BFE00140001401
BFF40055554001
7FFC0000000008
7FFF4000000060
3FFFF900001680
1FFFFFFEAFFD00
0BFFFFFFFFF400
01FFFFFFFF8000
001FFFFFF90000
00005555400000
ENDCHAR
STARTCHAR Uacute
ENCODING 218
SWIDTH 846 0
DWIDTH 30 0
BBX 28 39 1 -5
BITMAP
00000000000040
00001000000040
00009000004040
0007D015550040
001FD000000040
007FD000015A40
00BFE15AFFFD00
00BFFFFFFFF400
00B5556FFF5555
0090001FFE0001
07D000156E0001
1FD01011FE0101
7FD01017FE0101
BFD01017FE0101
BFD01017FE0101
BFD01017FE0101
BFD01017FE0101
BFD01017FE0101
BFD01017FE0101
BFD01017FE0101
BFD01017FE0101
BFD01017FE0101
BFD01017FE0101
BFD01017FE0101
BFD01017FE0101
BFD01017FE0101
BFD0100BFD0101
BFD01000000101
BFE00400000401
BFE00140001401
BFF40055554001
7FFC0000000008
7FFF4000000060
3FFFF900001680
1FFFFFFEAFFD00
0BFFFFFFFFF400
01FFFFFFFF8000
001FFFFFF90000
00005555400000
ENDCHAR
STARTCHAR Ucircumflex
ENCODING 219
SWIDTH 846 0
DWIDTH 30 0
BBX 28 41 1 -5
BITMAP
00000001540000
00000050014000
00000000000000
00004005540040
0002C050014040
000BC000000040
002FC001500040
00BFC16FFE5040
00FFEFFFFFFE40
00FFFFFFFFFE00
00F5556FFF5555
00D0001FFE0001
07D00016FE0001
1FD01011FE0101
7FD01017FE0101
BFD01017FE0101
BFD01017FE0101
BFD01017FE0101
BFD01017FE0101
BFD01017FE0101
BFD01017FE0101
BFD01017FE0101
BFD01017FE0101
BFD01017FE0101
BFD01017FE0101
BFD01017FE0101
BFD01017FE0101
BFD01017FE0101
BFD0100BF80101
BFD01000000101
BFE00400000401
BFE00140001401
BFF40055554001
7FFC0000000008
7FFF4000000060
3FFFF900001680
1FFFFFFEAFFD00
0BFFFFFFFFF400
01FFFFFFFF8000
001FFFFFF90000
00005555400000
ENDCHAR
STARTCHAR Udieresis
ENCODING 220
SWIDTH 846 0
DWIDTH 30 0
BBX 28 40 1 -5
BITMAP
00005555155540
00024001600040
000B0001D00050
007F0101D01050
01FF0101D01050
02FF0001D00050
03FF0001D00040
03FF4002E00040
03FFFFFFFFFF00
03F5556FFF5555
03D0001FFE0001
0BD0001FFE0001
2FD01011FE0101
7FD01017FE0101
BFD01017FE0101
BFD01017FE0101
BFD01017FE0101
BFD01017FE0101
BFD01017FE0101
BFD01017FE0101
BFD01017FE0101
BFD01017FE0101
BFD01017FE0101
BFD01017FE0101
BFD01017FE0101
BFD01017FE0101
BFD01017FE0101
BFD0100BFD0101
BFD01000000101
BFE00400000401
BFE00140001401
BFF40055554001
7FFC0000000008
7FFF4000000060
3FFFF900001680
1FFFFFFEAFFD00
0BFFFFFFFFF400
01FFFFFFFF8000
001FFFFFF90000
00005555400000
ENDCHAR
STARTCHAR Yacute
ENCODING 221
SWIDTH 805 0
DWIDTH 29 0
BBX 29 39 0 -4
BITMAP
0000000000004000
0000000000004000
0000100000004000
0000A00000404000
0002E01555004000
001FE00000004000
003FE000015A8000
007FF15ABFFD0000
007FFFFFFFF40000
0075556FFF955500
00A0000FFF000040
02E000092F000040
0BE01004BF000040
3FE01006FF010040
7FE01007FF010040
7FE01007FF010040
7FE01007FF010040
7FE01007FE010040
7FE01407FD010040
7FF00402F8010100
7FF40100F0040100
7FFC014000100500
7FFE004000500400
3FFF401000401000
2FFFD00401004000
0FFFF00154014000
07FFF80040010000
02FFFD0040040000
00BFFF4040100000
003FFF8040100000
001FFF8040100000
0007FF8040100000
0002FF8000100000
0001FF8000100000
0001FFD555400000
0001FFFFFF400000
0001FFFFF8000000
0001FFFFE0000000
0000FFFF40000000
ENDCHAR
STARTCHAR Thorn
ENCODING 222
SWIDTH 792 0
DWIDTH 29 0
BBX 27 30 1 -4
BITMAP
00155550000000
00A00010000000
02E00010000000
1FE01005555400
3FE01000000140
7FE01000000050
7FE01555550010
7FE01000005004
7FE01000001404
7FE01000000404
7FE0101FF40404
7FE0101FF80404
7FE0101FF80404
7FE0101FF80404
7FE0101FF40404
7FE01005500404
7FE01000001404
7FE01000005004
7FE01555550010
7FE01000000010
7FE01000000040
7FE01000005900
7FE0101FFFF400
7FE0001FFFD000
7FE0001FFE0000
7FF5556FE40000
7FFFFF94000000
7FFFFE00000000
7FFFF400000000
3FFFD000000000
ENDCHAR
STARTCHAR germandbls
ENCODING 223
SWIDTH 859 0
DWIDTH 31 0
BBX 30 30 1 -4
BITMAP
0015555555550000
00A0000000004000
02E0000000001000
1FE0155555401000
3FE0100000501000
7FE0100000101000
7FE0100540101000
7FE0101FD0101000
7FE0101FD0401000
7FE0101FC0405000
7FE0101F80400500
7FE0101F81000140
7FE0101F41550040
7FE0101F00004010
7FE0101F00004010
7FE0101F95401010
7FE0101FFFC01010
7FE0101FFFC01010
7FE0101FFFC01010
7FE0101F40001010
7FE0101F00004010
7FE0101F00004010
7FE0101F01550040
7FE0001F00000040
7FE0001F00000500
7FF5556F9555A400
7FFFFFFFFFFFD000
7FFFFFFFFFFE0000
7FFFF7FFFFF80000
3FFFD2FFFE900000
ENDCHAR
STARTCHAR agrave
ENCODING 224
SWIDTH 830 0
DWIDTH 30 0
BBX 28 40 1 -4
BITMAP
00001540000000
0001D6BFA54000
0007800056AE00
001F8000000100
00BF8055550100
01FF8000000100
01FF8000000100
01FFE950000100
01FFFFFFE95000
01FFFAAAAAA800
00FFE000000500
001AD000000100
0003C000000100
001F8015550040
003F4040010040
00BE0040004040
00FD0100004010
01FC0103D01010
02F80407E01004
03F4040BF01004
07F0040FF40404
0FE0101FF80401
1FD0102FF80101
2FD01000000101
3FC01000000101
7FC01000000101
BFC02555555501
BFC01000000101
FFC01000000101
FFC01015540101
FFC0103FFD0101
FFC0103FFD0101
FFC0103FFD0101
FFC0003FFD0001
FFC0001BFD0001
FFE5558BFE5555
FFFFFF4BFFFFF4
FFFFF80BFFFFD0
FFFFE00BFFFF00
BFFF4007FFF800
ENDCHAR
STARTCHAR aacute
ENCODING 225
SWIDTH 830 0
DWIDTH 30 0
BBX 28 39 1 -4
BITMAP
00000000000100
00000000000100
00004000000100
00028000014100
000B8055550100
003F8000000100
00FF8000016A00
01FFD56AFFF800
01FFFFFFFFD000
01FFF955555400
01FFE000000100
00FFD000000100
001FC015550100
003F4040010040
00BF0040004040
00FE0100004010
01FD0103D01010
02FC0407E01010
03F4040BF01004
07F0040FF40404
0FE0101FF80404
1FD0102FF80101
2FD01000000101
3FC01000000101
7FC01000000101
BFC02555555501
BFC01000000101
FFC01000000101
FFC01015540101
FFC0103FFD0101
FFC0103FFD0101
FFC0103FFD0101
FFC0003FFD0001
FFC0001BFD0001
FFE5558BFE5555
FFFFFF4BFFFFF8
FFFFF80BFFFFD0
FFFFE00BFFFF40
BFFF4007FFF800
ENDCHAR
STARTCHAR acircumflex
ENCODING 226
SWIDTH 830 0
DWIDTH 30 0
BBX 28 40 1 -4
BITMAP
00000005500000
00000150054000
00001500001400
00008005500100
00028050054100
001F8000000100
007F8000000100
00FF801BE90100
01FFD6FFFFE500
01FFFFFFFFFD00
01FFF400000400
01FFD000000100
01FFC000000100
001F8015550040
003F4040010040
00BF0040004040
00FE0100004010
01FC0103D01010
02F80407E01010
03F4040BF01004
07F0040FF40404
0FE0101FF80401
1FD0102FF80101
2FD01000000101
3FC01000000101
7FC01000000101
BFC02555555501
BFC01000000101
FFC01000000101
FFC01015540101
FFC0103FFD0101
FFC0103FFD0101
FFC0103FFD0101
FFC0003FFD0001
FFC0001BFD0001
FFE5558BFE5555
FFFFFF4BFFFFF4
FFFFF80BFFFFD0
FFFFE00BFFFF40
BFFF4007FFF800
ENDCHAR
STARTCHAR atilde
ENCODING 227
SWIDTH 830 0
DWIDTH 30 0
BBX 28 39 1 -4
BITMAP
00000555400500
00005000155100
00018000000100
00078000000100
002F8055540100
00BF8000050100
01FF8000000100
01FF8154000100
01FFEFFFEAA800
01FFFEAAAAA400
01FFE000000400
00FFD000000100
001BC015550100
003F8040010040
00BF4040004040
00FE0100004040
01FD0103D01010
02FC0407E01010
03F8040BF01004
07F4040FF40404
0FF0101FF80404
1FE0102FF80101
2FD01000000101
3FC01000000101
7FC01000000101
BFC02555555501
BFC01000000101
FFC01000000101
FFC01015540101
FFC0103FFD0101
FFC0103FFD0101
FFC0103FFD0101
FFC0003FFD0001
FFC0001BFD0001
FFE5558BFE5555
FFFFFF4BFFFFF8
FFFFF80BFFFFD0
FFFFE00BFFFF40
BFFF4007FFF800
ENDCHAR
STARTCHAR adieresis
ENCODING 228
SWIDTH 830 0
DWIDTH 30 0
BBX 28 39 1 -4
BITMAP
00005554155540
00020001900040
001F0002D00040
007F0102D04040
02FF0102D04040
03FF0002D00040
03FF4007E00140
03FFFFFFFFFE00
03FFF955555800
03FFE000000100
03FFD000000100
02AFC000000100
001F4015550040
003F0040010040
00BE0040004050
00FD0100004010
01FC0103D01010
02F80407E01004
03F4040BF01004
07F0040FF40404
0FE0101FF80401
1FD0102FF80101
2FD01000000101
3FC01000000101
7FC01000000101
BFC02555555501
BFC01000000101
FFC01000000101
FFC01015540101
FFC0103FFD0101
FFC0103FFD0101
FFC0103FFD0101
FFC0003FFD0001
FFC0001BFD0001
FFE5558BFE5555
FFFFFF4BFFFFF4
FFFFF80BFFFFD0
FFFFE00BFFFF00
BFFF4007FFF800
ENDCHAR
STARTCHAR aring
ENCODING 229
SWIDTH 830 0
DWIDTH 30 0
BBX 28 40 1 -4
BITMAP
00000055554000
00000500005400
00001000000100
00018015550100
00078040004040
001F4107E05040
00BF410BF41040
00FF410BF41040
01FF810BF41040
02FF8101405140
02FFD040004100
02FFD015550100
01FFC000000100
01FF8015550040
00FF0040010040
00BE0040004040
00FD0100004010
01FC0103D01010
02F80407E01004
03F4040BF01004
07F0040FF40404
0FE0101FF80401
1FD0102FF80101
2FD01000000101
3FC01000000101
7FC01000000101
BFC02555555501
BFC01000000101
FFC01000000101
FFC01015540101
FFC0103FFD0101
FFC0103FFD0101
FFC0103FFD0101
FFC0003FFD0001
FFC0001BFD0001
FFE5558BFE5555
FFFFFF4BFFFFF4
FFFFF80BFFFFD0
FFFFE00BFFFF00
BFFF4007FFF800
ENDCHAR
STARTCHAR ae
ENCODING 230
SWIDTH 1105 0
DWIDTH 40 0
BBX 38 30 1 -4
BITMAP
00001555555555555550
00009000000000000010
0002C000000000000010
000B8055555555555010
007F4040000100000010
00BF0100000100000010
00FE0100540101555550
01FC0103FC0103FFFF80
02F80407FC0103FFFD00
07F4040BFC0101AAA800
0BF0140FFC0100000400
0FE0101FFC0100000400
1FD0102FFC0255540400
2FD01000000100000400
3FC01000000100000400
7FC05000000100000000
BFC05555555502AA9000
BFC05000000103FF4000
FFC05000000102AA5550
FFC05015540100000010
FFC0503FFC0100000010
FFC0503FFC0100000010
FFC0003FFC0155555010
FFC0003FFC0000000010
FFC0001FFC0000000010
FFE5558FFE5555555550
FFFFFF4FFFFFFFFFFF40
FFFFF80FFFFFFFFFFD00
FFFFE00FFFFFFFFFF400
BFFF400BFFFFFFFF8000
ENDCHAR
STARTCHAR ccedilla
ENCODING 231
SWIDTH 728 0
DWIDTH 26 0
BBX 25 36 1 -10
BITMAP
00001555555540
00014000000040
00050000000040
00240155554040
00A00900000040
07E01000000040
1FD01000000040
2FD01001555500
7FD0101FFFFC00
BFD0102FFFE000
BFD0102FFF8000
BFD0102FFD0000
BFD01010000000
BFD01010000000
BFD01010000000
BFD01010000000
BFD01010000000
BFD01010000000
BFD01010000000
BFD01005555500
BFD01000000040
BFD01000000040
BFE00500000040
BFF40155554040
7FFC0000100040
7FFF4000400040
2FFFF940405500
1FFFFF4041F800
07FFFF0002E000
01FFFE00034000
0016FE00050000
0002FFFFF00000
0003FFFF800000
0007FFFE000000
000BFFF4000000
00015540000000
ENDCHAR
STARTCHAR egrave
ENCODING 232
SWIDTH 754 0
DWIDTH 27 0
BBX 26 39 1 -4
BITMAP
00010000000000
00090000000000
002D0000000400
00BD0100000400
07FD0055540400
0BFD0000000400
0BFFA540000400
0BFFFFFEA54800
0BFFFFFFFFF000
0BF55555555540
02E00000000010
02E00000000010
1FE01555555010
3FE01000000010
7FE01000000050
7FE0101AAAAA80
7FE0101FFFFD00
7FE0101FFFF400
7FE01000001400
7FE01000000400
7FE01000000400
7FE01555540400
7FE01000000400
7FE01000000400
7FE01005555000
7FE0101FFF8000
7FE0101FFE0000
7FE0101AA95540
7FE01000000050
7FE01000000010
7FE01000000010
7FE01555555010
7FE00000000010
7FE00000000010
7FF55555555540
7FFFFFFFFFFE00
7FFFFFFFFFF800
7FFFFFFFFFD000
3FFFFFFFFF4000
ENDCHAR
STARTCHAR eacute
ENCODING 233
SWIDTH 754 0
DWIDTH 27 0
BBX 26 38 1 -4
BITMAP
00000000000100
00004000000100
00024000010100
001F4055540100
007F4000000100
01FF4000056900
02FF856AFFF400
02FFFFFFFFD000
02F55555555540
02E00000000010
02E00000000010
1FE01555555010
3FE01000000010
7FE01000000050
7FE0101AAAAA80
7FE0101FFFFD00
7FE0101FFFF400
7FE01000001400
7FE01000000400
7FE01000000400
7FE01555540400
7FE01000000400
7FE01000000400
7FE01005555000
7FE0101FFF8000
7FE0101FFE0000
7FE0101AA95540
7FE01000000050
7FE01000000010
7FE01000000010
7FE01555555010
7FE00000000010
7FE00000000010
7FF55555555540
7FFFFFFFFFFE00
7FFFFFFFFFF800
7FFFFFFFFFD000
3FFFFFFFFF4000
ENDCHAR
STARTCHAR ecircumflex
ENCODING 234
SWIDTH 754 0
DWIDTH 27 0
BBX 26 40 1 -4
BITMAP
00000015400000
00000540150000
00005400005000
00020015400400
000E0140150400
007E0000000400
01FE0000000400
03FE006B900400
07FF5BFFFE9400
07FFFFFFFFF800
07F55555555540
07E00000000010
07E00000000010
2FE01555555010
7FE01000000010
7FE01000000050
7FE0101AAAAA80
7FE0101FFFFD00
7FE0101FFFF400
7FE01000001400
7FE01000000400
7FE01000000400
7FE01555540400
7FE01000000400
7FE01000000400
7FE01005555000
7FE0101FFF8000
7FE0101FFE0000
7FE0101AA95540
7FE01000000050
7FE01000000010
7FE01000000010
7FE01555555010
7FE00000000010
7FE00000000010
7FF55555555540
7FFFFFFFFFFE00
7FFFFFFFFFF800
7FFFFFFFFFD000
3FFFFFFFFF4000
ENDCHAR
STARTCHAR edieresis
ENCODING 235
SWIDTH 754 0
DWIDTH 27 0
BBX 26 39 1 -4
BITMAP
00015554555500
00090005800100
002D0007800040
01FD0407804040
07FD0407804040
0BFD0007800040
0BFE000B900140
0BFFFFFFFFFF00
0BF55555555540
0BE00000000000
0BE00000000010
0BE00000000010
1FE01555555010
7FE01000000010
7FE01000000050
7FE0101AAAAA80
7FE0101FFFFD00
7FE0101FFFF400
7FE01000001400
7FE01000000400
7FE01000000400
7FE01555540400
7FE01000000400
7FE01000000400
7FE01005555000
7FE0101FFF8000
7FE0101FFE0000
7FE0101AA95540
7FE01000000050
7FE01000000010
7FE01000000010
7FE01555555010
7FE00000000010
7FE00000000010
7FF55555555540
7FFFFFFFFFFE00
7FFFFFFFFFF800
7FFFFFFFFFD000
3FFFFFFFFF4000
ENDCHAR
STARTCHAR igrave
ENCODING 236
SWIDTH 705 0
DWIDTH 25 0
BBX 24 39 1 -4
BITMAP
000400000000
001400000000
00B400000010
02F404000010
0FF401555010
1FF800000010
2FFE95000010
2FFFFFFA9520
2FFFFFFFFFD0
2FE555555554
0BC000000001
0BC000000001
2FC055555501
BFC000040001
FFC000040001
FFEA900406A8
FFFFF0040BE0
FFFFF0040B80
FFFFF0040900
6ABFF0040400
003FF0040400
003FF0040400
003FF0040400
003FF0040400
003FF0040400
003FF0040400
003FF0040400
003AA0040554
008000040001
02C000040001
1FC000040001
7FC055555501
FFC000000001
FFC000000001
FFE555555554
FFFFFFFFFFE0
FFFFFFFFFF80
FFFFFFFFFE00
BFFFFFFFF400
ENDCHAR
STARTCHAR iacute
ENCODING 237
SWIDTH 705 0
DWIDTH 25 0
BBX 24 38 1 -4
BITMAP
000000000010
000400000010
002400001010
01F405554010
07F400000010
1FF400005690
2FF856AFFF40
2FFFFFFFFD00
2FE555555554
2FC000000001
1FC000000001
2FC055555501
BFC000040001
FFC000040001
FFEA900406A8
FFFFF0040BE0
FFFFF0040B80
FFFFF0040900
6ABFF0040400
003FF0040400
003FF0040400
003FF0040400
003FF0040400
003FF0040400
003FF0040400
003FF0040400
003AA0040554
008000040001
02C000040001
1FC000040001
7FC055555501
FFC000000001
FFC000000001
FFE555555554
FFFFFFFFFFE0
FFFFFFFFFF80
FFFFFFFFFE00
BFFFFFFFF400
ENDCHAR
STARTCHAR icircumflex
ENCODING 238
SWIDTH 705 0
DWIDTH 25 0
BBX 24 40 1 -4
BITMAP
000000550000
000015005400
000140000140
000800550010
007405005010
01F400000010
0BF400000010
1FF401BA4010
2FF96FFFF950
2FFFFFFFFFD0
2FE555555554
2FC000000001
1FC000000001
2FC055555501
BFC000040001
FFC000040001
FFEA900406A8
FFFFF0040BE0
FFFFF0040B80
FFFFF0040900
6ABFF0040400
003FF0040400
003FF0040400
003FF0040400
003FF0040400
003FF0040400
003FF0040400
003FF0040400
003AA0040554
008000040001
02C000040001
1FC000040001
7FC055555501
FFC000000001
FFC000000001
FFE555555554
FFFFFFFFFFE0
FFFFFFFFFF80
FFFFFFFFFE00
BFFFFFFFF400
ENDCHAR
STARTCHAR idieresis
ENCODING 239
SWIDTH 705 0
DWIDTH 25 0
BBX 24 39 1 -4
BITMAP
001555415550
006000180004
01E0003C0004
0BE0103C0404
2FE0103C0404
7FE0003C0004
7FF4007D0018
7FFFFFFFFFF4
7FE555555554
7FC000000000
7FC000000001
2FC000000001
7FC055555501
FFC000040001
FFC000040001
FFEA900406A8
FFFFF0040BE0
FFFFF0040B80
FFFFF0040900
6ABFF0040400
003FF0040400
003FF0040400
003FF0040400
003FF0040400
003FF0040400
003FF0040400
003FF0040400
003AA0040554
008000040001
02C000040001
1FC000040001
7FC055555501
FFC000000001
FFC000000001
FFE555555554
FFFFFFFFFFE0
FFFFFFFFFF80
FFFFFFFFFE00
BFFFFFFFF400
ENDCHAR
STARTCHAR eth
ENCODING 240
SWIDTH 856 0
DWIDTH 31 0
BBX 30 30 0 -4
BITMAP
0005555555555000
001C000000001400
00BC000000000100
02FC015555540080
0FFC010000010040
0FFC010000004010
0FFC010000004010
0FFC0103FF801010
0FFC0103FFC01010
0FFC0103FFC01010
0FC001001FC01010
0FC001001FC01010
2FC055541FC01010
BFC001001FC01010
FFC001001FC01010
FFC001001FC01010
FFFC0103FFC01010
FFFC0102FFC01010
FFFC0101AA401010
FFFC010000005010
5FFC010000004010
0FFC010000014050
0FFC015555540040
0FFC000000000100
0FFC000000000900
0FFE55555556A000
0FFFFFFFFFFF8000
0FFFFFFFFFFD0000
0FFFFFFFFFF40000
0BFFFFFFFA400000
ENDCHAR
STARTCHAR ntilde
ENCODING 241
SWIDTH 853 0
DWIDTH 31 0
BBX 28 39 1 -4
BITMAP
00000555400600
00002400155440
00009000000040
0007C000000040
001FC055540040
007FC000014040
00BFC000000040
00FFC054000100
00FFEBFFEAA800
00F556FFFF5555
00E0003FFE0001
07E0000FFE0001
1FE01406FE0101
7FE01101FE0101
7FE011407E0101
7FE010501E0101
7FE01010060101
7FE01004010101
7FE01001000101
7FE01000400101
7FE01000100101
7FE01000040101
7FE01014050101
7FE0101D014101
7FE0101F005101
7FE0101F801101
7FE0101FE00501
7FE0101FF40201
7FE0101FFD0101
7FE0101FFE0101
7FE0101FFE0101
7FE0101FFE0101
7FE0001BFE0001
7FE00017FE0001
7FF55557FF5556
7FFFFF87FFFFF8
7FFFFD07FFFFE0
7FFFF407FFFF40
3FFF8002FFFD00
ENDCHAR
STARTCHAR ograve
ENCODING 242
SWIDTH 837 0
DWIDTH 30 0
BBX 28 41 1 -5
BITMAP
00001540000000
0000A6BFA54000
0007C00056AE00
001F8000000140
007F8055550040
00FF8000004040
01FFC000000040
01FFE950000040
01FFFFFFEA5000
00FFF940005900
00BF4000000050
00080000000014
00240055550004
01E00500005001
07D00400000401
1FD01000000101
3FD0100BF80101
7FD0102FFD0101
BFD0102FFD0101
BFD0102FFD0101
BFD0102FFD0101
BFD0101BFD0101
BFD0101BFD0101
BFD0101BFD0101
BFD0101BFD0101
BFD0101BFD0101
BFD0101BFD0101
BFD0101BFD0101
BFD0101BFC0101
BFD01000000101
BFD00400000401
BFE00500005001
BFF00055550004
BFF80000000004
7FFE4000000050
3FFFE500001B40
2FFFFFFEAFFD00
0BFFFFFFFFF000
02FFFFFFFF8000
002FFFFFF90000
00005555000000
ENDCHAR
STARTCHAR oacute
ENCODING 243
SWIDTH 837 0
DWIDTH 30 0
BBX 28 41 1 -5
BITMAP
00000000005500
00000056BEA600
00006EA5400040
0001C000000040
0007C015550040
002F8040000040
00BF8000000000
00FFC000016400
01FFD16AFFE000
01FFF940005500
01FF4000000050
00FC0000000014
00B40055550004
01E00500005001
07D00400000401
1FD01000000101
3FD0100BF80101
7FD0102FFD0101
BFD0102FFD0101
BFD0102FFD0101
BFD0102FFD0101
BFD0101BFD0101
BFD0101BFD0101
BFD0101BFD0101
BFD0101BFD0101
BFD0101BFD0101
BFD0101BFD0101
BFD0101BFD0101
BFD0101BFC0101
BFD01000000101
BFD00400000401
BFE00500005001
BFF00055550004
BFF80000000004
7FFE4000000050
3FFFE500001B40
2FFFFFFEAFFD00
0BFFFFFFFFF000
02FFFFFFFF8000
002FFFFFF90000
00005555000000
ENDCHAR
STARTCHAR ocircumflex
ENCODING 244
SWIDTH 837 0
DWIDTH 30 0
BBX 28 41 1 -5
BITMAP
00000005500000
00000150054000
00001400001500
00008005540100
0007C050054040
001F8000000040
007F8001500040
00FFC06FFE4040
01FFEFFFFFFA00
01FFF940005900
01FF4000000050
00FC0000000014
00B40055550004
01E00500005001
07D00400000401
1FD01000000101
3FD0100BF80101
7FD0102FFD0101
BFD0102FFD0101
BFD0102FFD0101
BFD0102FFD0101
BFD0101BFD0101
BFD0101BFD0101
BFD0101BFD0101
BFD0101BFD0101
BFD0101BFD0101
BFD0101BFD0101
BFD0101BFD0101
BFD0101BFC0101
BFD01000000101
BFD00400000401
BFE00500005001
BFF00055550004
BFF80000000004
7FFE4000000050
3FFFE500001B40
2FFFFFFEAFFD00
0BFFFFFFFFF000
02FFFFFFFF8000
002FFFFFF90000
00005555000000
ENDCHAR
STARTCHAR otilde
ENCODING 245
SWIDTH 837 0
DWIDTH 30 0
BBX 28 40 1 -5
BITMAP
00000555400500
00006000155100
0001C000000040
000B8000000040
002F8055540040
00BF8000054040
00FF8000000000
01FFC054000100
01FFEFFFEAA800
01FFF940005500
00FF4000000050
00780055550014
01F00500005004
07E00400000401
1FD01000000101
3FD0100BF80101
7FD0102FFD0101
BFD0102FFD0101
BFD0102FFD0101
BFD0102FFD0101
BFD0101BFD0101
BFD0101BFD0101
BFD0101BFD0101
BFD0101BFD0101
BFD0101BFD0101
BFD0101BFD0101
BFD0101BFD0101
BFD0101BFC0101
BFD01000000101
BFD00400000401
BFE00500005001
BFF00055550005
BFF80000000008
7FFE4000000060
3FFFE500001A80
2FFFFFFEAFFD00
0BFFFFFFFFF400
02FFFFFFFF8000
002FFFFFF90000
00005555000000
ENDCHAR
STARTCHAR odieresis
ENCODING 246
SWIDTH 837 0
DWIDTH 30 0
BBX 28 40 1 -5
BITMAP
00005554155540
00030001900040
001F0002D00040
007F0102D04040
02FF0102D00040
03FF0002D00040
03FF4002D00040
03FFFFFFFFFF40
03FFF940005900
03FF4000000050
03FC0000000014
00740055550004
01E00500005001
07D00400000401
1FD01000000101
3FD0100BF80101
7FD0102FFD0101
BFD0102FFD0101
BFD0102FFD0101
BFD0102FFD0101
BFD0101BFD0101
BFD0101BFD0101
BFD0101BFD0101
BFD0101BFD0101
BFD0101BFD0101
BFD0101BFD0101
BFD0101BFD0101
BFD0101BFC0101
BFD01000000101
BFD00400000401
BFE00500005001
BFF00055550004
BFF80000000004
7FFE4000000050
3FFFE500001B40
2FFFFFFEAFFD00
0BFFFFFFFFF000
02FFFFFFFF8000
002FFFFFF90000
00005555000000
ENDCHAR
STARTCHAR divide
ENCODING 247
SWIDTH 834 0
DWIDTH 30 0
BBX 28 28 1 -3
BITMAP
00000055554000
00000240004000
00001F00004000
00007F00404000
0001FF00404000
0002FF00004000
0003FF40004000
0003FFEAAA4000
0006AAAAA95554
00600000000001
01E00000000001
07E00000000001
2FE01555555501
7FE00000000001
7FF40000000005
7FFFFFFFFFFFF4
7FFFFF9555FFD0
7FFFFF40007F40
7FFFFF00007C00
1AAABF00405000
0001FF00404000
0002FF00004000
0003FF00004000
0003FF95554000
0003FFFFFE0000
0003FFFFF40000
0003FFFFD00000
0001FFFE000000
ENDCHAR
STARTCHAR oslash
ENCODING 248
SWIDTH 837 0
DWIDTH 30 0
BBX 28 37 1 -7
BITMAP
00000000005550
00000000010004
00000000080010
00000055580010
00001500000010
00014000001010
00080055558004
00700500005401
01E01000010501
0BD01000010101
2FD0501F840101
3FD0407F440101
7FD0407E040101
BFD0407D100101
BFD0407C100101
BFD04078424101
BFD04070434101
BFD04061474101
BFD040510B4101
BFD040011F4101
BFD040042F4101
BFD040043F0101
BFD05010BF0101
BFD01010A90101
BFD01050000501
BFE00540001401
BFF00095554005
BFF80100000004
7FFE0100000060
7FFE0000005B40
2FFD000FFFFD00
1FFC002FFFF400
07FFAAFFFF8000
07FFFFFFF90000
0FFFF955000000
0FFFD000000000
05550000000000
ENDCHAR
STARTCHAR ugrave
ENCODING 249
SWIDTH 846 0
DWIDTH 30 0
BBX 28 39 1 -5
BITMAP
00018000000000
00078000000100
002F8040000100
00BF8015550100
01FF8000000100
01FFE950000100
01FFFFFFE95200
01FFFFFFFFFD00
01F5556FFF5555
00D0001FFE0001
07D0001FFE0001
1FD01011FE0101
7FD01017FE0101
BFD01017FE0101
BFD01017FE0101
BFD01017FE0101
BFD01017FE0101
BFD01017FE0101
BFD01017FE0101
BFD01017FE0101
BFD01017FE0101
BFD01017FE0101
BFD01017FE0101
BFD01017FE0101
BFD01017FE0101
BFD01017FE0101
BFD0100BFD0101
BFD01000000101
BFE00400000401
BFE00140001401
BFF40055554001
7FFC0000000008
7FFF4000000060
3FFFF900001680
1FFFFFFEAFFD00
0BFFFFFFFFF400
01FFFFFFFF8000
001FFFFFF90000
00005555400000
ENDCHAR
STARTCHAR uacute
ENCODING 250
SWIDTH 846 0
DWIDTH 30 0
BBX 28 39 1 -5
BITMAP
00000000000040
00001000000040
00009000004040
0007D015550040
001FD000000040
007FD000015A40
00BFE15AFFFD00
00BFFFFFFFF400
00B5556FFF5555
0090001FFE0001
07D000156E0001
1FD01011FE0101
7FD01017FE0101
BFD01017FE0101
BFD01017FE0101
BFD01017FE0101
BFD01017FE0101
BFD01017FE0101
BFD01017FE0101
BFD01017FE0101
BFD01017FE0101
BFD01017FE0101
BFD01017FE0101
BFD01017FE0101
BFD01017FE0101
BFD01017FE0101
BFD0100BFD0101
BFD01000000101
BFE00400000401
BFE00140001401
BFF40055554001
7FFC0000000008
7FFF4000000060
3FFFF900001680
1FFFFFFEAFFD00
0BFFFFFFFFF400
01FFFFFFFF8000
001FFFFFF90000
00005555400000
ENDCHAR
STARTCHAR ucircumflex
ENCODING 251
SWIDTH 846 0
DWIDTH 30 0
BBX 28 41 1 -5
BITMAP
00000001540000
00000050014000
00000000000000
00004005540040
0002C050014040
000BC000000040
002FC001500040
00BFC16FFE5040
00FFEFFFFFFE40
00FFFFFFFFFE00
00F5556FFF5555
00D0001FFE0001
07D00016FE0001
1FD01011FE0101
7FD01017FE0101
BFD01017FE0101
BFD01017FE0101
BFD01017FE0101
BFD01017FE0101
BFD01017FE0101
BFD01017FE0101
BFD01017FE0101
BFD01017FE0101
BFD01017FE0101
BFD01017FE0101
BFD01017FE0101
BFD01017FE0101
BFD01017FE0101
BFD0100BF80101
BFD01000000101
BFE00400000401
BFE00140001401
BFF40055554001
7FFC0000000008
7FFF4000000060
3FFFF900001680
1FFFFFFEAFFD00
0BFFFFFFFFF400
01FFFFFFFF8000
001FFFFFF90000
00005555400000
ENDCHAR
STARTCHAR udieresis
ENCODING 252
SWIDTH 846 0
DWIDTH 30 0
BBX 28 40 1 -5
BITMAP
00005555155540
00024001600040
000B0001D00050
007F0101D01050
01FF0101D01050
02FF0001D00050
03FF0001D00040
03FF4002E00040
03FFFFFFFFFF00
03F5556FFF5555
03D0001FFE0001
0BD0001FFE0001
2FD01011FE0101
7FD01017FE0101
BFD01017FE0101
BFD01017FE0101
BFD01017FE0101
BFD01017FE0101
BFD01017FE0101
BFD01017FE0101
BFD01017FE0101
BFD01017FE0101
BFD01017FE0101
BFD01017FE0101
BFD01017FE0101
BFD01017FE0101
BFD01017FE0101
BFD0100BFD0101
BFD01000000101
BFE00400000401
BFE00140001401
BFF40055554001
7FFC0000000008
7FFF4000000060
3FFFF900001680
1FFFFFFEAFFD00
0BFFFFFFFFF400
01FFFFFFFF8000
001FFFFFF90000
00005555400000
ENDCHAR
STARTCHAR yacute
ENCODING 253
SWIDTH 805 0
DWIDTH 29 0
BBX 29 39 0 -4
BITMAP
0000000000004000
0000000000004000
0000100000004000
0000A00000404000
0002E01555004000
001FE00000004000
003FE000015A8000
007FF15ABFFD0000
007FFFFFFFF40000
0075556FFF955500
00A0000FFF000040
02E000092F000040
0BE01004BF000040
3FE01006FF010040
7FE01007FF010040
7FE01007FF010040
7FE01007FF010040
7FE01007FE010040
7FE01407FD010040
7FF00402F8010100
7FF40100F0040100
7FFC014000100500
7FFE004000500400
3FFF401000401000
2FFFD00401004000
0FFFF00154014000
07FFF80040010000
02FFFD0040040000
00BFFF4040100000
003FFF8040100000
001FFF8040100000
0007FF8040100000
0002FF8000100000
0001FF8000100000
0001FFD555400000
0001FFFFFF400000
0001FFFFF8000000
0001FFFFE0000000
0000FFFF40000000
ENDCHAR
STARTCHAR thorn
ENCODING 254
SWIDTH 792 0
DWIDTH 29 0
BBX 27 30 1 -4
BITMAP
00155550000000
00A00010000000
02E00010000000
1FE01005555400
3FE01000000140
7FE01000000050
7FE01555550010
7FE01000005004
7FE01000001404
7FE01000000404
7FE0101FF40404
7FE0101FF80404
7FE0101FF80404
7FE0101FF80404
7FE0101FF40404
7FE01005500404
7FE01000001404
7FE01000005004
7FE01555550010
7FE01000000010
7FE01000000040
7FE01000005900
7FE0101FFFF400
7FE0001FFFD000
7FE0001FFE0000
7FF5556FE40000
7FFFFF94000000
7FFFFE00000000
7FFFF400000000
3FFFD000000000
ENDCHAR
STARTCHAR ydieresis
ENCODING 255
SWIDTH 805 0
DWIDTH 29 0
BBX 29 39 0 -4
BITMAP
0000555505554000
0002400160001000
000B4001E0001000
002F4041E0101000
00FF4041E0101000
02FF4001E0001000
02FF4001E0001000
02FF8002F4005000
02FFFFFFFFFF4000
02F5556FFF955500
02E0000FFF000040
07E0000FFF000040
1FE01005BF000040
3FE01006FF010040
7FE01007FF010040
7FE01007FF010040
7FE01007FF010040
7FE01007FE010040
7FE01407FD010040
7FF00402F8010100
7FF40100F0040100
7FFC014000100500
3FFE004000500400
3FFF401000401000
2FFFD00401004000
0FFFF00154014000
07FFF80040010000
01FFFD0040040000
00BFFF4040100000
003FFF8040100000
001FFF8040100000
0007FF8040100000
0002FF8000100000
0001FF8000100000
0001FFD555400000
0001FFFFFF400000
0001FFFFF8000000
0001FFFFE0000000
0000FFFF40000000
ENDCHAR
STARTCHAR Amacron
ENCODING 256
SWIDTH 830 0
DWIDTH 30 0
BBX 28 38 1 -4
BITMAP
00001555555500
00018000000100
00078000000100
002F8055554100
00BF8000000100
01FFD000000100
01FFFFFFFFFD00
01FFF955555400
01FFE000000100
01FFD000000100
00AFC000000100
001F4015550040
003F0040010040
00BE0040004050
00FD0100004010
01FC0103D01010
02F80407E01004
03F4040BF01004
07F0040FF40404
0FE0101FF80401
1FD0102FF80101
2FD01000000101
3FC01000000101
7FC01000000101
BFC02555555501
BFC01000000101
FFC01000000101
FFC01015540101
FFC0103FFD0101
FFC0103FFD0101
FFC0103FFD0101
FFC0003FFD0001
FFC0001BFD0001
FFE5558BFE5555
FFFFFF4BFFFFF4
FFFFF80BFFFFD0
FFFFE00BFFFF00
BFFF4007FFF800
ENDCHAR
STARTCHAR amacron
ENCODING 257
SWIDTH 830 0
DWIDTH 30 0
BBX 28 38 1 -4
BITMAP
00001555555500
00018000000100
00078000000100
002F8055554100
00BF8000000100
01FFD000000100
01FFFFFFFFFD00
01FFF955555400
01FFE000000100
01FFD000000100
00AFC000000100
001F4015550040
003F0040010040
00BE0040004050
00FD0100004010
01FC0103D01010
02F80407E01004
03F4040BF01004
07F0040FF40404
0FE0101FF80401
1FD0102FF80101
2FD01000000101
3FC01000000101
7FC01000000101
BFC02555555501
BFC01000000101
FFC01000000101
FFC01015540101
FFC0103FFD0101
FFC0103FFD0101
FFC0103FFD0101
FFC0003FFD0001
FFC0001BFD0001
FFE5558BFE5555
FFFFFF4BFFFFF4
FFFFF80BFFFFD0
FFFFE00BFFFF00
BFFF4007FFF800
ENDCHAR
STARTCHAR Abreve
ENCODING 258
SWIDTH 830 0
DWIDTH 30 0
BBX 28 40 1 -4
BITMAP
00005550055500
00018004240040
000B4004B40040
002F4100501040
00BF8140008040
01FF8015550040
02FFC000000100
02FFE000000000
01FFF900001000
01FFFFEAAA8000
00FFFEAAAAA800
007FE000000500
000BD000000200
000BC015550100
003F8040010040
00BF4040004040
00FE0100004050
01FD0103D01010
02FC0407E01010
03F8040BF01004
07F4040FF40404
0FF0101FF80404
1FE0102FF80101
2FD01000000101
3FC01000000101
7FC01000000101
BFC02555555501
BFC01000000101
FFC01000000101
FFC01015540101
FFC0103FFD0101
FFC0103FFD0101
FFC0103FFD0101
FFC0003FFD0001
FFC0001BFD0001
FFE5558BFE5555
FFFFFF4BFFFFF8
FFFFF80BFFFFD0
FFFFE00BFFFF40
BFFF4007FFF800
ENDCHAR
STARTCHAR abreve
ENCODING 259
SWIDTH 830 0
DWIDTH 30 0
BBX 28 40 1 -4
BITMAP
00005550055500
00018004240040
000B4004B40040
002F4100501040
00BF8140008040
01FF8015550040
02FFC000000100
02FFE000000000
01FFF900001000
01FFFFEAAA8000
00FFFEAAAAA800
007FE000000500
000BD000000200
000BC015550100
003F8040010040
00BF4040004040
00FE0100004050
01FD0103D01010
02FC0407E01010
03F8040BF01004
07F4040FF40404
0FF0101FF80404
1FE0102FF80101
2FD01000000101
3FC01000000101
7FC01000000101
BFC02555555501
BFC01000000101
FFC01000000101
FFC01015540101
FFC0103FFD0101
FFC0103FFD0101
FFC0103FFD0101
FFC0003FFD0001
FFC0001BFD0001
FFE5558BFE5555
FFFFFF4BFFFFF8
FFFFF80BFFFFD0
FFFFE00BFFFF40
BFFF4007FFF800
ENDCHAR
STARTCHAR Aogonek
ENCODING 260
SWIDTH 830 0
DWIDTH 30 0
BBX 28 37 1 -11
BITMAP
00001555555400
00006000000100
0002D000000100
000BC015550100
003F4040010040
00BF0040004040
00FE0100004010
01FD0103D01010
02FC0407E01010
03F4040BF01004
07F0040FF40404
0FE0101FF80404
1FD0102FF80101
2FD01000000101
3FC01000000101
7FC01000000101
BFC02555555501
BFC01000000101
FFC01000000101
FFC01015540101
FFC0103FFD0101
FFC0103FFD0101
FFC0103FFD0101
FFC0003FFD0401
FFC0001BFD0401
FFE5558BFC1415
FFFFFF4BFC1010
FFFFF80BF81055
FFFFE00BF81001
BFFF400FF81501
0000000FF80001
0000001FFD0001
0000001FFF9555
0000001FFFFFF8
0000001FFFFFD0
0000000BFFFF40
00000002FFF800
ENDCHAR
STARTCHAR aogonek
ENCODING 261
SWIDTH 830 0
DWIDTH 30 0
BBX 28 37 1 -11
BITMAP
00001555555400
00006000000100
0002D000000100
000BC015550100
003F4040010040
00BF0040004040
00FE0100004010
01FD0103D01010
02FC0407E01010
03F4040BF01004
07F0040FF40404
0FE0101FF80404
1FD0102FF80101
2FD01000000101
3FC01000000101
7FC01000000101
BFC02555555501
BFC01000000101
FFC01000000101
FFC01015540101
FFC0103FFD0101
FFC0103FFD0101
FFC0103FFD0101
FFC0003FFD0401
FFC0001BFD0401
FFE5558BFC1415
FFFFFF4BFC1010
FFFFF80BF81055
FFFFE00BF81001
BFFF400FF81501
0000000FF80001
0000001FFD0001
0000001FFF9555
0000001FFFFFF8
0000001FFFFFD0
0000000BFFFF40
00000002FFF800
ENDCHAR
STARTCHAR Cacute
ENCODING 262
SWIDTH 728 0
DWIDTH 26 0
BBX 25 38 1 -4
BITMAP
00000000000040
00005000000040
0001C000004040
0007C055550040
002FC000000040
00BFC000015A00
00FFD16AFFF800
00FFFFFFFFE000
00FFFA55555540
00FF4000000040
00BC0000000040
00740155554040
01E00900000040
0BD01000000040
1FD01001555540
3FD0101FFFFD00
7FD0102FFFF400
BFD0102FFF8000
BFD0102FFE0000
BFD01010000000
BFD01010000000
BFD01010000000
BFD01010000000
BFD01010000000
BFD01010000000
BFD01010000000
BFD01005555500
BFD01000000040
BFD01000000040
BFE00400000040
BFF40155554040
BFFC0000000040
7FFF4000000040
3FFFF955555500
1FFFFFFFFFFD00
0BFFFFFFFFE000
01FFFFFFFF8000
001BFFFFFD0000
ENDCHAR
STARTCHAR cacute
ENCODING 263
SWIDTH 728 0
DWIDTH 26 0
BBX 25 38 1 -4
BITMAP
00000000000040
00005000000040
0001C000004040
0007C055550040
002FC000000040
00BFC000015A00
00FFD16AFFF800
00FFFFFFFFE000
00FFFA55555540
00FF4000000040
00BC0000000040
00740155554040
01E00900000040
0BD01000000040
1FD01001555540
3FD0101FFFFD00
7FD0102FFFF400
BFD0102FFF8000
BFD0102FFE0000
BFD01010000000
BFD01010000000
BFD01010000000
BFD01010000000
BFD01010000000
BFD01010000000
BFD01010000000
BFD01005555500
BFD01000000040
BFD01000000040
BFE00400000040
BFF40155554040
BFFC0000000040
7FFF4000000040
3FFFF955555500
1FFFFFFFFFFD00
0BFFFFFFFFE000
01FFFFFFFF8000
001BFFFFFD0000
ENDCHAR
STARTCHAR Ccircumflex
ENCODING 264
SWIDTH 728 0
DWIDTH 26 0
BBX 25 40 1 -4
BITMAP
00000005500000
00000150150000
00005400005400
00014015500500
000B0150150100
002F0000000100
00FF0000000100
02FF005B940100
03FF5BFFFF9500
03FFFFFFFFF800
03FFFA55555540
03FF4000000040
03FC0000000040
00740155554040
01E00900000040
07D01000000040
1FD01001555540
3FD0101FFFFD00
7FD0102FFFF400
BFD0102FFF8000
BFD0102FFE0000
BFD01010000000
BFD01010000000
BFD01010000000
BFD01010000000
BFD01010000000
BFD01010000000
BFD01010000000
BFD01005555500
BFD01000000040
BFD01000000040
BFE00400000040
BFF40155554040
BFFC0000000040
7FFF4000000040
3FFFF955555500
1FFFFFFFFFFD00
0BFFFFFFFFE000
01FFFFFFFF8000
001BFFFFFD0000
ENDCHAR
STARTCHAR ccircumflex
ENCODING 265
SWIDTH 728 0
DWIDTH 26 0
BBX 25 40 1 -4
BITMAP
00000005500000
00000150150000
00005400005400
00014015500500
000B0150150100
002F0000000100
00FF0000000100
02FF005B940100
03FF5BFFFF9500
03FFFFFFFFF800
03FFFA55555540
03FF4000000040
03FC0000000040
00740155554040
01E00900000040
07D01000000040
1FD01001555540
3FD0101FFFFD00
7FD0102FFFF400
BFD0102FFF8000
BFD0102FFE0000
BFD01010000000
BFD01010000000
BFD01010000000
BFD01010000000
BFD01010000000
BFD01010000000
BFD01010000000
BFD01005555500
BFD01000000040
BFD01000000040
BFE00400000040
BFF40155554040
BFFC0000000040
7FFF4000000040
3FFFF955555500
1FFFFFFFFFFD00
0BFFFFFFFFE000
01FFFFFFFF8000
001BFFFFFD0000
ENDCHAR
STARTCHAR Cdotaccent
ENCODING 266
SWIDTH 728 0
DWIDTH 26 0
BBX 25 40 1 -4
BITMAP
00000055550000
00000600004000
00001E00004000
00007E00004000
0002FE01004000
0003FE01004000
0007FE00004000
0007FE00004000
0007FF40010000
0007FFFFFD0000
0007FA55555540
000B4000000040
002C0000000040
00B40155554040
03E00900000040
0FD01000000040
2FD01001555540
7FD0101FFFFD00
BFD0102FFFF400
BFD0102FFF8000
BFD0102FFE0000
BFD01010000000
BFD01010000000
BFD01010000000
BFD01010000000
BFD01010000000
BFD01010000000
BFD01010000000
BFD01005555500
BFD01000000040
BFD01000000040
BFE00400000040
BFF40155554040
BFFC0000000040
7FFF4000000040
2FFFF955555500
1FFFFFFFFFFD00
07FFFFFFFFE000
01FFFFFFFF8000
001BFFFFFD0000
ENDCHAR
STARTCHAR cdotaccent
ENCODING 267
SWIDTH 728 0
DWIDTH 26 0
BBX 25 40 1 -4
BITMAP
00000055550000
00000600004000
00001E00004000
00007E00004000
0002FE01004000
0003FE01004000
0007FE00004000
0007FE00004000
0007FF40010000
0007FFFFFD0000
0007FA55555540
000B4000000040
002C0000000040
00B40155554040
03E00900000040
0FD01000000040
2FD01001555540
7FD0101FFFFD00
BFD0102FFFF400
BFD0102FFF8000
BFD0102FFE0000
BFD01010000000
BFD01010000000
BFD01010000000
BFD01010000000
BFD01010000000
BFD01010000000
BFD01010000000
BFD01005555500
BFD01000000040
BFD01000000040
BFE00400000040
BFF40155554040
BFFC0000000040
7FFF4000000040
2FFFF955555500
1FFFFFFFFFFD00
07FFFFFFFFE000
01FFFFFFFF8000
001BFFFFFD0000
ENDCHAR
STARTCHAR Ccaron
ENCODING 268
SWIDTH 728 0
DWIDTH 26 0
BBX 25 41 1 -4
BITMAP
00000000001400
00010040054100
00070015500100
002F0000000100
00BF0000000100
02FF0150150100
03FF0005500100
03FF8000000400
03FFF400006000
03FFFF800B8000
03FFFFFABE0000
02FFFA55555540
006F4000000040
00080000000040
00240155554040
01E00900000040
07D01000000040
1FD01001555540
3FD0101FFFFD00
7FD0102FFFF400
BFD0102FFF8000
BFD0102FFE0000
BFD01010000000
BFD01010000000
BFD01010000000
BFD01010000000
BFD01010000000
BFD01010000000
BFD01010000000
BFD01005555500
BFD01000000040
BFD01000000040
BFE00400000040
BFF40155554040
BFFC0000000040
7FFF4000000040
3FFFF955555500
1FFFFFFFFFFD00
0BFFFFFFFFE000
01FFFFFFFF8000
001BFFFFFD0000
ENDCHAR
STARTCHAR ccaron
ENCODING 269
SWIDTH 728 0
DWIDTH 26 0
BBX 25 41 1 -4
BITMAP
00000000001400
00010040054100
00070015500100
002F0000000100
00BF0000000100
02FF0150150100
03FF0005500100
03FF8000000400
03FFF400006000
03FFFF800B8000
03FFFFFABE0000
02FFFA55555540
006F4000000040
00080000000040
00240155554040
01E00900000040
07D01000000040
1FD01001555540
3FD0101FFFFD00
7FD0102FFFF400
BFD0102FFF8000
BFD0102FFE0000
BFD01010000000
BFD01010000000
BFD01010000000
BFD01010000000
BFD01010000000
BFD01010000000
BFD01010000000
BFD01005555500
BFD01000000040
BFD01000000040
BFE00400000040
BFF40155554040
BFFC0000000040
7FFF4000000040
3FFFF955555500
1FFFFFFFFFFD00
0BFFFFFFFFE000
01FFFFFFFF8000
001BFFFFFD0000
ENDCHAR
STARTCHAR Dcaron
ENCODING 270
SWIDTH 846 0
DWIDTH 30 0
BBX 29 41 1 -4
BITMAP
0000000000050000
0000401001504000
0001C00554004000
000BC00000004000
002FC00000004000
00BFC05405404000
00FFC00154004000
00FFE00000010000
00FFFD0000180000
00FFFFE002E00000
00FFFFFEAF800000
00B5555555554000
00A0000000006000
03E0000000000800
1FE0155555400100
3FE0100000140100
7FE0100000010100
7FE0100550010140
7FE0101FFD010040
7FE0101FFE010040
7FE0101FFE010040
7FE0101FFE010040
7FE0101BFE010040
7FE01017FE010040
7FE01017FE010040
7FE01017FE010040
7FE01017FE010040
7FE01017FE010040
7FE01017FE010040
7FE01006A8010040
7FE0100000010140
7FE0100000010100
7FE0100000140100
7FE0155555500100
7FE0000000000400
7FE0000000006000
7FF55555555B4000
7FFFFFFFFFFD0000
7FFFFFFFFFF40000
7FFFFFFFFF800000
3FFFFFFFE4000000
ENDCHAR
STARTCHAR dcaron
ENCODING 271
SWIDTH 846 0
DWIDTH 30 0
BBX 29 41 1 -4
BITMAP
0000000000050000
0000401001504000
0001C00554004000
000BC00000004000
002FC00000004000
00BFC05405404000
00FFC00154004000
00FFE00000010000
00FFFD0000180000
00FFFFE002E00000
00FFFFFEAF800000
00B5555555554000
00A0000000006000
03E0000000000800
1FE0155555400100
3FE0100000140100
7FE0100000010100
7FE0100550010140
7FE0101FFD010040
7FE0101FFE010040
7FE0101FFE010040
7FE0101FFE010040
7FE0101BFE010040
7FE01017FE010040
7FE01017FE010040
7FE01017FE010040
7FE01017FE010040
7FE01017FE010040
7FE01017FE010040
7FE01006A8010040
7FE0100000010140
7FE0100000010100
7FE0100000140100
7FE0155555500100
7FE0000000000400
7FE0000000006000
7FF55555555B4000
7FFFFFFFFFFD0000
7FFFFFFFFFF40000
7FFFFFFFFF800000
3FFFFFFFE4000000
ENDCHAR
STARTCHAR Dcroat
ENCODING 272
SWIDTH 856 0
DWIDTH 31 0
BBX 30 30 0 -4
BITMAP
0005555555555000
001C000000001400
00BC000000000100
02FC015555540080
0FFC010000010040
0FFC010000004010
0FFC010000004010
0FFC0103FF801010
0FFC0103FFC01010
0FFC0103FFC01010
0FC001001FC01010
0FC001001FC01010
2FC055541FC01010
BFC001001FC01010
FFC001001FC01010
FFC001001FC01010
FFFC0103FFC01010
FFFC0102FFC01010
FFFC0101AA401010
FFFC010000005010
5FFC010000004010
0FFC010000014050
0FFC015555540040
0FFC000000000100
0FFC000000000900
0FFE55555556A000
0FFFFFFFFFFF8000
0FFFFFFFFFFD0000
0FFFFFFFFFF40000
0BFFFFFFFA400000
ENDCHAR
STARTCHAR dcroat
ENCODING 273
SWIDTH 856 0
DWIDTH 31 0
BBX 30 30 0 -4
BITMAP
0005555555555000
001C000000001400
00BC000000000100
02FC015555540080
0FFC010000010040
0FFC010000004010
0FFC010000004010
0FFC0103FF801010
0FFC0103FFC01010
0FFC0103FFC01010
0FC001001FC01010
0FC001001FC01010
2FC055541FC01010
BFC001001FC01010
FFC001001FC01010
FFC001001FC01010
FFFC0103FFC01010
FFFC0102FFC01010
FFFC0101AA401010
FFFC010000005010
5FFC010000004010
0FFC010000014050
0FFC015555540040
0FFC000000000100
0FFC000000000900
0FFE55555556A000
0FFFFFFFFFFF8000
0FFFFFFFFFFD0000
0FFFFFFFFFF40000
0BFFFFFFFA400000
ENDCHAR
STARTCHAR Emacron
ENCODING 274
SWIDTH 754 0
DWIDTH 27 0
BBX 26 38 1 -4
BITMAP
00005555555400
00060000000400
001E0000000400
007E0155550400
02FE0000000400
07FE0000000400
07FF4000000400
07FFFFFFFFF000
07F55555555540
07E00000000010
07E00000000010
1FE01555555010
3FE01000000010
7FE01000000050
7FE0101AAAAA80
7FE0101FFFFD00
7FE0101FFFF400
7FE01000001400
7FE01000000400
7FE01000000400
7FE01555540400
7FE01000000400
7FE01000000400
7FE01005555000
7FE0101FFF8000
7FE0101FFE0000
7FE0101AA95540
7FE01000000050
7FE01000000010
7FE01000000010
7FE01555555010
7FE00000000010
7FE00000000010
7FF55555555540
7FFFFFFFFFFE00
7FFFFFFFFFF800
7FFFFFFFFFD000
3FFFFFFFFF4000
ENDCHAR
STARTCHAR emacron
ENCODING 275
SWIDTH 754 0
DWIDTH 27 0
BBX 26 38 1 -4
BITMAP
00005555555400
00060000000400
001E0000000400
007E0155550400
02FE0000000400
07FE0000000400
07FF4000000400
07FFFFFFFFF000
07F55555555540
07E00000000010
07E00000000010
1FE01555555010
3FE01000000010
7FE01000000050
7FE0101AAAAA80
7FE0101FFFFD00
7FE0101FFFF400
7FE01000001400
7FE01000000400
7FE01000000400
7FE01555540400
7FE01000000400
7FE01000000400
7FE01005555000
7FE0101FFF8000
7FE0101FFE0000
7FE0101AA95540
7FE01000000050
7FE01000000010
7FE01000000010
7FE01555555010
7FE00000000010
7FE00000000010
7FF55555555540
7FFFFFFFFFFE00
7FFFFFFFFFF800
7FFFFFFFFFD000
3FFFFFFFFF4000
ENDCHAR
STARTCHAR Ebreve
ENCODING 276
SWIDTH 754 0
DWIDTH 27 0
BBX 26 40 1 -4
BITMAP
00005550155500
00020010600100
001E0011E00100
007E0401404100
01FF0200014100
03FF0055540100
07FF4000000100
07FFC000000400
03FFF400005000
03FFFFAAAB4000
02F55555555540
00E00000000010
02E00000000010
1FE01555555010
3FE01000000010
7FE01000000050
7FE0101AAAAA80
7FE0101FFFFD00
7FE0101FFFF400
7FE01000001400
7FE01000000400
7FE01000000400
7FE01555540400
7FE01000000400
7FE01000000400
7FE01005555000
7FE0101FFF8000
7FE0101FFE0000
7FE0101AA95540
7FE01000000050
7FE01000000010
7FE01000000010
7FE01555555010
7FE00000000010
7FE00000000010
7FF55555555540
7FFFFFFFFFFE00
7FFFFFFFFFF800
7FFFFFFFFFD000
3FFFFFFFFF4000
ENDCHAR
STARTCHAR ebreve
ENCODING 277
SWIDTH 754 0
DWIDTH 27 0
BBX 26 40 1 -4
BITMAP
00005550155500
00020010600100
001E0011E00100
007E0401404100
01FF0200014100
03FF0055540100
07FF4000000100
07FFC000000400
03FFF400005000
03FFFFAAAB4000
02F55555555540
00E00000000010
02E00000000010
1FE01555555010
3FE01000000010
7FE01000000050
7FE0101AAAAA80
7FE0101FFFFD00
7FE0101FFFF400
7FE01000001400
7FE01000000400
7FE01000000400
7FE01555540400
7FE01000000400
7FE01000000400
7FE01005555000
7FE0101FFF8000
7FE0101FFE0000
7FE0101AA95540
7FE01000000050
7FE01000000010
7FE01000000010
7FE01555555010
7FE00000000010
7FE00000000010
7FF55555555540
7FFFFFFFFFFE00
7FFFFFFFFFF800
7FFFFFFFFFD000
3FFFFFFFFF4000
ENDCHAR
STARTCHAR Edotaccent
ENCODING 278
SWIDTH 754 0
DWIDTH 27 0
BBX 26 40 1 -4
BITMAP
00000155540000
00000800010000
00003800010000
0001F800010000
0007F804010000
000FF804010000
001FF800010000
001FF800010000
001FFD00040000
001FFFFFF40000
00155555555540
00A00000000010
02E00000000010
1FE01555555010
3FE01000000010
7FE01000000050
7FE0101AAAAA80
7FE0101FFFFD00
7FE0101FFFF400
7FE01000001400
7FE01000000400
7FE01000000400
7FE01555540400
7FE01000000400
7FE01000000400
7FE01005555000
7FE0101FFF8000
7FE0101FFE0000
7FE0101AA95540
7FE01000000050
7FE01000000010
7FE01000000010
7FE01555555010
7FE00000000010
7FE00000000010
7FF55555555540
7FFFFFFFFFFE00
7FFFFFFFFFF800
7FFFFFFFFFD000
3FFFFFFFFF4000
ENDCHAR
STARTCHAR edotaccent
ENCODING 279
SWIDTH 754 0
DWIDTH 27 0
BBX 26 40 1 -4
BITMAP
00000155540000
00000800010000
00003800010000
0001F800010000
0007F804010000
000FF804010000
001FF800010000
001FF800010000
001FFD00040000
001FFFFFF40000
00155555555540
00A00000000010
02E00000000010
1FE01555555010
3FE01000000010
7FE01000000050
7FE0101AAAAA80
7FE0101FFFFD00
7FE0101FFFF400
7FE01000001400
7FE01000000400
7FE01000000400
7FE01555540400
7FE01000000400
7FE01000000400
7FE01005555000
7FE0101FFF8000
7FE0101FFE0000
7FE0101AA95540
7FE01000000050
7FE01000000010
7FE01000000010
7FE01555555010
7FE00000000010
7FE00000000010
7FF55555555540
7FFFFFFFFFFE00
7FFFFFFFFFF800
7FFFFFFFFFD000
3FFFFFFFFF4000
ENDCHAR
STARTCHAR Eogonek
ENCODING 280
SWIDTH 754 0
DWIDTH 27 0
BBX 26 37 1 -11
BITMAP
00155555555540
00A00000000010
02E00000000010
1FE01555555010
3FE01000000010
7FE01000000050
7FE0101AAAAA80
7FE0101FFFFD00
7FE0101FFFF400
7FE01000001400
7FE01000000400
7FE01000000400
7FE01555540400
7FE01000000400
7FE01000000400
7FE01005555000
7FE0101FFF8000
7FE0101FFE0000
7FE0101AA95540
7FE01000000050
7FE01000000010
7FE01000000010
7FE01555559010
7FE00000010010
7FE00000010010
7FF55555010580
7FFFFFFF410B40
7FFFFFFF010940
7FFFFFFF010010
3FFFFFFF015010
000002FF400010
000003FF800010
000003FFE55540
000003FFFFFF00
000003FFFFF800
000001FFFFE000
0000006FFF4000
ENDCHAR
STARTCHAR eogonek
ENCODING 281
SWIDTH 754 0
DWIDTH 27 0
BBX 26 37 1 -11
BITMAP
00155555555540
00A00000000010
02E00000000010
1FE01555555010
3FE01000000010
7FE01000000050
7FE0101AAAAA80
7FE0101FFFFD00
7FE0101FFFF400
7FE01000001400
7FE01000000400
7FE01000000400
7FE01555540400
7FE01000000400
7FE01000000400
7FE01005555000
7FE0101FFF8000
7FE0101FFE0000
7FE0101AA95540
7FE01000000050
7FE01000000010
7FE01000000010
7FE01555559010
7FE00000010010
7FE00000010010
7FF55555010580
7FFFFFFF410B40
7FFFFFFF010940
7FFFFFFF010010
3FFFFFFF015010
000002FF400010
000003FF800010
000003FFE55540
000003FFFFFF00
000003FFFFF800
000001FFFFE000
0000006FFF4000
ENDCHAR
STARTCHAR Ecaron
ENCODING 282
SWIDTH 754 0
DWIDTH 27 0
BBX 26 41 1 -4
BITMAP
00000000001400
00010040054100
00070015500100
002F0000000100
00BF0000000100
02FF0150150100
03FF0015400100
03FF8000000400
03FFF400006000
03FFFF800B8000
03FFFFFABE0000
02F55555555540
00A00000000010
02E00000000010
1FE01555555010
3FE01000000010
7FE01000000050
7FE0101AAAAA80
7FE0101FFFFD00
7FE0101FFFF400
7FE01000001400
7FE01000000400
7FE01000000400
7FE01555540400
7FE01000000400
7FE01000000400
7FE01005555000
7FE0101FFF8000
7FE0101FFE0000
7FE0101AA95540
7FE01000000050
7FE01000000010
7FE01000000010
7FE01555555010
7FE00000000010
7FE00000000010
7FF55555555540
7FFFFFFFFFFE00
7FFFFFFFFFF800
7FFFFFFFFFD000
3FFFFFFFFF4000
ENDCHAR
STARTCHAR ecaron
ENCODING 283
SWIDTH 754 0
DWIDTH 27 0
BBX 26 41 1 -4
BITMAP
00000000001400
00010040054100
00070015500100
002F0000000100
00BF0000000100
02FF0150150100
03FF0015400100
03FF8000000400
03FFF400006000
03FFFF800B8000
03FFFFFABE0000
02F55555555540
00A00000000010
02E00000000010
1FE01555555010
3FE01000000010
7FE01000000050
7FE0101AAAAA80
7FE0101FFFFD00
7FE0101FFFF400
7FE01000001400
7FE01000000400
7FE01000000400
7FE01555540400
7FE01000000400
7FE01000000400
7FE01005555000
7FE0101FFF8000
7FE0101FFE0000
7FE0101AA95540
7FE01000000050
7FE01000000010
7FE01000000010
7FE01555555010
7FE00000000010
7FE00000000010
7FF55555555540
7FFFFFFFFFFE00
7FFFFFFFFFF800
7FFFFFFFFFD000
3FFFFFFFFF4000
ENDCHAR
STARTCHAR Gcircumflex
ENCODING 284
SWIDTH 808 0
DWIDTH 29 0
BBX 27 40 1 -4
BITMAP
00000001540000
00000054015000
00000500000500
00005001540040
0001D054014040
000BD000000040
002FD000000040
00BFD016F90040
00BFE6FFFFE940
00BFFFFFFFFF00
00BFE400000040
00BE0000000040
00B80000000040
00700155554040
01E00900000040
07D01000000040
1FD01001555540
3FD0101FFFFD00
7FD0102FFFF400
BFD0102FFF8000
BFD0102FFE0000
BFD01010055554
BFD01010180004
BFD01010780004
BFD01011F80004
BFD0101BF80404
BFD0102FF80404
BFD0102FF80404
BFD0101FF80404
BFD01000000404
BFD01000000404
BFE00500000404
BFF40055555404
BFFC0000000004
7FFF4000000004
3FFFF955555554
1FFFFFFFFFFFE0
0BFFFFFFFFFF40
01FFFFFFFFFD00
001BFFFFFFE400
ENDCHAR
STARTCHAR gcircumflex
ENCODING 285
SWIDTH 808 0
DWIDTH 29 0
BBX 27 40 1 -4
BITMAP
00000001540000
00000054015000
00000500000500
00005001540040
0001D054014040
000BD000000040
002FD000000040
00BFD016F90040
00BFE6FFFFE940
00BFFFFFFFFF00
00BFE400000040
00BE0000000040
00B80000000040
00700155554040
01E00900000040
07D01000000040
1FD01001555540
3FD0101FFFFD00
7FD0102FFFF400
BFD0102FFF8000
BFD0102FFE0000
BFD01010055554
BFD01010180004
BFD01010780004
BFD01011F80004
BFD0101BF80404
BFD0102FF80404
BFD0102FF80404
BFD0101FF80404
BFD01000000404
BFD01000000404
BFE00500000404
BFF40055555404
BFFC0000000004
7FFF4000000004
3FFFF955555554
1FFFFFFFFFFFE0
0BFFFFFFFFFF40
01FFFFFFFFFD00
001BFFFFFFE400
ENDCHAR
STARTCHAR Gbreve
ENCODING 286
SWIDTH 808 0
DWIDTH 29 0
BBX 27 40 1 -4
BITMAP
00001554055500
00018004180040
00078004780040
001F8100501040
007FC080005040
00FFC015550040
01FFD000000040
01FFF000000100
00FFFD00001400
00FFFFEAAAD000
00BFFA55555540
002F4000000040
00080000000040
00740155554040
01E00900000040
07D01000000040
1FD01001555540
3FD0101FFFFE00
7FD0102FFFF400
BFD0102FFFD000
BFD0102FFE0000
BFD01010055554
BFD01010180004
BFD01010780004
BFD01011F80004
BFD0101BF80404
BFD0102FF80404
BFD0102FF80404
BFD0101FF80404
BFD01000000404
BFD01000000404
BFE00500000404
BFF40055555404
BFFC0000000004
7FFF4000000004
3FFFF955555554
1FFFFFFFFFFFE0
0BFFFFFFFFFF40
01FFFFFFFFFD00
001BFFFFFFE400
ENDCHAR
STARTCHAR gbreve
ENCODING 287
SWIDTH 808 0
DWIDTH 29 0
BBX 27 40 1 -4
BITMAP
00001554055500
00018004180040
00078004780040
001F8100501040
007FC080005040
00FFC015550040
01FFD000000040
01FFF000000100
00FFFD00001400
00FFFFEAAAD000
00BFFA55555540
002F4000000040
00080000000040
00740155554040
01E00900000040
07D01000000040
1FD01001555540
3FD0101FFFFE00
7FD0102FFFF400
BFD0102FFFD000
BFD0102FFE0000
BFD01010055554
BFD01010180004
BFD01010780004
BFD01011F80004
BFD0101BF80404
BFD0102FF80404
BFD0102FF80404
BFD0101FF80404
BFD01000000404
BFD01000000404
BFE00500000404
BFF40055555404
BFFC0000000004
7FFF4000000004
3FFFF955555554
1FFFFFFFFFFFE0
0BFFFFFFFFFF40
01FFFFFFFFFD00
001BFFFFFFE400
ENDCHAR
STARTCHAR Gdotaccent
ENCODING 288
SWIDTH 808 0
DWIDTH 29 0
BBX 27 40 1 -4
BITMAP
00000055554000
00000180004000
00000780004000
00001F80004000
00007F80404000
0001FF80404000
0001FF80004000
0002FF80004000
0002FF80004000
0002FFFFFE0000
0002FA55555540
00024000000040
00080000000040
00240155554040
01E00900000040
07D01000000040
1FD01001555540
3FD0101FFFFE00
7FD0102FFFF400
BFD0102FFFD000
BFD0102FFE0000
BFD01010055554
BFD01010180004
BFD01010780004
BFD01011F80004
BFD0101BF80404
BFD0102FF80404
BFD0102FF80404
BFD0101FF80404
BFD01000000404
BFD01000000404
BFE00500000404
BFF40055555404
BFFC0000000004
7FFF4000000004
3FFFF955555554
1FFFFFFFFFFFE0
0BFFFFFFFFFF40
01FFFFFFFFFD00
001BFFFFFFE400
ENDCHAR
STARTCHAR gdotaccent
ENCODING 289
SWIDTH 808 0
DWIDTH 29 0
BBX 27 40 1 -4
BITMAP
00000055554000
00000180004000
00000780004000
00001F80004000
00007F80404000
0001FF80404000
0001FF80004000
0002FF80004000
0002FF80004000
0002FFFFFE0000
0002FA55555540
00024000000040
00080000000040
00240155554040
01E00900000040
07D01000000040
1FD01001555540
3FD0101FFFFE00
7FD0102FFFF400
BFD0102FFFD000
BFD0102FFE0000
BFD01010055554
BFD01010180004
BFD01010780004
BFD01011F80004
BFD0101BF80404
BFD0102FF80404
BFD0102FF80404
BFD0101FF80404
BFD01000000404
BFD01000000404
BFE00500000404
BFF40055555404
BFFC0000000004
7FFF4000000004
3FFFF955555554
1FFFFFFFFFFFE0
0BFFFFFFFFFF40
01FFFFFFFFFD00
001BFFFFFFE400
ENDCHAR
STARTCHAR Gcommaaccent
ENCODING 290
SWIDTH 808 0
DWIDTH 29 0
BBX 27 43 1 -17
BITMAP
00001555555540
00014000000040
00080000000040
00240155554040
01E00900000040
07D01000000040
1FD01001555540
3FD0101FFFFE00
7FD0102FFFF400
BFD0102FFFD000
BFD0102FFE0000
BFD01010055554
BFD01010180004
BFD01010780004
BFD01011F80004
BFD0101BF80404
BFD0102FF80404
BFD0102FF80404
BFD0101FF80404
BFD01000000404
BFD01000000404
BFE00500000404
BFF00055555404
BFF80000000004
7FFE0000000004
3FFFE500000004
1FFFFFFFFFFFE0
0BFFFFEAAAFF40
01FFFF40007D00
001BFF40007400
00007F45544000
0001FF40044000
0002FF40044000
0002FF80044000
0002FFFF844000
0002FFD5144000
0002FFC5504000
0001FFC0020000
00007FEAA90000
0000FFFFE00000
0001FFFF800000
0001FFFD000000
0000BFE4000000
ENDCHAR
STARTCHAR gcommaaccent
ENCODING 291
SWIDTH 808 0
DWIDTH 29 0
BBX 27 43 1 -17
BITMAP
00001555555540
00014000000040
00080000000040
00240155554040
01E00900000040
07D01000000040
1FD01001555540
3FD0101FFFFE00
7FD0102FFFF400
BFD0102FFFD000
BFD0102FFE0000
BFD01010055554
BFD01010180004
BFD01010780004
BFD01011F80004
BFD0101BF80404
BFD0102FF80404
BFD0102FF80404
BFD0101FF80404
BFD01000000404
BFD01000000404
BFE00500000404
BFF00055555404
BFF80000000004
7FFE0000000004
3FFFE500000004
1FFFFFFFFFFFE0
0BFFFFEAAAFF40
01FFFF40007D00
001BFF40007400
00007F45544000
0001FF40044000
0002FF40044000
0002FF80044000
0002FFFF844000
0002FFD5144000
0002FFC5504000
0001FFC0020000
00007FEAA90000
0000FFFFE00000
0001FFFF800000
0001FFFD000000
0000BFE4000000
ENDCHAR
STARTCHAR Hcircumflex
ENCODING 292
SWIDTH 859 0
DWIDTH 31 0
BBX 29 40 1 -4
BITMAP
0000000154000000
0000005401400000
0000050000150000
0000500154004000
0001D05401404000
000BD00000004000
002FD00000004000
00BFD006E9004000
00BFD6FFFFE54000
00BFFFFFFFFF0000
00B5556FFF555500
00E0001FFF000040
07E00010BE000040
1FE01011FE010040
7FE01017FE010040
7FE01017FE010040
7FE01017FE010040
7FE01017FE010040
7FE01006AA010040
7FE0100000010040
7FE0100000010040
7FE0100000010040
7FE0155555560040
7FE0100000010040
7FE0100000010040
7FE0100000010040
7FE0100555010040
7FE0101FFE010040
7FE0101FFE010040
7FE0101FFE010040
7FE0101FFE010040
7FE01017FE010040
7FE01017FE010040
7FE00017FE000040
7FE00017FE000040
7FF55567FF555500
7FFFFF87FFFFFC00
7FFFFE07FFFFE000
7FFFF407FFFF8000
3FFFD002FFFD0000
ENDCHAR
STARTCHAR hcircumflex
ENCODING 293
SWIDTH 859 0
DWIDTH 31 0
BBX 29 40 1 -4
BITMAP
0000000154000000
0000005401400000
0000050000150000
0000500154004000
0001D05401404000
000BD00000004000
002FD00000004000
00BFD006E9004000
00BFD6FFFFE54000
00BFFFFFFFFF0000
00B5556FFF555500
00E0001FFF000040
07E00010BE000040
1FE01011FE010040
7FE01017FE010040
7FE01017FE010040
7FE01017FE010040
7FE01017FE010040
7FE01006AA010040
7FE0100000010040
7FE0100000010040
7FE0100000010040
7FE0155555560040
7FE0100000010040
7FE0100000010040
7FE0100000010040
7FE0100555010040
7FE0101FFE010040
7FE0101FFE010040
7FE0101FFE010040
7FE0101FFE010040
7FE01017FE010040
7FE01017FE010040
7FE00017FE000040
7FE00017FE000040
7FF55567FF555500
7FFFFF87FFFFFC00
7FFFFE07FFFFE000
7FFFF407FFFF8000
3FFFD002FFFD0000
ENDCHAR
STARTCHAR Hbar
ENCODING 294
SWIDTH 879 0
DWIDTH 32 0
BBX 32 30 0 -4
BITMAP
0005555400155550
001C000101D00010
00BC000107D00010
02FC01012FD01010
0BF801016A901014
0FD0010000001001
0FD0010000001001
1FD0555555556501
7FD0010000001001
BFD0010000001001
BFF80102AA901028
BFFC0103FFD01010
BFFC0103FFD01010
BFFC010000001010
1FFC010000001010
0FFC010000001010
0FFC025555555010
0FFC010000001010
0FFC010000001010
0FFC010000001010
0FFC010155401010
0FFC0103FFD01010
0FFC0003FFD01010
0FFC0003FFD00010
0FFC0003FFD00010
0FFE5555BFE55550
0FFFFFF4BFFFFF40
0FFFFFC0BFFFFD00
0FFFFE00BFFFE000
0BFFF4007FFF8000
ENDCHAR
STARTCHAR hbar
ENCODING 295
SWIDTH 879 0
DWIDTH 32 0
BBX 32 30 0 -4
BITMAP
0005555400155550
001C000101D00010
00BC000107D00010
02FC01012FD01010
0BF801016A901014
0FD0010000001001
0FD0010000001001
1FD0555555556501
7FD0010000001001
BFD0010000001001
BFF80102AA901028
BFFC0103FFD01010
BFFC0103FFD01010
BFFC010000001010
1FFC010000001010
0FFC010000001010
0FFC025555555010
0FFC010000001010
0FFC010000001010
0FFC010000001010
0FFC010155401010
0FFC0103FFD01010
0FFC0003FFD01010
0FFC0003FFD00010
0FFC0003FFD00010
0FFE5555BFE55550
0FFFFFF4BFFFFF40
0FFFFFC0BFFFFD00
0FFFFE00BFFFE000
0BFFF4007FFF8000
ENDCHAR
STARTCHAR Itilde
ENCODING 296
SWIDTH 705 0
DWIDTH 25 0
BBX 24 39 1 -4
BITMAP
000055540190
000500055510
002800000010
00B400000010
02F405554010
0FF400005010
1FF400000010
2FF815400040
2FFEFFFEAA00
2FE555555554
2FC000000001
1FC000000001
2FC055555501
BFC000040001
FFC000040001
FFEA900406A8
FFFFF0040BE0
FFFFF0040B80
FFFFF0040900
6ABFF0040400
003FF0040400
003FF0040400
003FF0040400
003FF0040400
003FF0040400
003FF0040400
003FF0040400
003AA0040554
008000040001
02C000040001
1FC000040001
7FC055555501
FFC000000001
FFC000000001
FFE555555554
FFFFFFFFFFE0
FFFFFFFFFF80
FFFFFFFFFE00
BFFFFFFFF400
ENDCHAR
STARTCHAR itilde
ENCODING 297
SWIDTH 705 0
DWIDTH 25 0
BBX 24 39 1 -4
BITMAP
000055540190
000500055510
002800000010
00B400000010
02F405554010
0FF400005010
1FF400000010
2FF815400040
2FFEFFFEAA00
2FE555555554
2FC000000001
1FC000000001
2FC055555501
BFC000040001
FFC000040001
FFEA900406A8
FFFFF0040BE0
FFFFF0040B80
FFFFF0040900
6ABFF0040400
003FF0040400
003FF0040400
003FF0040400
003FF0040400
003FF0040400
003FF0040400
003FF0040400
003AA0040554
008000040001
02C000040001
1FC000040001
7FC055555501
FFC000000001
FFC000000001
FFE555555554
FFFFFFFFFFE0
FFFFFFFFFF80
FFFFFFFFFE00
BFFFFFFFF400
ENDCHAR
STARTCHAR Imacron
ENCODING 298
SWIDTH 705 0
DWIDTH 25 0
BBX 24 38 1 -4
BITMAP
000555555550
001800000010
00B400000010
02F405555010
0FF400000010
1FF900000060
2FFFFFFFFFE0
2FE555555524
2FC000000000
1FC000000001
1FC000000001
7FC055555501
FFC000040001
FFC000040001
FFEA900406A8
FFFFF0040BE0
FFFFF0040B80
FFFFF0040900
6ABFF0040400
003FF0040400
003FF0040400
003FF0040400
003FF0040400
003FF0040400
003FF0040400
003FF0040400
003AA0040554
008000040001
02C000040001
1FC000040001
7FC055555501
FFC000000001
FFC000000001
FFE555555554
FFFFFFFFFFE0
FFFFFFFFFF80
FFFFFFFFFE00
BFFFFFFFF400
ENDCHAR
STARTCHAR imacron
ENCODING 299
SWIDTH 705 0
DWIDTH 25 0
BBX 24 38 1 -4
BITMAP
000555555550
001800000010
00B400000010
02F405555010
0FF400000010
1FF900000060
2FFFFFFFFFE0
2FE555555524
2FC000000000
1FC000000001
1FC000000001
7FC055555501
FFC000040001
FFC000040001
FFEA900406A8
FFFFF0040BE0
FFFFF0040B80
FFFFF0040900
6ABFF0040400
003FF0040400
003FF0040400
003FF0040400
003FF0040400
003FF0040400
003FF0040400
003FF0040400
003AA0040554
008000040001
02C000040001
1FC000040001
7FC055555501
FFC000000001
FFC000000001
FFE555555554
FFFFFFFFFFE0
FFFFFFFFFF80
FFFFFFFFFE00
BFFFFFFFF400
ENDCHAR
STARTCHAR Ibreve
ENCODING 300
SWIDTH 705 0
DWIDTH 25 0
BBX 24 40 1 -4
BITMAP
000555005550
002400424010
00B4005F0014
02F410140414
1FF414001410
2FF405555010
2FF800000010
2FFD00000000
2FFF80000100
2FFFFEAAB800
1FE555555554
07C000000001
0BC000000001
2FC055555501
BFC000040001
FFC000040001
FFEA900406A8
FFFFF0040BE0
FFFFF0040B80
FFFFF0040900
6ABFF0040400
003FF0040400
003FF0040400
003FF0040400
003FF0040400
003FF0040400
003FF0040400
003FF0040400
003AA0040554
008000040001
02C000040001
1FC000040001
7FC055555501
FFC000000001
FFC000000001
FFE555555554
FFFFFFFFFFE0
FFFFFFFFFF80
FFFFFFFFFE00
BFFFFFFFF400
ENDCHAR
STARTCHAR ibreve
ENCODING 301
SWIDTH 705 0
DWIDTH 25 0
BBX 24 40 1 -4
BITMAP
000555005550
002400424010
00B4005F0014
02F410140414
1FF414001410
2FF405555010
2FF800000010
2FFD00000000
2FFF80000100
2FFFFEAAB800
1FE555555554
07C000000001
0BC000000001
2FC055555501
BFC000040001
FFC000040001
FFEA900406A8
FFFFF0040BE0
FFFFF0040B80
FFFFF0040900
6ABFF0040400
003FF0040400
003FF0040400
003FF0040400
003FF0040400
003FF0040400
003FF0040400
003FF0040400
003AA0040554
008000040001
02C000040001
1FC000040001
7FC055555501
FFC000000001
FFC000000001
FFE555555554
FFFFFFFFFFE0
FFFFFFFFFF80
FFFFFFFFFE00
BFFFFFFFF400
ENDCHAR
STARTCHAR Iogonek
ENCODING 302
SWIDTH 705 0
DWIDTH 25 0
BBX 24 37 1 -11
BITMAP
005555555554
01C000000001
0BC000000001
2FC055555501
BFC000040001
FFC000040001
FFEA900406A8
FFFFF0040BE0
FFFFF0040B80
FFFFF0040900
6ABFF0040400
003FF0040400
003FF0040400
003FF0040400
003FF0040400
003FF0040400
003FF0040400
003FF0040400
003AA0040554
008000040001
02C000040001
1FC000040001
7FC055555901
FFC000001001
FFC000001001
FFE555501018
FFFFFFF410B4
FFFFFFF410A4
FFFFFFF01001
BFFFFFF01501
00002FF40001
00003FF80001
00003FFE5554
00003FFFFFF4
00002FFFFF80
00001FFFFE00
000006FFF400
ENDCHAR
STARTCHAR iogonek
ENCODING 303
SWIDTH 705 0
DWIDTH 25 0
BBX 24 37 1 -11
BITMAP
005555555554
01C000000001
0BC000000001
2FC055555501
BFC000040001
FFC000040001
FFEA900406A8
FFFFF0040BE0
FFFFF0040B80
FFFFF0040900
6ABFF0040400
003FF0040400
003FF0040400
003FF0040400
003FF0040400
003FF0040400
003FF0040400
003FF0040400
003AA0040554
008000040001
02C000040001
1FC000040001
7FC055555901
FFC000001001
FFC000001001
FFE555501018
FFFFFFF410B4
FFFFFFF410A4
FFFFFFF01001
BFFFFFF01501
00002FF40001
00003FF80001
00003FFE5554
00003FFFFFF4
00002FFFFF80
00001FFFFE00
000006FFF400
ENDCHAR
STARTCHAR Idotaccent
ENCODING 304
SWIDTH 705 0
DWIDTH 25 0
BBX 24 40 1 -4
BITMAP
000005555000
000020000400
0000B0000400
0003F0000400
000FF0040400
003FF0040400
003FF0000400
003FF0000400
003FF4001400
003FFFFFD000
006555555554
01C000000001
0BC000000001
2FC055555501
BFC000040001
FFC000040001
FFEA900406A8
FFFFF0040BE0
FFFFF0040B80
FFFFF0040900
6ABFF0040400
003FF0040400
003FF0040400
003FF0040400
003FF0040400
003FF0040400
003FF0040400
003FF0040400
003AA0040554
008000040001
02C000040001
1FC000040001
7FC055555501
FFC000000001
FFC000000001
FFE555555554
FFFFFFFFFFE0
FFFFFFFFFF80
FFFFFFFFFE00
BFFFFFFFF400
ENDCHAR
STARTCHAR dotlessi
ENCODING 305
SWIDTH 705 0
DWIDTH 25 0
BBX 24 30 1 -4
BITMAP
005555555554
01C000000001
0BC000000001
2FC055555501
BFC000040001
FFC000040001
FFEA900406A8
FFFFF0040BE0
FFFFF0040B80
FFFFF0040900
6ABFF0040400
003FF0040400
003FF0040400
003FF0040400
003FF0040400
003FF0040400
003FF0040400
003FF0040400
003AA0040554
008000040001
02C000040001
1FC000040001
7FC055555501
FFC000000001
FFC000000001
FFE555555554
FFFFFFFFFFE0
FFFFFFFFFF80
FFFFFFFFFE00
BFFFFFFFF400
ENDCHAR
STARTCHAR IJ
ENCODING 306
SWIDTH 844 0
DWIDTH 30 0
BBX 28 30 1 -4
BITMAP
00155550015555
00A000101D0001
02E000107D0001
1FE01016FD0101
3FE0101FFD0101
7FE0101FFD0101
7FE0101FFD0101
7FE0101FFD0101
7FE0101FFD0101
7FE0101FFD0101
7FE0101FFD0101
7FE0001FFD0101
7FE0001FFD0101
7FE0001FFD0101
7FF9556FFD0101
7FFFFF9FFD0101
7FFFFD1FFD0101
7FFFF41FFD0101
2ABA955AA40101
00600000000101
01E00000000401
0BE00000001401
2FE01555554004
7FE00000000014
7FE00000000050
7FF55555555A40
7FFFFFFFFFF800
7FFFFFFFFFE000
7FFFFFFFFF4000
3FFFFFFFE40000
ENDCHAR
STARTCHAR ij
ENCODING 307
SWIDTH 844 0
DWIDTH 30 0
BBX 28 30 1 -4
BITMAP
00155550015555
00A000101D0001
02E000107D0001
1FE01016FD0101
3FE0101FFD0101
7FE0101FFD0101
7FE0101FFD0101
7FE0101FFD0101
7FE0101FFD0101
7FE0101FFD0101
7FE0101FFD0101
7FE0001FFD0101
7FE0001FFD0101
7FE0001FFD0101
7FF9556FFD0101
7FFFFF9FFD0101
7FFFFD1FFD0101
7FFFF41FFD0101
2ABA955AA40101
00600000000101
01E00000000401
0BE00000001401
2FE01555554004
7FE00000000014
7FE00000000050
7FF55555555A40
7FFFFFFFFFF800
7FFFFFFFFFE000
7FFFFFFFFF4000
3FFFFFFFE40000
ENDCHAR
STARTCHAR Jcircumflex
ENCODING 308
SWIDTH 788 0
DWIDTH 28 0
BBX 30 41 0 -5
BITMAP
0000000000550000
0000000015005400
0000000140000140
0000000800550010
0000007805005410
000001F800000010
000007F800000010
00001FF801BE5010
00001FFDAFFFFE50
00001FFFFFFFFFC0
00001FFFF8000A00
00001FFEF4000400
00001F92F4000400
0000000BF4040400
0000002FF4040400
0000002FF4040400
0000002FF4040400
0000002FF4040400
0000002FF4040400
0000002FF4040400
0000002FF4040400
0015556FF4040400
0060002FF4040400
01E0002FF4040400
0BE0002FF4040400
2FE0102FF4040400
7FE0102FF4040400
7FE0102FF4040400
7FE0100BE0040400
7FE0100000040400
7FE0040000100400
7FF0050000400400
7FF4005555001400
7FFC000000001000
3FFF400000014000
2FFFF50000590000
1FFFFFFEBFF40000
07FFFFFFFFD00000
01FFFFFFFE000000
002FFFFFE4000000
0000555500000000
ENDCHAR
STARTCHAR jcircumflex
ENCODING 309
SWIDTH 788 0
DWIDTH 28 0
BBX 30 41 0 -5
BITMAP
0000000000550000
0000000015005400
0000000140000140
0000000800550010
0000007805005410
000001F800000010
000007F800000010
00001FF801BE5010
00001FFDAFFFFE50
00001FFFFFFFFFC0
00001FFFF8000A00
00001FFEF4000400
00001F92F4000400
0000000BF4040400
0000002FF4040400
0000002FF4040400
0000002FF4040400
0000002FF4040400
0000002FF4040400
0000002FF4040400
0000002FF4040400
0015556FF4040400
0060002FF4040400
01E0002FF4040400
0BE0002FF4040400
2FE0102FF4040400
7FE0102FF4040400
7FE0102FF4040400
7FE0100BE0040400
7FE0100000040400
7FE0040000100400
7FF0050000400400
7FF4005555001400
7FFC000000001000
3FFF400000014000
2FFFF50000590000
1FFFFFFEBFF40000
07FFFFFFFFD00000
01FFFFFFFE000000
002FFFFFE4000000
0000555500000000
ENDCHAR
STARTCHAR Kcommaaccent
ENCODING 310
SWIDTH 846 0
DWIDTH 30 0
BBX 29 43 1 -17
BITMAP
0015555001555500
00A0001018000100
02E00010B4000400
1FE01016F0100400
3FE0101FD0101000
7FE0101FC0401000
7FE0101F80404000
7FE0101F00404000
7FE0101E01014000
7FE0100001005000
7FE0100004000400
7FE0100004000100
7FE0155555500100
7FE0100000050100
7FE0100000010040
7FE0100000010040
7FE0101FFD010040
7FE0101FFE010040
7FE0101FFE010040
7FE0101FFE010040
7FE0101FFE010040
7FE01017FE010040
7FE01017FE010040
7FE00017FE000040
7FE00017FE000100
7FF55557FF555500
7FFFFF87FFFFF800
7FFFFE56AAFFE000
7FFFF640007F4000
3FFFDB40007D0000
00007F4554400000
0001FF4004400000
0002FF4004400000
0002FF8004400000
0002FFFF84400000
0002FFD514400000
0002FF8550400000
0001FF8002000000
00007FEAA8000000
0000FFFFE0000000
0001FFFF80000000
0001FFFD00000000
0000BFE400000000
ENDCHAR
STARTCHAR kcommaaccent
ENCODING 311
SWIDTH 846 0
DWIDTH 30 0
BBX 29 43 1 -17
BITMAP
0015555001555500
00A0001018000100
02E00010B4000400
1FE01016F0100400
3FE0101FD0101000
7FE0101FC0401000
7FE0101F80404000
7FE0101F00404000
7FE0101E01014000
7FE0100001005000
7FE0100004000400
7FE0100004000100
7FE0155555500100
7FE0100000050100
7FE0100000010040
7FE0100000010040
7FE0101FFD010040
7FE0101FFE010040
7FE0101FFE010040
7FE0101FFE010040
7FE0101FFE010040
7FE01017FE010040
7FE01017FE010040
7FE00017FE000040
7FE00017FE000100
7FF55557FF555500
7FFFFF87FFFFF800
7FFFFE56AAFFE000
7FFFF640007F4000
3FFFDB40007D0000
00007F4554400000
0001FF4004400000
0002FF4004400000
0002FF8004400000
0002FFFF84400000
0002FFD514400000
0002FF8550400000
0001FF8002000000
00007FEAA8000000
0000FFFFE0000000
0001FFFF80000000
0001FFFD00000000
0000BFE400000000
ENDCHAR
STARTCHAR kgreenlandic
ENCODING 312
SWIDTH 846 0
DWIDTH 30 0
BBX 29 30 1 -4
BITMAP
0015555001555500
00A0001018000100
02E00010B4000400
1FE01016F0100400
3FE0101FD0101000
7FE0101FC0401000
7FE0101F80404000
7FE0101F00404000
7FE0101E01014000
7FE0100001005000
7FE0100004000400
7FE0100004000100
7FE0155555500100
7FE0100000050100
7FE0100000010040
7FE0100000010040
7FE0101FFD010040
7FE0101FFE010040
7FE0101FFE010040
7FE0101FFE010040
7FE0101FFE010040
7FE01017FE010040
7FE01017FE010040
7FE00017FE000040
7FE00017FE000100
7FF55557FF555500
7FFFFF87FFFFF800
7FFFFE07FFFFE000
7FFFF407FFFF4000
3FFFD002FFFD0000
ENDCHAR
STARTCHAR Lacute
ENCODING 313
SWIDTH 795 0
DWIDTH 29 0
BBX 27 40 1 -4
BITMAP
00000000050000
0000056AA98000
001AA940004000
00600000004000
01E01555404000
0BE01000004000
2FE00000004000
7FE00001590000
7FF15ABFF80000
7FFAAAAFE00000
7FE0001F400000
7FE00014000000
3FE00010000000
2FE01010000000
7FE01010000000
7FE01010000000
7FE01010000000
7FE01010000000
7FE01010000000
7FE01010000000
7FE01010000000
7FE01010015554
7FE01010180004
7FE01010780004
7FE01011F80004
7FE0101BF80404
7FE0101FF80404
7FE0101FF80404
7FE0101FF80404
7FE01000000404
7FE01000000404
7FE01000000404
7FE01555555404
7FE00000000004
7FE00000000004
7FF55555555554
7FFFFFFFFFFFD0
7FFFFFFFFFFF40
7FFFFFFFFFFD00
3FFFFFFFFFE000
ENDCHAR
STARTCHAR lacute
ENCODING 314
SWIDTH 795 0
DWIDTH 29 0
BBX 27 40 1 -4
BITMAP
00000000050000
0000056AA98000
001AA940004000
00600000004000
01E01555404000
0BE01000004000
2FE00000004000
7FE00001590000
7FF15ABFF80000
7FFAAAAFE00000
7FE0001F400000
7FE00014000000
3FE00010000000
2FE01010000000
7FE01010000000
7FE01010000000
7FE01010000000
7FE01010000000
7FE01010000000
7FE01010000000
7FE01010000000
7FE01010015554
7FE01010180004
7FE01010780004
7FE01011F80004
7FE0101BF80404
7FE0101FF80404
7FE0101FF80404
7FE0101FF80404
7FE01000000404
7FE01000000404
7FE01000000404
7FE01555555404
7FE00000000004
7FE00000000004
7FF55555555554
7FFFFFFFFFFFD0
7FFFFFFFFFFF40
7FFFFFFFFFFD00
3FFFFFFFFFE000
ENDCHAR
STARTCHAR Lcommaaccent
ENCODING 315
SWIDTH 795 0
DWIDTH 29 0
BBX 27 43 1 -17
BITMAP
00155550000000
00A00010000000
02E00010000000
1FE01010000000
3FE01010000000
7FE01010000000
7FE01010000000
7FE01010000000
7FE01010000000
7FE01010000000
7FE01010000000
7FE01010015554
7FE01010180004
7FE01010780004
7FE01011F80004
7FE0101BF80404
7FE0101FF80404
7FE0101FF80404
7FE0101FF80404
7FE01000000404
7FE01000000404
7FE01000000404
7FE01555555404
7FE00000000004
7FE00000000004
7FFAAAAAAAAAA4
7FFFFFFFFFFFD0
7FFFFF4000BF40
7FFFFF0000BD00
3FFFFF0000A000
0000BF05544000
0002FF00044000
0003FF00044000
0003FF40044000
0003FFFF444000
0003FF95104000
0003FF45414000
0002FF40060000
0000BFEAA80000
0001FFFFD00000
0002FFFF400000
0002FFFD000000
0001FFE0000000
ENDCHAR
STARTCHAR lcommaaccent
ENCODING 316
SWIDTH 795 0
DWIDTH 29 0
BBX 27 43 1 -17
BITMAP
00155550000000
00A00010000000
02E00010000000
1FE01010000000
3FE01010000000
7FE01010000000
7FE01010000000
7FE01010000000
7FE01010000000
7FE01010000000
7FE01010000000
7FE01010015554
7FE01010180004
7FE01010780004
7FE01011F80004
7FE0101BF80404
7FE0101FF80404
7FE0101FF80404
7FE0101FF80404
7FE01000000404
7FE01000000404
7FE01000000404
7FE01555555404
7FE00000000004
7FE00000000004
7FFAAAAAAAAAA4
7FFFFFFFFFFFD0
7FFFFF4000BF40
7FFFFF0000BD00
3FFFFF0000A000
0000BF05544000
0002FF00044000
0003FF00044000
0003FF40044000
0003FFFF444000
0003FF95104000
0003FF45414000
0002FF40060000
0000BFEAA80000
0001FFFFD00000
0002FFFF400000
0002FFFD000000
0001FFE0000000
ENDCHAR
STARTCHAR Lcaron
ENCODING 317
SWIDTH 795 0
DWIDTH 29 0
BBX 27 30 1 -4
BITMAP
00155550055554
00A00010280004
02E00010B80004
1FE01017F40010
3FE0101FF41010
7FE0101FF01010
7FE0101FF01010
7FE0101FE00040
7FE0101FE00040
7FE0101FFAAA40
7FE0101FFFFD00
7FE0101FFEA554
7FE0101FF80004
7FE0101AF80004
7FE01011F80004
7FE0101BF80404
7FE0101FF80404
7FE0101FF80404
7FE0101FF80404
7FE01000000404
7FE01000000404
7FE01000000404
7FE01555555404
7FE00000000004
7FE00000000004
7FF55555555554
7FFFFFFFFFFFD0
7FFFFFFFFFFF40
7FFFFFFFFFFD00
3FFFFFFFFFE000
ENDCHAR
STARTCHAR lcaron
ENCODING 318
SWIDTH 795 0
DWIDTH 29 0
BBX 27 30 1 -4
BITMAP
00155550055554
00A00010280004
02E00010B80004
1FE01017F40010
3FE0101FF41010
7FE0101FF01010
7FE0101FF01010
7FE0101FE00040
7FE0101FE00040
7FE0101FFAAA40
7FE0101FFFFD00
7FE0101FFEA554
7FE0101FF80004
7FE0101AF80004
7FE01011F80004
7FE0101BF80404
7FE0101FF80404
7FE0101FF80404
7FE0101FF80404
7FE01000000404
7FE01000000404
7FE01000000404
7FE01555555404
7FE00000000004
7FE00000000004
7FF55555555554
7FFFFFFFFFFFD0
7FFFFFFFFFFF40
7FFFFFFFFFFD00
3FFFFFFFFFE000
ENDCHAR
STARTCHAR Ldot
ENCODING 319
SWIDTH 795 0
DWIDTH 29 0
BBX 27 30 1 -4
BITMAP
00155550000000
00A00010000000
02E00010000000
1FE01010000000
3FE01010055550
7FE01010140004
7FE01010740004
7FE01011F40004
7FE0101BF40404
7FE0101FF40404
7FE0101FF40004
7FE0101FF40004
7FE0101FFEAA90
7FE0101FFFFF80
7FE0101FFEAA54
7FE0101FF80004
7FE0101AF80004
7FE01011F80004
7FE0101BF80404
7FE01000000404
7FE01000000404
7FE01000000404
7FE01555555404
7FE00000000004
7FE00000000004
7FF55555555554
7FFFFFFFFFFFD0
7FFFFFFFFFFF40
7FFFFFFFFFFD00
3FFFFFFFFFE000
ENDCHAR
STARTCHAR ldot
ENCODING 320
SWIDTH 795 0
DWIDTH 29 0
BBX 27 30 1 -4
BITMAP
00155550000000
00A00010000000
02E00010000000
1FE01010000000
3FE01010055550
7FE01010140004
7FE01010740004
7FE01011F40004
7FE0101BF40404
7FE0101FF40404
7FE0101FF40004
7FE0101FF40004
7FE0101FFEAA90
7FE0101FFFFF80
7FE0101FFEAA54
7FE0101FF80004
7FE0101AF80004
7FE01011F80004
7FE0101BF80404
7FE01000000404
7FE01000000404
7FE01000000404
7FE01555555404
7FE00000000004
7FE00000000004
7FF55555555554
7FFFFFFFFFFFD0
7FFFFFFFFFFF40
7FFFFFFFFFFD00
3FFFFFFFFFE000
ENDCHAR
STARTCHAR Lslash
ENCODING 321
SWIDTH 805 0
DWIDTH 29 0
BBX 29 30 0 -4
BITMAP
0005555500000000
001C000100000000
00BC000100000000
02FC000100000000
0BFC010100000000
0FFC010100000000
0FFC010100000000
0FFC010154000000
0FFC010004000000
0FD0010004000000
0FC0011404000000
1FC0564004555500
7FC0010006400140
FFC001005F000040
FFC00103FF000040
FFE80103FF010040
FFFC0103FF010040
FFFC0103FF010040
FFFC0103FF010040
BFFC010000010040
0FFC010000010040
0FFC010000010040
0FFC015555550040
0FFC000000000040
0FFC000000000040
0FFE555555555500
0FFFFFFFFFFFF800
0FFFFFFFFFFFE000
0FFFFFFFFFFF4000
0BFFFFFFFFFD0000
ENDCHAR
STARTCHAR lslash
ENCODING 322
SWIDTH 805 0
DWIDTH 29 0
BBX 29 30 0 -4
BITMAP
0005555500000000
001C000100000000
00BC000100000000
02FC000100000000
0BFC010100000000
0FFC010100000000
0FFC010100000000
0FFC010154000000
0FFC010004000000
0FD0010004000000
0FC0011404000000
1FC0564004555500
7FC0010006400140
FFC001005F000040
FFC00103FF000040
FFE80103FF010040
FFFC0103FF010040
FFFC0103FF010040
FFFC0103FF010040
BFFC010000010040
0FFC010000010040
0FFC010000010040
0FFC015555550040
0FFC000000000040
0FFC000000000040
0FFE555555555500
0FFFFFFFFFFFF800
0FFFFFFFFFFFE000
0FFFFFFFFFFF4000
0BFFFFFFFFFD0000
ENDCHAR
STARTCHAR Nacute
ENCODING 323
SWIDTH 853 0
DWIDTH 31 0
BBX 28 38 1 -4
BITMAP
00000000000040
00001000000040
00009000004040
0007D015550040
001FD000000040
007FD000015A40
00BFE15ABFFD00
00BFFFFFFFF400
00B556FFFF5555
00A0003FFE0001
07E000087E0001
1FE01406FE0101
7FE01101FE0101
7FE011407E0101
7FE010501E0101
7FE01010060101
7FE01004010101
7FE01001000101
7FE01000400101
7FE01000100101
7FE01000040101
7FE01014050101
7FE0101D014101
7FE0101F005101
7FE0101F801101
7FE0101FE00501
7FE0101FF40201
7FE0101FFD0101
7FE0101FFE0101
7FE0101FFE0101
7FE0101FFE0101
7FE0001BFE0001
7FE00017FE0001
7FF55557FF5556
7FFFFF87FFFFF8
7FFFFD07FFFFE0
7FFFF407FFFF40
3FFF8002FFFD00
ENDCHAR
STARTCHAR nacute
ENCODING 324
SWIDTH 853 0
DWIDTH 31 0
BBX 28 38 1 -4
BITMAP
00000000000040
00001000000040
00009000004040
0007D015550040
001FD000000040
007FD000015A40
00BFE15ABFFD00
00BFFFFFFFF400
00B556FFFF5555
00A0003FFE0001
07E000087E0001
1FE01406FE0101
7FE01101FE0101
7FE011407E0101
7FE010501E0101
7FE01010060101
7FE01004010101
7FE01001000101
7FE01000400101
7FE01000100101
7FE01000040101
7FE01014050101
7FE0101D014101
7FE0101F005101
7FE0101F801101
7FE0101FE00501
7FE0101FF40201
7FE0101FFD0101
7FE0101FFE0101
7FE0101FFE0101
7FE0101FFE0101
7FE0001BFE0001
7FE00017FE0001
7FF55557FF5556
7FFFFF87FFFFF8
7FFFFD07FFFFE0
7FFFF407FFFF40
3FFF8002FFFD00
ENDCHAR
STARTCHAR Ncommaaccent
ENCODING 325
SWIDTH 853 0
DWIDTH 31 0
BBX 28 43 1 -17
BITMAP
00155540015555
00A000200A0001
02E000087E0001
1FE01406FE0101
3FE01101FE0101
7FE011407E0101
7FE010501E0101
7FE01010060101
7FE01004010101
7FE01001000101
7FE01000400101
7FE01000100101
7FE01000040101
7FE01014050101
7FE0101D014101
7FE0101F005101
7FE0101F801101
7FE0101FE00501
7FE0101FF40201
7FE0101FFD0101
7FE0101FFE0101
7FE0101FFE0101
7FE0101FFE0101
7FE0001BFE0001
7FE00017FE0001
7FF55557FF5556
7FFFFF87FFFFF8
7FFFFD56AAFFE0
7FFFF580007F40
3FFF9B80003D00
00007F81541000
0001FF80041000
0001FF80041000
0002FF80041000
0002FFFFC45000
0002FFD5144000
0001FFC5504000
0001FFC0014000
00007FEAA90000
0000FFFFE00000
0000FFFF800000
0000FFFE000000
0000BFE4000000
ENDCHAR
STARTCHAR ncommaaccent
ENCODING 326
SWIDTH 853 0
DWIDTH 31 0
BBX 28 43 1 -17
BITMAP
00155540015555
00A000200A0001
02E000087E0001
1FE01406FE0101
3FE01101FE0101
7FE011407E0101
7FE010501E0101
7FE01010060101
7FE01004010101
7FE01001000101
7FE01000400101
7FE01000100101
7FE01000040101
7FE01014050101
7FE0101D014101
7FE0101F005101
7FE0101F801101
7FE0101FE00501
7FE0101FF40201
7FE0101FFD0101
7FE0101FFE0101
7FE0101FFE0101
7FE0101FFE0101
7FE0001BFE0001
7FE00017FE0001
7FF55557FF5556
7FFFFF87FFFFF8
7FFFFD56AAFFE0
7FFFF580007F40
3FFF9B80003D00
00007F81541000
0001FF80041000
0001FF80041000
0002FF80041000
0002FFFFC45000
0002FFD5144000
0001FFC5504000
0001FFC0014000
00007FEAA90000
0000FFFFE00000
0000FFFF800000
0000FFFE000000
0000BFE4000000
ENDCHAR
STARTCHAR Ncaron
ENCODING 327
SWIDTH 853 0
DWIDTH 31 0
BBX 28 41 1 -4
BITMAP
00000000000500
00002940055100
00008001540040
00078000000040
001F8000000040
00BF8054054040
01FF8005500000
01FFD000000000
01FFF900001000
01FFFFD006C000
01FFFFFEAE0000
00F556FFF95555
00A0003F5A0001
03E000087E0001
1FE01406FE0101
3FE01101FE0101
7FE011407E0101
7FE010501E0101
7FE01010060101
7FE01004010101
7FE01001000101
7FE01000400101
7FE01000100101
7FE01000040101
7FE01014050101
7FE0101D014101
7FE0101F005101
7FE0101F801101
7FE0101FE00501
7FE0101FF40201
7FE0101FFD0101
7FE0101FFE0101
7FE0101FFE0101
7FE0101FFE0101
7FE0001BFE0001
7FE00017FE0001
7FF55557FF5556
7FFFFF87FFFFF8
7FFFFD07FFFFE0
7FFFF407FFFF40
3FFF8002FFFD00
ENDCHAR
STARTCHAR ncaron
ENCODING 328
SWIDTH 853 0
DWIDTH 31 0
BBX 28 41 1 -4
BITMAP
00000000000500
00002940055100
00008001540040
00078000000040
001F8000000040
00BF8054054040
01FF8005500000
01FFD000000000
01FFF900001000
01FFFFD006C000
01FFFFFEAE0000
00F556FFF95555
00A0003F5A0001
03E000087E0001
1FE01406FE0101
3FE01101FE0101
7FE011407E0101
7FE010501E0101
7FE01010060101
7FE01004010101
7FE01001000101
7FE01000400101
7FE01000100101
7FE01000040101
7FE01014050101
7FE0101D014101
7FE0101F005101
7FE0101F801101
7FE0101FE00501
7FE0101FF40201
7FE0101FFD0101
7FE0101FFE0101
7FE0101FFE0101
7FE0101FFE0101
7FE0001BFE0001
7FE00017FE0001
7FF55557FF5556
7FFFFF87FFFFF8
7FFFFD07FFFFE0
7FFFF407FFFF40
3FFF8002FFFD00
ENDCHAR
STARTCHAR napostrophe
ENCODING 329
SWIDTH 853 0
DWIDTH 31 0
BBX 28 44 1 -4
BITMAP
00155550000000
00900010000000
02C00010000000
0BC00010000000
2FC15510000000
BFC00110000000
BFD00110000000
FFD00110000000
FFFFE110000000
FFF54410000000
FFE15010000000
BFE00000000000
6FE00000000000
2FFAA900000000
7FFAAA4001AAAA
7FE000600A0001
7FE000187E0001
2FE01406FE0101
7FE01101FE0101
7FE011407E0101
7FE010501E0101
7FE01010060101
7FE01004010101
7FE01001000101
7FE01000400101
7FE01000100101
7FE01000040101
7FE01014050101
7FE0101D014101
7FE0101F005101
7FE0101F801101
7FE0101FE00501
7FE0101FF40201
7FE0101FFD0101
7FE0101FFE0101
7FE0101FFE0101
7FE0101FFE0101
7FE0001BFE0001
7FE00017FE0001
7FF55557FF5556
7FFFFF87FFFFF8
7FFFFD07FFFFE0
7FFFF407FFFF40
3FFF8002FFFD00
ENDCHAR
STARTCHAR Eng
ENCODING 330
SWIDTH 846 0
DWIDTH 30 0
BBX 28 35 1 -8
BITMAP
00000055554000
00001500001500
00014000000050
00080055554004
00240140005001
01E00400000401
07E01000000101
1FD0100AE80101
3FD0101FFD0101
7FD0101FFD0101
7FD0101FFD0101
BFD0101FFD0101
BFD0101BFD0101
BFD0101BFD0101
BFD0101BFD0101
BFD0101BFD0101
BFD0101BFD0101
BFD0101BFD0101
BFD0101BFD0101
BFD0101BFD0101
BFD0101BFD0101
BFD0101BFD0101
BFD0101BFC0101
BFD0001B400101
BFD0001B000101
BFD0002F000401
BFE5557F015005
BFFFFFFF000008
BFFFFFFF000020
BFFFF7FF401680
7FFF83FFFFFE00
000003FFFFF400
000003FFFFD000
000003FFFE0000
00000155400000
ENDCHAR
STARTCHAR eng
ENCODING 331
SWIDTH 846 0
DWIDTH 30 0
BBX 28 35 1 -8
BITMAP
00000055554000
00001500001500
00014000000050
00080055554004
00240140005001
01E00400000401
07E01000000101
1FD0100AE80101
3FD0101FFD0101
7FD0101FFD0101
7FD0101FFD0101
BFD0101FFD0101
BFD0101BFD0101
BFD0101BFD0101
BFD0101BFD0101
BFD0101BFD0101
BFD0101BFD0101
BFD0101BFD0101
BFD0101BFD0101
BFD0101BFD0101
BFD0101BFD0101
BFD0101BFD0101
BFD0101BFC0101
BFD0001B400101
BFD0001B000101
BFD0002F000401
BFE5557F015005
BFFFFFFF000008
BFFFFFFF000020
BFFFF7FF401680
7FFF83FFFFFE00
000003FFFFF400
000003FFFFD000
000003FFFE0000
00000155400000
ENDCHAR
STARTCHAR Omacron
ENCODING 332
SWIDTH 837 0
DWIDTH 30 0
BBX 28 40 1 -5
BITMAP
00001555555500
00008000000140
00078000000040
001F8000000040
007F8055554040
00FFC000000040
01FFC000000100
01FFFFFFFFFD00
01FFF940005900
00FF4000000050
00FC0000000014
00740055550004
01E00500005001
07D00400000401
1FD01000000101
3FD0100BF80101
7FD0102FFD0101
BFD0102FFD0101
BFD0102FFD0101
BFD0102FFD0101
BFD0101BFD0101
BFD0101BFD0101
BFD0101BFD0101
BFD0101BFD0101
BFD0101BFD0101
BFD0101BFD0101
BFD0101BFD0101
BFD0101BFC0101
BFD01000000101
BFD00400000401
BFE00500005001
BFF00055550004
BFF80000000004
7FFE4000000050
3FFFE500001B40
2FFFFFFEAFFD00
0BFFFFFFFFF000
02FFFFFFFF8000
002FFFFFF90000
00005555000000
ENDCHAR
STARTCHAR omacron
ENCODING 333
SWIDTH 837 0
DWIDTH 30 0
BBX 28 40 1 -5
BITMAP
00001555555500
00008000000140
00078000000040
001F8000000040
007F8055554040
00FFC000000040
01FFC000000100
01FFFFFFFFFD00
01FFF940005900
00FF4000000050
00FC0000000014
00740055550004
01E00500005001
07D00400000401
1FD01000000101
3FD0100BF80101
7FD0102FFD0101
BFD0102FFD0101
BFD0102FFD0101
BFD0102FFD0101
BFD0101BFD0101
BFD0101BFD0101
BFD0101BFD0101
BFD0101BFD0101
BFD0101BFD0101
BFD0101BFD0101
BFD0101BFD0101
BFD0101BFC0101
BFD01000000101
BFD00400000401
BFE00500005001
BFF00055550004
BFF80000000004
7FFE4000000050
3FFFE500001B40
2FFFFFFEAFFD00
0BFFFFFFFFF000
02FFFFFFFF8000
002FFFFFF90000
00005555000000
ENDCHAR
STARTCHAR Obreve
ENCODING 334
SWIDTH 837 0
DWIDTH 30 0
BBX 28 41 1 -5
BITMAP
00005554055500
00018004280040
000B8004B40040
002F8100501040
00BF8140004040
01FF8015550040
01FFC000000100
01FFE000000100
01FFF900001400
00FFFFEAAAD000
00BFFE55555500
001F9000000150
002D0055550014
00B40500005004
03E00400000401
0FD01000000101
2FD0100BF80101
7FD0102FFD0101
BFD0102FFD0101
BFD0102FFD0101
BFD0102FFD0101
BFD0101BFD0101
BFD0101BFD0101
BFD0101BFD0101
BFD0101BFD0101
BFD0101BFD0101
BFD0101BFD0101
BFD0101BFD0101
BFD0101BFC0101
BFD01000000101
BFD00400000401
BFE00500005001
BFF00055550005
BFF80000000008
7FFE4000000060
3FFFE500001A80
2FFFFFFEAFFD00
0BFFFFFFFFF400
02FFFFFFFF8000
002FFFFFF90000
00005555000000
ENDCHAR
STARTCHAR obreve
ENCODING 335
SWIDTH 837 0
DWIDTH 30 0
BBX 28 41 1 -5
BITMAP
00005554055500
00018004280040
000B8004B40040
002F8100501040
00BF8140004040
01FF8015550040
01FFC000000100
01FFE000000100
01FFF900001400
00FFFFEAAAD000
00BFFE55555500
001F9000000150
002D0055550014
00B40500005004
03E00400000401
0FD01000000101
2FD0100BF80101
7FD0102FFD0101
BFD0102FFD0101
BFD0102FFD0101
BFD0102FFD0101
BFD0101BFD0101
BFD0101BFD0101
BFD0101BFD0101
BFD0101BFD0101
BFD0101BFD0101
BFD0101BFD0101
BFD0101BFD0101
BFD0101BFC0101
BFD01000000101
BFD00400000401
BFE00500005001
BFF00055550005
BFF80000000008
7FFE4000000060
3FFFE500001A80
2FFFFFFEAFFD00
0BFFFFFFFFF400
02FFFFFFFF8000
002FFFFFF90000
00005555000000
ENDCHAR
STARTCHAR Ohungarumlaut
ENCODING 336
SWIDTH 837 0
DWIDTH 30 0
BBX 28 44 1 -5
BITMAP
00000555405550
00001800420004
0000B4005E0004
0002F000BD0010
000BE040FC0410
001FE041FC1410
002FD041F81010
003FC042F41040
007F8003F00040
00BF8007F00040
00BF800BF00140
00FFFFFFFFFD00
01FFF940005900
01FF4000000050
01FC0000000014
00740055550004
01E00500005001
07D00400000401
1FD01000000101
3FD0100BF80101
7FD0102FFD0101
BFD0102FFD0101
BFD0102FFD0101
BFD0102FFD0101
BFD0101BFD0101
BFD0101BFD0101
BFD0101BFD0101
BFD0101BFD0101
BFD0101BFD0101
BFD0101BFD0101
BFD0101BFD0101
BFD0101BFC0101
BFD01000000101
BFD00400000401
BFE00500005001
BFF00055550004
BFF80000000004
7FFE4000000050
3FFFE500001B40
2FFFFFFEAFFD00
0BFFFFFFFFF000
02FFFFFFFF8000
002FFFFFF90000
00005555000000
ENDCHAR
STARTCHAR ohungarumlaut
ENCODING 337
SWIDTH 837 0
DWIDTH 30 0
BBX 28 44 1 -5
BITMAP
00000555405550
00001800420004
0000B4005E0004
0002F000BD0010
000BE040FC0410
001FE041FC1410
002FD041F81010
003FC042F41040
007F8003F00040
00BF8007F00040
00BF800BF00140
00FFFFFFFFFD00
01FFF940005900
01FF4000000050
01FC0000000014
00740055550004
01E00500005001
07D00400000401
1FD01000000101
3FD0100BF80101
7FD0102FFD0101
BFD0102FFD0101
BFD0102FFD0101
BFD0102FFD0101
BFD0101BFD0101
BFD0101BFD0101
BFD0101BFD0101
BFD0101BFD0101
BFD0101BFD0101
BFD0101BFD0101
BFD0101BFD0101
BFD0101BFC0101
BFD01000000101
BFD00400000401
BFE00500005001
BFF00055550004
BFF80000000004
7FFE4000000050
3FFFE500001B40
2FFFFFFEAFFD00
0BFFFFFFFFF000
02FFFFFFFF8000
002FFFFFF90000
00005555000000
ENDCHAR
STARTCHAR OE
ENCODING 338
SWIDTH 1115 0
DWIDTH 40 0
BBX 39 30 1 -4
BITMAP
00001555555555555550
00014000000000000004
00080000000000000004
00240055555555555004
01E00500000100000004
07D01400000100000014
1FD0100AA80102AAAAA0
3FD0102FFC0103FFFF40
7FD0102FFC0103FFFD00
BFD0102FFC0100000500
BFD0102FFC0100000100
BFD0102FFC0100000100
BFD0102FFC0255540100
BFD0102FFC0100000100
BFD0102FFC0100000100
BFD0102FFC0101555400
BFD0102FFC0103FFE000
BFD0102FFC0103FF8000
BFD0100AA80102AA5550
BFD01000000100000014
BFD01000000100000004
BFE00500000100000004
BFF40055555555555004
BFFC0000000000000004
7FFF4000000000000004
3FFFF955555555555550
1FFFFFFFFFFFFFFFFF80
0BFFFFFFFFFFFFFFFE00
01FFFFFFFFFFFFFFF400
001BFFFFFFFFFFFFD000
ENDCHAR
STARTCHAR oe
ENCODING 339
SWIDTH 1115 0
DWIDTH 40 0
BBX 39 30 1 -4
BITMAP
00001555555555555550
00014000000000000004
00080000000000000004
00240055555555555004
01E00500000100000004
07D01400000100000014
1FD0100AA80102AAAAA0
3FD0102FFC0103FFFF40
7FD0102FFC0103FFFD00
BFD0102FFC0100000500
BFD0102FFC0100000100
BFD0102FFC0100000100
BFD0102FFC0255540100
BFD0102FFC0100000100
BFD0102FFC0100000100
BFD0102FFC0101555400
BFD0102FFC0103FFE000
BFD0102FFC0103FF8000
BFD0100AA80102AA5550
BFD01000000100000014
BFD01000000100000004
BFE00500000100000004
BFF40055555555555004
BFFC0000000000000004
7FFF4000000000000004
3FFFF955555555555550
1FFFFFFFFFFFFFFFFF80
0BFFFFFFFFFFFFFFFE00
01FFFFFFFFFFFFFFF400
001BFFFFFFFFFFFFD000
ENDCHAR
STARTCHAR Racute
ENCODING 340
SWIDTH 843 0
DWIDTH 30 0
BBX 29 40 1 -4
BITMAP
0000000001590000
0000015ABEA60000
00007EA500010000
0002800000010000
000B805555010000
003F804000010000
00FF800000000000
01FF800005640000
01FF856AFFD00000
01FAAAAAAA940000
01E0000000014000
01E0000000005000
07E0000000001000
2FE0155555001000
7FE0100000400400
7FE0100000100400
7FE0101FE0100400
7FE0101FF0100400
7FE0101FF0100400
7FE0101FF0101000
7FE0100A90101000
7FE0100000105000
7FE0100000400500
7FE0155556540100
7FE0100000050040
7FE0100000010040
7FE0100000004040
7FE0101FFE004040
7FE0101FFF004040
7FE0101FFF404040
7FE0101FFF404040
7FE0101BFF404040
7FE00013FF400040
7FE00013FF400040
7FE00013FF400040
7FF55553FF955540
7FFFFF83FFFFFD00
7FFFFD03FFFFF400
7FFFF402FFFF8000
3FFFD001FFFE0000
ENDCHAR
STARTCHAR racute
ENCODING 341
SWIDTH 843 0
DWIDTH 30 0
BBX 29 40 1 -4
BITMAP
0000000001590000
0000015ABEA60000
00007EA500010000
0002800000010000
000B805555010000
003F804000010000
00FF800000000000
01FF800005640000
01FF856AFFD00000
01FAAAAAAA940000
01E0000000014000
01E0000000005000
07E0000000001000
2FE0155555001000
7FE0100000400400
7FE0100000100400
7FE0101FE0100400
7FE0101FF0100400
7FE0101FF0100400
7FE0101FF0101000
7FE0100A90101000
7FE0100000105000
7FE0100000400500
7FE0155556540100
7FE0100000050040
7FE0100000010040
7FE0100000004040
7FE0101FFE004040
7FE0101FFF004040
7FE0101FFF404040
7FE0101FFF404040
7FE0101BFF404040
7FE00013FF400040
7FE00013FF400040
7FE00013FF400040
7FF55553FF955540
7FFFFF83FFFFFD00
7FFFFD03FFFFF400
7FFFF402FFFF8000
3FFFD001FFFE0000
ENDCHAR
STARTCHAR Rcommaaccent
ENCODING 342
SWIDTH 843 0
DWIDTH 30 0
BBX 29 43 1 -17
BITMAP
0015555555550000
00A0000000014000
02E0000000001000
1FE0155555001000
3FE0100000401400
7FE0100000100400
7FE0101FE0100400
7FE0101FF0100400
7FE0101FF0100400
7FE0101FF0101000
7FE0100A90101000
7FE0100000105000
7FE0100000400500
7FE0155556540100
7FE0100000050040
7FE0100000010040
7FE0100000004040
7FE0101FFE004040
7FE0101FFF004040
7FE0101FFF404040
7FE0101FFF404040
7FE0101BFF404040
7FE00013FF400040
7FE00013FF400040
7FE00013FF400040
7FF55553FF955540
7FFFFF83FFFFFD00
7FFFFD16AAFFF400
7FFFF580003F8000
3FFFDB80003E0000
00002F8154100000
0000FF8004100000
0001FF8004100000
0001FFC004100000
0001FFFFC4100000
0001FFE504100000
0001FFC150400000
0000BFC001400000
00003FEAA9000000
0000BFFFF4000000
0000FFFF80000000
0000FFFE00000000
0000BFE400000000
ENDCHAR
STARTCHAR rcommaaccent
ENCODING 343
SWIDTH 843 0
DWIDTH 30 0
BBX 29 43 1 -17
BITMAP
0015555555550000
00A0000000014000
02E0000000001000
1FE0155555001000
3FE0100000401400
7FE0100000100400
7FE0101FE0100400
7FE0101FF0100400
7FE0101FF0100400
7FE0101FF0101000
7FE0100A90101000
7FE0100000105000
7FE0100000400500
7FE0155556540100
7FE0100000050040
7FE0100000010040
7FE0100000004040
7FE0101FFE004040
7FE0101FFF004040
7FE0101FFF404040
7FE0101FFF404040
7FE0101BFF404040
7FE00013FF400040
7FE00013FF400040
7FE00013FF400040
7FF55553FF955540
7FFFFF83FFFFFD00
7FFFFD16AAFFF400
7FFFF580003F8000
3FFFDB80003E0000
00002F8154100000
0000FF8004100000
0001FF8004100000
0001FFC004100000
0001FFFFC4100000
0001FFE504100000
0001FFC150400000
0000BFC001400000
00003FEAA9000000
0000BFFFF4000000
0000FFFF80000000
0000FFFE00000000
0000BFE400000000
ENDCHAR
STARTCHAR Rcaron
ENCODING 344
SWIDTH 843 0
DWIDTH 30 0
BBX 29 41 1 -4
BITMAP
0000000000050000
0000401001504000
0002C00554004000
000BC00000004000
002FC00000004000
00BFC05405404000
00FFC00550004000
00FFE00000010000
00FFFD0000180000
00FFFFE002E00000
00FFFFFEAF800000
00BAAAAAAA540000
00A0000000014000
02E0000000005000
0FE0155555001000
3FE0100000401400
7FE0100000100400
7FE0101FE0100400
7FE0101FF0100400
7FE0101FF0100400
7FE0101FF0101000
7FE0100A90101000
7FE0100000105000
7FE0100000400500
7FE0155556540100
7FE0100000050040
7FE0100000010040
7FE0100000004040
7FE0101FFE004040
7FE0101FFF004040
7FE0101FFF404040
7FE0101FFF404040
7FE0101BFF404040
7FE00013FF400040
7FE00013FF400040
7FE00013FF400040
7FF55553FF955540
7FFFFF83FFFFFD00
7FFFFD03FFFFF400
7FFFF402FFFF8000
3FFFD001FFFE0000
ENDCHAR
STARTCHAR rcaron
ENCODING 345
SWIDTH 843 0
DWIDTH 30 0
BBX 29 41 1 -4
BITMAP
0000000000050000
0000401001504000
0002C00554004000
000BC00000004000
002FC00000004000
00BFC05405404000
00FFC00550004000
00FFE00000010000
00FFFD0000180000
00FFFFE002E00000
00FFFFFEAF800000
00BAAAAAAA540000
00A0000000014000
02E0000000005000
0FE0155555001000
3FE0100000401400
7FE0100000100400
7FE0101FE0100400
7FE0101FF0100400
7FE0101FF0100400
7FE0101FF0101000
7FE0100A90101000
7FE0100000105000
7FE0100000400500
7FE0155556540100
7FE0100000050040
7FE0100000010040
7FE0100000004040
7FE0101FFE004040
7FE0101FFF004040
7FE0101FFF404040
7FE0101FFF404040
7FE0101BFF404040
7FE00013FF400040
7FE00013FF400040
7FE00013FF400040
7FF55553FF955540
7FFFFF83FFFFFD00
7FFFFD03FFFFF400
7FFFF402FFFF8000
3FFFD001FFFE0000
ENDCHAR
STARTCHAR Sacute
ENCODING 346
SWIDTH 750 0
DWIDTH 27 0
BBX 26 39 1 -4
BITMAP
00000000000400
00000000000400
00010000000400
000A0000040400
002E0155500400
01FE0000000400
03FE000015A800
07FF15ABFFE000
07FFFFFFFF4000
07FFE955555500
07FE0000000100
07F40000000100
00A00155554100
02D01400000100
1FC01000000100
3FC01005555600
7FC0102FFFF800
BFC0102FFFE000
FFC01000569000
FFC01000000400
FFC01400000140
FFD00155000040
FFE00001550050
FFF80000014010
FFFF5000004010
BFFFFEA5004010
7FFFFFFF805010
1FFFFFFF805010
06D00000004010
02C00000004010
0BC00000014040
7FC05555540040
FFC00000000140
FFC00000000500
FFE5555555A000
FFFFFFFFFF8000
FFFFFFFFFE0000
FFFFFFFFF40000
BFFFFFFE400000
ENDCHAR
STARTCHAR sacute
ENCODING 347
SWIDTH 750 0
DWIDTH 27 0
BBX 26 39 1 -4
BITMAP
00000000000400
00000000000400
00010000000400
000A0000040400
002E0155500400
01FE0000000400
03FE000015A800
07FF15ABFFE000
07FFFFFFFF4000
07FFE955555500
07FE0000000100
07F40000000100
00A00155554100
02D01400000100
1FC01000000100
3FC01005555600
7FC0102FFFF800
BFC0102FFFE000
FFC01000569000
FFC01000000400
FFC01400000140
FFD00155000040
FFE00001550050
FFF80000014010
FFFF5000004010
BFFFFEA5004010
7FFFFFFF805010
1FFFFFFF805010
06D00000004010
02C00000004010
0BC00000014040
7FC05555540040
FFC00000000140
FFC00000000500
FFE5555555A000
FFFFFFFFFF8000
FFFFFFFFFE0000
FFFFFFFFF40000
BFFFFFFE400000
ENDCHAR
STARTCHAR Scircumflex
ENCODING 348
SWIDTH 750 0
DWIDTH 27 0
BBX 26 40 1 -4
BITMAP
00000015400000
00000540140000
00005000015000
00050015400400
001D0540140400
00BD0000000400
02FD0000000400
0BFD006E900400
0BFE6BFFFE5400
0BFFFFFFFFF400
0BFFE955555500
0BFE0000000100
0BF40000000100
01A00155554100
02D01400000100
0FC01000000100
3FC01005555600
7FC0102FFFF800
BFC0102FFFE000
FFC01000569000
FFC01000000400
FFC01400000140
FFD00155000040
FFE00001550050
FFF80000014010
FFFF5000004010
BFFFFEA5004010
7FFFFFFF805010
1FFFFFFF805010
06D00000004010
02C00000004010
0BC00000014040
7FC05555540040
FFC00000000140
FFC00000000500
FFE5555555A000
FFFFFFFFFF8000
FFFFFFFFFE0000
FFFFFFFFF40000
BFFFFFFE400000
ENDCHAR
STARTCHAR scircumflex
ENCODING 349
SWIDTH 750 0
DWIDTH 27 0
BBX 26 40 1 -4
BITMAP
00000015400000
00000540140000
00005000015000
00050015400400
001D0540140400
00BD0000000400
02FD0000000400
0BFD006E900400
0BFE6BFFFE5400
0BFFFFFFFFF400
0BFFE955555500
0BFE0000000100
0BF40000000100
01A00155554100
02D01400000100
0FC01000000100
3FC01005555600
7FC0102FFFF800
BFC0102FFFE000
FFC01000569000
FFC01000000400
FFC01400000140
FFD00155000040
FFE00001550050
FFF80000014010
FFFF5000004010
BFFFFEA5004010
7FFFFFFF805010
1FFFFFFF805010
06D00000004010
02C00000004010
0BC00000014040
7FC05555540040
FFC00000000140
FFC00000000500
FFE5555555A000
FFFFFFFFFF8000
FFFFFFFFFE0000
FFFFFFFFF40000
BFFFFFFE400000
ENDCHAR
STARTCHAR Scedilla
ENCODING 350
SWIDTH 750 0
DWIDTH 27 0
BBX 26 35 1 -9
BITMAP
00005555555500
00050000000100
00140000000100
00A00155554100
02D01400000100
0BC01000000100
2FC01005555600
7FC0102FFFF800
BFC0102FFFE000
FFC010005A9000
FFC01000001400
FFC01400000140
FFD00155000040
FFE00001550050
FFF80000014010
FFFF5000004010
BFFFFEA5004010
7FFFFFFF805010
1FFFFFFF805010
06D00000004010
02C00000004010
0BC00000014040
7FC05555540040
FFC00001000000
FFC00001000400
FFD5500405A000
FFFFF8040F8000
FFFFF4001D0000
FFFFE000240000
BFFFE000400000
001FFFFF400000
003FFFFC000000
007FFFE0000000
007FFF80000000
00155400000000
ENDCHAR
STARTCHAR scedilla
ENCODING 351
SWIDTH 750 0
DWIDTH 27 0
BBX 26 35 1 -9
BITMAP
00005555555500
00050000000100
00140000000100
00A00155554100
02D01400000100
0BC01000000100
2FC01005555600
7FC0102FFFF800
BFC0102FFFE000
FFC010005A9000
FFC01000001400
FFC01400000140
FFD00155000040
FFE00001550050
FFF80000014010
FFFF5000004010
BFFFFEA5004010
7FFFFFFF805010
1FFFFFFF805010
06D00000004010
02C00000004010
0BC00000014040
7FC05555540040
FFC00001000000
FFC00001000400
FFD5500405A000
FFFFF8040F8000
FFFFF4001D0000
FFFFE000240000
BFFFE000400000
001FFFFF400000
003FFFFC000000
007FFFE0000000
007FFF80000000
00155400000000
ENDCHAR
STARTCHAR Scaron
ENCODING 352
SWIDTH 750 0
DWIDTH 27 0
BBX 26 41 1 -4
BITMAP
00000000001400
00010100154400
000A0015500400
003E0000000400
01FE0000000400
03FE0140150400
07FE0015400400
07FF4000000400
07FFE400019000
07FFFF401B4000
07FFFFFAFD0000
03FFE955555500
006E0000000100
00140000000100
00A00155554100
02D01400000100
0FC01000000100
3FC01005555600
7FC0102FFFF800
BFC0102FFFE000
FFC01000569000
FFC01000000400
FFC01400000140
FFD00155000040
FFE00001550050
FFF80000014010
FFFF5000004010
BFFFFEA5004010
7FFFFFFF805010
1FFFFFFF805010
06D00000004010
02C00000004010
0BC00000014040
7FC05555540040
FFC00000000140
FFC00000000500
FFE5555555A000
FFFFFFFFFF8000
FFFFFFFFFE0000
FFFFFFFFF40000
BFFFFFFE400000
ENDCHAR
STARTCHAR scaron
ENCODING 353
SWIDTH 750 0
DWIDTH 27 0
BBX 26 41 1 -4
BITMAP
00000000001400
00010100154400
000A0015500400
003E0000000400
01FE0000000400
03FE0140150400
07FE0015400400
07FF4000000400
07FFE400019000
07FFFF401B4000
07FFFFFAFD0000
03FFE955555500
006E0000000100
00140000000100
00A00155554100
02D01400000100
0FC01000000100
3FC01005555600
7FC0102FFFF800
BFC0102FFFE000
FFC01000569000
FFC01000000400
FFC01400000140
FFD00155000040
FFE00001550050
FFF80000014010
FFFF5000004010
BFFFFEA5004010
7FFFFFFF805010
1FFFFFFF805010
06D00000004010
02C00000004010
0BC00000014040
7FC05555540040
FFC00000000140
FFC00000000500
FFE5555555A000
FFFFFFFFFF8000
FFFFFFFFFE0000
FFFFFFFFF40000
BFFFFFFE400000
ENDCHAR
STARTCHAR Tcommaaccent
ENCODING 354
SWIDTH 756 0
DWIDTH 27 0
BBX 27 43 0 -17
BITMAP
00155555555554
01C00000000004
07C00000000004
2FC05555555504
BFC00001000004
FFC00001000004
FFE55501005558
FFFFFE0100FFE0
FFFFFE0100FF80
FFFFFE0100FD00
7FFFFE0100F400
0007FE01004000
0007FE01004000
0007FE01004000
0007FE01004000
0007FE01004000
0007FE01004000
0007FE01004000
0007FE01004000
0007FE01004000
0007FE01004000
0007FE01004000
0007FE00004000
0007FE00004000
0007FE00004000
0007FFAAAA0000
0007FFFFFD0000
0007FF00014000
0007FE00004000
0002FE00004000
0001FE05504000
0003FE00104000
0007FE00104000
0007FF40104000
0007FFFF104000
0007FF95104000
0007FF45410000
0002FF40050000
0000BFAAA40000
0002FFFFD00000
0003FFFE000000
0002FFF8000000
0001FF90000000
ENDCHAR
STARTCHAR tcommaaccent
ENCODING 355
SWIDTH 756 0
DWIDTH 27 0
BBX 27 43 0 -17
BITMAP
00155555555554
01C00000000004
07C00000000004
2FC05555555504
BFC00001000004
FFC00001000004
FFE55501005558
FFFFFE0100FFE0
FFFFFE0100FF80
FFFFFE0100FD00
7FFFFE0100F400
0007FE01004000
0007FE01004000
0007FE01004000
0007FE01004000
0007FE01004000
0007FE01004000
0007FE01004000
0007FE01004000
0007FE01004000
0007FE01004000
0007FE01004000
0007FE00004000
0007FE00004000
0007FE00004000
0007FFAAAA0000
0007FFFFFD0000
0007FF00014000
0007FE00004000
0002FE00004000
0001FE05504000
0003FE00104000
0007FE00104000
0007FF40104000
0007FFFF104000
0007FF95104000
0007FF45410000
0002FF40050000
0000BFAAA40000
0002FFFFD00000
0003FFFE000000
0002FFF8000000
0001FF90000000
ENDCHAR
STARTCHAR Tcaron
ENCODING 356
SWIDTH 756 0
DWIDTH 27 0
BBX 27 41 0 -4
BITMAP
00000000000500
00004040055100
00074005500100
001F4000000100
007F4000000100
01FF4050050100
02FF4005500100
02FFD000000400
02FFF900006400
02FFFF9006D000
02FFFFFEBF4000
01E55555555554
01C00000000004
07C00000000004
2FC05555555504
BFC00001000004
FFC00001000004
FFE55501005558
FFFFFE0100FFE0
FFFFFE0100FF80
FFFFFE0100FD00
7FFFFE0100F400
0007FE01004000
0007FE01004000
0007FE01004000
0007FE01004000
0007FE01004000
0007FE01004000
0007FE01004000
0007FE01004000
0007FE01004000
0007FE01004000
0007FE01004000
0007FE00004000
0007FE00004000
0007FE00004000
0007FF55554000
0007FFFFFD0000
0007FFFFE00000
0007FFFF800000
0002FFFD000000
ENDCHAR
STARTCHAR tcaron
ENCODING 357
SWIDTH 756 0
DWIDTH 27 0
BBX 27 41 0 -4
BITMAP
00000000000500
00004040055100
00074005500100
001F4000000100
007F4000000100
01FF4050050100
02FF4005500100
02FFD000000400
02FFF900006400
02FFFF9006D000
02FFFFFEBF4000
01E55555555554
01C00000000004
07C00000000004
2FC05555555504
BFC00001000004
FFC00001000004
FFE55501005558
FFFFFE0100FFE0
FFFFFE0100FF80
FFFFFE0100FD00
7FFFFE0100F400
0007FE01004000
0007FE01004000
0007FE01004000
0007FE01004000
0007FE01004000
0007FE01004000
0007FE01004000
0007FE01004000
0007FE01004000
0007FE01004000
0007FE01004000
0007FE00004000
0007FE00004000
0007FE00004000
0007FF55554000
0007FFFFFD0000
0007FFFFE00000
0007FFFF800000
0002FFFD000000
ENDCHAR
STARTCHAR Tbar
ENCODING 358
SWIDTH 756 0
DWIDTH 27 0
BBX 27 30 0 -4
BITMAP
00155555555554
01D00000000004
07C00000000004
2FC05555555504
BFC00001000004
FFC00001000004
FFD00001000004
FFFFFE0100BFF4
FFFFFE0100FFD0
FFFFFE0100FE00
BFFFFE0100F800
155BA90100A500
00060001000040
002E0001000040
00BE0156554040
02FE0001000040
07FE0001000040
07FF5501005540
07FFFE0100FD00
07FFFE0100F000
07FFFE01008000
02FFFE01004000
0007FE00004000
0007FE00004000
0007FE00004000
0007FF55554000
0007FFFFFD0000
0007FFFFE00000
0007FFFF800000
0002FFFD000000
ENDCHAR
STARTCHAR tbar
ENCODING 359
SWIDTH 756 0
DWIDTH 27 0
BBX 27 30 0 -4
BITMAP
00155555555554
01D00000000004
07C00000000004
2FC05555555504
BFC00001000004
FFC00001000004
FFD00001000004
FFFFFE0100BFF4
FFFFFE0100FFD0
FFFFFE0100FE00
BFFFFE0100F800
155BA90100A500
00060001000040
002E0001000040
00BE0156554040
02FE0001000040
07FE0001000040
07FF5501005540
07FFFE0100FD00
07FFFE0100F000
07FFFE01008000
02FFFE01004000
0007FE00004000
0007FE00004000
0007FE00004000
0007FF55554000
0007FFFFFD0000
0007FFFFE00000
0007FFFF800000
0002FFFD000000
ENDCHAR
STARTCHAR Utilde
ENCODING 360
SWIDTH 846 0
DWIDTH 30 0
BBX 28 40 1 -5
BITMAP
00000555400500
00002400155040
0000C000000040
0007C000000040
001FC055540040
007FC000054040
00FFC000000040
00FFC054000100
00FFEBFFEAA800
00F5556FFF5555
00D0001FFE0001
07D0001FFE0001
1FD01016FE0101
7FD01017FE0101
BFD01017FE0101
BFD01017FE0101
BFD01017FE0101
BFD01017FE0101
BFD01017FE0101
BFD01017FE0101
BFD01017FE0101
BFD01017FE0101
BFD01017FE0101
BFD01017FE0101
BFD01017FE0101
BFD01017FE0101
BFD01017FE0101
BFD0100BFD0101
BFD01000000101
BFE00400000401
BFE00140001401
BFF40055554001
7FFC0000000008
7FFF4000000060
3FFFF900001680
1FFFFFFEAFFD00
0BFFFFFFFFF400
01FFFFFFFF8000
001FFFFFF90000
00005555400000
ENDCHAR
STARTCHAR utilde
ENCODING 361
SWIDTH 846 0
DWIDTH 30 0
BBX 28 40 1 -5
BITMAP
00000555400500
00002400155040
0000C000000040
0007C000000040
001FC055540040
007FC000054040
00FFC000000040
00FFC054000100
00FFEBFFEAA800
00F5556FFF5555
00D0001FFE0001
07D0001FFE0001
1FD01016FE0101
7FD01017FE0101
BFD01017FE0101
BFD01017FE0101
BFD01017FE0101
BFD01017FE0101
BFD01017FE0101
BFD01017FE0101
BFD01017FE0101
BFD01017FE0101
BFD01017FE0101
BFD01017FE0101
BFD01017FE0101
BFD01017FE0101
BFD01017FE0101
BFD0100BFD0101
BFD01000000101
BFE00400000401
BFE00140001401
BFF40055554001
7FFC0000000008
7FFF4000000060
3FFFF900001680
1FFFFFFEAFFD00
0BFFFFFFFFF400
01FFFFFFFF8000
001FFFFFF90000
00005555400000
ENDCHAR
STARTCHAR Umacron
ENCODING 362
SWIDTH 846 0
DWIDTH 30 0
BBX 28 40 1 -5
BITMAP
00001555555500
00008000000040
0002C000000040
000BC000000040
002FC055554040
00BFC000000040
00FFC000000040
00FFD000000100
00FFFFFFFFFD00
00F5556FFF5555
00D0001FFE0001
07D0001FFE0001
1FD01011FE0101
7FD01017FE0101
BFD01017FE0101
BFD01017FE0101
BFD01017FE0101
BFD01017FE0101
BFD01017FE0101
BFD01017FE0101
BFD01017FE0101
BFD01017FE0101
BFD01017FE0101
BFD01017FE0101
BFD01017FE0101
BFD01017FE0101
BFD01017FE0101
BFD0100BFD0101
BFD01000000101
BFE00400000401
BFE00140001401
BFF40055554001
7FFC0000000008
7FFF4000000060
3FFFF900001680
1FFFFFFEAFFD00
0BFFFFFFFFF400
01FFFFFFFF8000
001FFFFFF90000
00005555400000
ENDCHAR
STARTCHAR umacron
ENCODING 363
SWIDTH 846 0
DWIDTH 30 0
BBX 28 40 1 -5
BITMAP
00001555555500
00008000000040
0002C000000040
000BC000000040
002FC055554040
00BFC000000040
00FFC000000040
00FFD000000100
00FFFFFFFFFD00
00F5556FFF5555
00D0001FFE0001
07D0001FFE0001
1FD01011FE0101
7FD01017FE0101
BFD01017FE0101
BFD01017FE0101
BFD01017FE0101
BFD01017FE0101
BFD01017FE0101
BFD01017FE0101
BFD01017FE0101
BFD01017FE0101
BFD01017FE0101
BFD01017FE0101
BFD01017FE0101
BFD01017FE0101
BFD01017FE0101
BFD0100BFD0101
BFD01000000101
BFE00400000401
BFE00140001401
BFF40055554001
7FFC0000000008
7FFF4000000060
3FFFF900001680
1FFFFFFEAFFD00
0BFFFFFFFFF400
01FFFFFFFF8000
001FFFFFF90000
00005555400000
ENDCHAR
STARTCHAR Ubreve
ENCODING 364
SWIDTH 846 0
DWIDTH 30 0
BBX 28 41 1 -5
BITMAP
00001554055500
00008004180040
00078004B80040
001F8100501040
007F8080005040
00FFC015550040
01FFD000000000
01FFF000000100
01FFFD00001400
00FFFFEAAAD000
00B5556FFF5555
0090001FFE0001
02D0001FFE0001
1FD00019BE0001
7FD01012FE0101
BFD01017FE0101
BFD01017FE0101
BFD01017FE0101
BFD01017FE0101
BFD01017FE0101
BFD01017FE0101
BFD01017FE0101
BFD01017FE0101
BFD01017FE0101
BFD01017FE0101
BFD01017FE0101
BFD01017FE0101
BFD01017FE0101
BFD0100BFD0101
BFD01000000101
BFE00400000401
BFE00140001401
BFF40055554001
7FFC0000000008
7FFF4000000060
3FFFF900001680
1FFFFFFEAFFD00
0BFFFFFFFFF400
01FFFFFFFF8000
001FFFFFF90000
00005555400000
ENDCHAR
STARTCHAR ubreve
ENCODING 365
SWIDTH 846 0
DWIDTH 30 0
BBX 28 41 1 -5
BITMAP
00001554055500
00008004180040
00078004B80040
001F8100501040
007F8080005040
00FFC015550040
01FFD000000000
01FFF000000100
01FFFD00001400
00FFFFEAAAD000
00B5556FFF5555
0090001FFE0001
02D0001FFE0001
1FD00019BE0001
7FD01012FE0101
BFD01017FE0101
BFD01017FE0101
BFD01017FE0101
BFD01017FE0101
BFD01017FE0101
BFD01017FE0101
BFD01017FE0101
BFD01017FE0101
BFD01017FE0101
BFD01017FE0101
BFD01017FE0101
BFD01017FE0101
BFD01017FE0101
BFD0100BFD0101
BFD01000000101
BFE00400000401
BFE00140001401
BFF40055554001
7FFC0000000008
7FFF4000000060
3FFFF900001680
1FFFFFFEAFFD00
0BFFFFFFFFF400
01FFFFFFFF8000
001FFFFFF90000
00005555400000
ENDCHAR
STARTCHAR Uring
ENCODING 366
SWIDTH 846 0
DWIDTH 30 0
BBX 28 47 1 -5
BITMAP
00000055554000
00000500001400
00002015550100
00009040004140
0002C140001040
001F8103F41040
007F8107F81040
00BF8107F81040
00FF8107F81040
01FF8140501040
01FF8040004040
01FFC015550040
01FFD000000000
01FFE000000100
01FFFD00001400
00FFFFEAAAD000
00B5556FFF5555
0090001FFE0001
03D0001FFE0001
1FD00015BE0001
7FD01013FE0101
BFD01017FE0101
BFD01017FE0101
BFD01017FE0101
BFD01017FE0101
BFD01017FE0101
BFD01017FE0101
BFD01017FE0101
BFD01017FE0101
BFD01017FE0101
BFD01017FE0101
BFD01017FE0101
BFD01017FE0101
BFD01017FE0101
BFD01017FE0101
BFD0100BFD0101
BFE00401500401
BFE00140001401
BFF40055554001
7FFC0000000008
7FFF4000000060
3FFFF900001680
1FFFFFFEAFFD00
0BFFFFFFFFF400
01FFFFFFFF8000
001FFFFFF90000
00005555400000
ENDCHAR
STARTCHAR uring
ENCODING 367
SWIDTH 846 0
DWIDTH 30 0
BBX 28 47 1 -5
BITMAP
00000055554000
00000500001400
00002015550100
00009040004140
0002C140001040
001F8103F41040
007F8107F81040
00BF8107F81040
00FF8107F81040
01FF8140501040
01FF8040004040
01FFC015550040
01FFD000000000
01FFE000000100
01FFFD00001400
00FFFFEAAAD000
00B5556FFF5555
0090001FFE0001
03D0001FFE0001
1FD00015BE0001
7FD01013FE0101
BFD01017FE0101
BFD01017FE0101
BFD01017FE0101
BFD01017FE0101
BFD01017FE0101
BFD01017FE0101
BFD01017FE0101
BFD01017FE0101
BFD01017FE0101
BFD01017FE0101
BFD01017FE0101
BFD01017FE0101
BFD01017FE0101
BFD01017FE0101
BFD0100BFD0101
BFE00401500401
BFE00140001401
BFF40055554001
7FFC0000000008
7FFF4000000060
3FFFF900001680
1FFFFFFEAFFD00
0BFFFFFFFFF400
01FFFFFFFF8000
001FFFFFF90000
00005555400000
ENDCHAR
STARTCHAR Uhungarumlaut
ENCODING 368
SWIDTH 846 0
DWIDTH 30 0
BBX 28 44 1 -5
BITMAP
00000155405554
00000800124004
000038001B0004
0001F4006E0004
0007F010BE0414
000FF010BD0410
001FE040FC0410
002FD041FC1410
002FD001F80010
003FC002F40040
007F8003F40040
00BFD007F40140
00BFFFFFFFFE00
00F5556FFF5555
01D0001FFE0001
07D0001FFE0001
1FD01011FE0101
7FD01017FE0101
BFD01017FE0101
BFD01017FE0101
BFD01017FE0101
BFD01017FE0101
BFD01017FE0101
BFD01017FE0101
BFD01017FE0101
BFD01017FE0101
BFD01017FE0101
BFD01017FE0101
BFD01017FE0101
BFD01017FE0101
BFD01017FE0101
BFD0100BFD0101
BFD01000000101
BFE00400000401
BFE00140001401
BFF40055554001
7FFC0000000008
7FFF4000000060
3FFFF900001680
1FFFFFFEAFFD00
0BFFFFFFFFF400
01FFFFFFFF8000
001FFFFFF90000
00005555400000
ENDCHAR
STARTCHAR uhungarumlaut
ENCODING 369
SWIDTH 846 0
DWIDTH 30 0
BBX 28 44 1 -5
BITMAP
00000155405554
00000800124004
000038001B0004
0001F4006E0004
0007F010BE0414
000FF010BD0410
001FE040FC0410
002FD041FC1410
002FD001F80010
003FC002F40040
007F8003F40040
00BFD007F40140
00BFFFFFFFFE00
00F5556FFF5555
01D0001FFE0001
07D0001FFE0001
1FD01011FE0101
7FD01017FE0101
BFD01017FE0101
BFD01017FE0101
BFD01017FE0101
BFD01017FE0101
BFD01017FE0101
BFD01017FE0101
BFD01017FE0101
BFD01017FE0101
BFD01017FE0101
BFD01017FE0101
BFD01017FE0101
BFD01017FE0101
BFD01017FE0101
BFD0100BFD0101
BFD01000000101
BFE00400000401
BFE00140001401
BFF40055554001
7FFC0000000008
7FFF4000000060
3FFFF900001680
1FFFFFFEAFFD00
0BFFFFFFFFF400
01FFFFFFFF8000
001FFFFFF90000
00005555400000
ENDCHAR
STARTCHAR Uogonek
ENCODING 370
SWIDTH 846 0
DWIDTH 30 0
BBX 28 37 1 -11
BITMAP
00155550015555
009000100A0001
07D000102E0001
1FD01011FE0101
7FD01017FE0101
BFD01017FE0101
BFD01017FE0101
BFD01017FE0101
BFD01017FE0101
BFD01017FE0101
BFD01017FE0101
BFD01017FE0101
BFD01017FE0101
BFD01017FE0101
BFD01017FE0101
BFD01017FE0101
BFD01017FE0101
BFD01017FE0101
BFD0100BFD0101
BFD01000000101
BFE00400000501
BFF00140005401
7FF40055654005
7FFD0000400008
3FFF4000400060
2FFFF940405B80
1FFFFFD042FD00
07FFFFC0416400
01FFFFC0400000
001BFFC0540400
0000BFC0000400
0000FFE0000400
0000FFF9556000
0000FFFFFFD000
0000FFFFFE0000
00007FFFF80000
00001BFFD00000
ENDCHAR
STARTCHAR uogonek
ENCODING 371
SWIDTH 846 0
DWIDTH 30 0
BBX 28 37 1 -11
BITMAP
00155550015555
009000100A0001
07D000102E0001
1FD01011FE0101
7FD01017FE0101
BFD01017FE0101
BFD01017FE0101
BFD01017FE0101
BFD01017FE0101
BFD01017FE0101
BFD01017FE0101
BFD01017FE0101
BFD01017FE0101
BFD01017FE0101
BFD01017FE0101
BFD01017FE0101
BFD01017FE0101
BFD01017FE0101
BFD0100BFD0101
BFD01000000101
BFE00400000501
BFF00140005401
7FF40055654005
7FFD0000400008
3FFF4000400060
2FFFF940405B80
1FFFFFD042FD00
07FFFFC0416400
01FFFFC0400000
001BFFC0540400
0000BFC0000400
0000FFE0000400
0000FFF9556000
0000FFFFFFD000
0000FFFFFE0000
00007FFFF80000
00001BFFD00000
ENDCHAR
STARTCHAR Wcircumflex
ENCODING 372
SWIDTH 931 0
DWIDTH 34 0
BBX 32 40 1 -4
BITMAP
0000000055000000
0000001500540000
0000014000014000
0000080055001000
0000780500501000
0001F80000001000
0007F80000001000
001FF801AE401000
001FF96FFFF96000
001FFFFFFFFFD000
0065557FFFFE5554
01D0002BFFFC0001
0BD000106FFC0001
2FD0101003FC0401
BFD010100FFC0401
BFD010100FFC0401
BFD010100FFC0401
BFD010100FFC0401
BFD010105AFC0401
BFD01016007C0401
BFD0101D002C0401
BFD01028001C0401
BFD01024000C0401
BFD0101015040401
BFD0100041000401
BFD0100100400401
BFD0100100400401
BFD0100400100404
BFE0100418100404
BFF014103C040404
BFF404107D040404
BFF804407E011010
7FFC0540BF015010
3FFD0000FF400050
2FFE0001FF800040
1FFF9557FFD55540
0FFFFFF7FFFFFD00
0BFFFFD2FFFFE000
07FFFF01FFFF8000
02FFF800BFFD0000
ENDCHAR
STARTCHAR wcircumflex
ENCODING 373
SWIDTH 931 0
DWIDTH 34 0
BBX 32 40 1 -4
BITMAP
0000000055000000
0000001500540000
0000014000014000
0000080055001000
0000780500501000
0001F80000001000
0007F80000001000
001FF801AE401000
001FF96FFFF96000
001FFFFFFFFFD000
0065557FFFFE5554
01D0002BFFFC0001
0BD000106FFC0001
2FD0101003FC0401
BFD010100FFC0401
BFD010100FFC0401
BFD010100FFC0401
BFD010100FFC0401
BFD010105AFC0401
BFD01016007C0401
BFD0101D002C0401
BFD01028001C0401
BFD01024000C0401
BFD0101015040401
BFD0100041000401
BFD0100100400401
BFD0100100400401
BFD0100400100404
BFE0100418100404
BFF014103C040404
BFF404107D040404
BFF804407E011010
7FFC0540BF015010
3FFD0000FF400050
2FFE0001FF800040
1FFF9557FFD55540
0FFFFFF7FFFFFD00
0BFFFFD2FFFFE000
07FFFF01FFFF8000
02FFF800BFFD0000
ENDCHAR
STARTCHAR Ycircumflex
ENCODING 374
SWIDTH 805 0
DWIDTH 29 0
BBX 29 40 0 -4
BITMAP
0000000154000000
0000005401400000
0000050000150000
0000500154004000
0001D05401404000
0007D00000004000
002FD00000004000
007FD01AF9004000
00BFE6FFFFE94000
00BFFFFFFFFF4000
00B5556FFF955500
00A0000FFF000040
02E00006BF000040
0BE01004BF000040
3FE01006FF010040
7FE01007FF010040
7FE01007FF010040
7FE01007FF010040
7FE01007FE010040
7FE01407FD010040
7FF00402F8010100
7FF40100A0040100
7FFC014000100500
7FFE004000500400
3FFF401000401000
2FFFD00401004000
0FFFF00154014000
07FFF80040010000
02FFFD0040040000
00BFFF4040100000
003FFF8040100000
001FFF8040100000
0007FF8040100000
0002FF8000100000
0001FF8000100000
0001FFD555400000
0001FFFFFF400000
0001FFFFF8000000
0001FFFFE0000000
0000FFFF40000000
ENDCHAR
STARTCHAR ycircumflex
ENCODING 375
SWIDTH 805 0
DWIDTH 29 0
BBX 29 40 0 -4
BITMAP
0000000154000000
0000005401400000
0000050000150000
0000500154004000
0001D05401404000
0007D00000004000
002FD00000004000
007FD01AF9004000
00BFE6FFFFE94000
00BFFFFFFFFF4000
00B5556FFF955500
00A0000FFF000040
02E00006BF000040
0BE01004BF000040
3FE01006FF010040
7FE01007FF010040
7FE01007FF010040
7FE01007FF010040
7FE01007FE010040
7FE01407FD010040
7FF00402F8010100
7FF40100A0040100
7FFC014000100500
7FFE004000500400
3FFF401000401000
2FFFD00401004000
0FFFF00154014000
07FFF80040010000
02FFFD0040040000
00BFFF4040100000
003FFF8040100000
001FFF8040100000
0007FF8040100000
0002FF8000100000
0001FF8000100000
0001FFD555400000
0001FFFFFF400000
0001FFFFF8000000
0001FFFFE0000000
0000FFFF40000000
ENDCHAR
STARTCHAR Ydieresis
ENCODING 376
SWIDTH 805 0
DWIDTH 29 0
BBX 29 39 0 -4
BITMAP
0000555505554000
0002400160001000
000B4001E0001000
002F4041E0101000
00FF4041E0101000
02FF4001E0001000
02FF4001E0001000
02FF8002F4005000
02FFFFFFFFFF4000
02F5556FFF955500
02E0000FFF000040
07E0000FFF000040
1FE01005BF000040
3FE01006FF010040
7FE01007FF010040
7FE01007FF010040
7FE01007FF010040
7FE01007FE010040
7FE01407FD010040
7FF00402F8010100
7FF40100F0040100
7FFC014000100500
3FFE004000500400
3FFF401000401000
2FFFD00401004000
0FFFF00154014000
07FFF80040010000
01FFFD0040040000
00BFFF4040100000
003FFF8040100000
001FFF8040100000
0007FF8040100000
0002FF8000100000
0001FF8000100000
0001FFD555400000
0001FFFFFF400000
0001FFFFF8000000
0001FFFFE0000000
0000FFFF40000000
ENDCHAR
STARTCHAR Zacute
ENCODING 377
SWIDTH 760 0
DWIDTH 27 0
BBX 27 39 0 -4
BITMAP
00000000000100
00000000000040
00004000000040
00028000014040
000B8055550040
002F8000000140
00FF8000016A00
01FFD16AFFF800
01FFFFFFFFD000
01FD5555555550
01F40000000010
01F40000000010
07F40555555010
1FF40000001010
2FF40000001010
2FF95554004010
2FFFFFF8014010
2FFFFFF0010010
2FFFFFD0040040
1FFFFF40100100
00001D00500400
00007800401000
0000E001005000
0002C004004000
000B4010010000
001D0050040000
00780040100000
01F00100555550
03E00400000004
0BE00400000004
2FE01000000004
3FE00555555404
7FE00000000004
7FE00000000004
7FF55555555554
7FFFFFFFFFFFD0
7FFFFFFFFFFE00
7FFFFFFFFFF800
2FFFFFFFFFE000
ENDCHAR
STARTCHAR zacute
ENCODING 378
SWIDTH 760 0
DWIDTH 27 0
BBX 27 39 0 -4
BITMAP
00000000000100
00000000000040
00004000000040
00028000014040
000B8055550040
002F8000000140
00FF8000016A00
01FFD16AFFF800
01FFFFFFFFD000
01FD5555555550
01F40000000010
01F40000000010
07F40555555010
1FF40000001010
2FF40000001010
2FF95554004010
2FFFFFF8014010
2FFFFFF0010010
2FFFFFD0040040
1FFFFF40100100
00001D00500400
00007800401000
0000E001005000
0002C004004000
000B4010010000
001D0050040000
00780040100000
01F00100555550
03E00400000004
0BE00400000004
2FE01000000004
3FE00555555404
7FE00000000004
7FE00000000004
7FF55555555554
7FFFFFFFFFFFD0
7FFFFFFFFFFE00
7FFFFFFFFFF800
2FFFFFFFFFE000
ENDCHAR
STARTCHAR Zdotaccent
ENCODING 379
SWIDTH 760 0
DWIDTH 27 0
BBX 27 40 0 -4
BITMAP
00000055550000
00000200004000
00000B00004000
00002F00004000
0000FF00404000
0002FF00404000
0003FF00004000
0003FF00004000
0003FF40014000
0003FFFFFD0000
00055555555550
00240000000010
01F40000000010
07F40555555010
1FF40000001010
2FF40000001010
2FF95554004010
2FFFFFF8014010
2FFFFFF0010010
2FFFFFD0040040
1FFFFF40100100
00001D00500400
00007800401000
0000E001005000
0002C004004000
000B4010010000
001D0050040000
00780040100000
01F00100555550
03E00400000004
0BE00400000004
2FE01000000004
3FE00555555404
7FE00000000004
7FE00000000004
7FF55555555554
7FFFFFFFFFFFD0
7FFFFFFFFFFE00
7FFFFFFFFFF800
2FFFFFFFFFE000
ENDCHAR
STARTCHAR zdotaccent
ENCODING 380
SWIDTH 760 0
DWIDTH 27 0
BBX 27 40 0 -4
BITMAP
00000055550000
00000200004000
00000B00004000
00002F00004000
0000FF00404000
0002FF00404000
0003FF00004000
0003FF00004000
0003FF40014000
0003FFFFFD0000
00055555555550
00240000000010
01F40000000010
07F40555555010
1FF40000001010
2FF40000001010
2FF95554004010
2FFFFFF8014010
2FFFFFF0010010
2FFFFFD0040040
1FFFFF40100100
00001D00500400
00007800401000
0000E001005000
0002C004004000
000B4010010000
001D0050040000
00780040100000
01F00100555550
03E00400000004
0BE00400000004
2FE01000000004
3FE00555555404
7FE00000000004
7FE00000000004
7FF55555555554
7FFFFFFFFFFFD0
7FFFFFFFFFFE00
7FFFFFFFFFF800
2FFFFFFFFFE000
ENDCHAR
STARTCHAR Zcaron
ENCODING 381
SWIDTH 760 0
DWIDTH 27 0
BBX 27 41 0 -4
BITMAP
00000000000500
00004040055100
00034005500100
001F4000000100
007F4000000100
01FF4050050100
02FF8005500100
02FFD000000500
02FFF900006400
02FFFF9006D000
02FFFFFEBF4000
01FD5555555550
00740000000010
01F40000000010
07F40555555010
1FF40000001010
2FF40000001010
2FF95554004010
2FFFFFF8014010
2FFFFFF0010010
2FFFFFD0040040
1FFFFF40100100
00001D00500400
00007800401000
0000E001005000
0002C004004000
000B4010010000
001D0050040000
00780040100000
01F00100555550
03E00400000004
0BE00400000004
2FE01000000004
3FE00555555404
7FE00000000004
7FE00000000004
7FF55555555554
7FFFFFFFFFFFD0
7FFFFFFFFFFE00
7FFFFFFFFFF800
2FFFFFFFFFE000
ENDCHAR
STARTCHAR zcaron
ENCODING 382
SWIDTH 760 0
DWIDTH 27 0
BBX 27 41 0 -4
BITMAP
00000000000500
00004040055100
00034005500100
001F4000000100
007F4000000100
01FF4050050100
02FF8005500100
02FFD000000500
02FFF900006400
02FFFF9006D000
02FFFFFEBF4000
01FD5555555550
00740000000010
01F40000000010
07F40555555010
1FF40000001010
2FF40000001010
2FF95554004010
2FFFFFF8014010
2FFFFFF0010010
2FFFFFD0040040
1FFFFF40100100
00001D00500400
00007800401000
0000E001005000
0002C004004000
000B4010010000
001D0050040000
00780040100000
01F00100555550
03E00400000004
0BE00400000004
2FE01000000004
3FE00555555404
7FE00000000004
7FE00000000004
7FF55555555554
7FFFFFFFFFFFD0
7FFFFFFFFFFE00
7FFFFFFFFFF800
2FFFFFFFFFE000
ENDCHAR
STARTCHAR Schwa
ENCODING 399
SWIDTH 815 0
DWIDTH 29 0
BBX 28 31 1 -5
BITMAP
00015555555400
000A0000000140
002E0000000010
01FE0155554004
03FE0000001004
07FF0000000401
07FFFFFFF80401
07FFFFFFFD0401
07FFFFFFFD0501
03D00000000501
02C00000000501
07C00000000501
2FC01555555501
BFC04000000501
FFC04000000501
FFC04000000501
FFC0402FFD0501
FFC0402FFD0501
FFC0101FF80401
FFC01001400401
FFD01000000801
FFD00500006004
FFF00055550004
FFF80000000014
BFFE4000000050
BFFFE500001A40
3FFFFFFEBFF800
1FFFFFFFFFE000
07FFFFFFFF4000
006FFFFFE40000
00015555000000
ENDCHAR
STARTCHAR florin
ENCODING 402
SWIDTH 674 0
DWIDTH 24 0
BBX 24 30 0 -4
BITMAP
000000055555
000000500001
000001400001
000009005501
00002C014001
0001F8040001
0007F4040005
000BF40403F4
001FF40407D0
001AA4040654
002000040001
01E000040001
07E015595501
1FE000040001
3FE000040001
7FF000040001
7FFFF40407F8
7FFFF40407D0
7FFEA0040740
3FF000040400
16E000040400
07E000100400
1FE015401000
3FE000005000
7FE000014000
7FF5556D0000
7FFFFFE00000
7FFFFF800000
7FFFFD000000
2FFF90000000
ENDCHAR
STARTCHAR Ohorn
ENCODING 416
SWIDTH 847 0
DWIDTH 30 0
BBX 30 35 1 -5
BITMAP
0000000000015550
0000000000050010
00000000001D0010
00000055557D0010
0000150000140410
0001400000001410
0008005555005050
0070050000554140
01E0040000040100
0BD0100000010100
2FD0100BF8010100
3FD0102FFD010100
7FD0102FFD010100
BFD0102FFD010100
BFD0102FFD010100
BFD0101BFD010100
BFD0101BFD010100
BFD0101BFD010100
BFD0101BFD010100
BFD0101BFD010100
BFD0101BFD010100
BFD0101BFD010100
BFD0101BFC010100
BFD0100000010100
BFD0040000040100
BFE0050000500100
BFF0005555000500
BFF8000000000400
BFFE400000005000
7FFFE500001B4000
3FFFFFFEAFFD0000
1FFFFFFFFFF00000
07FFFFFFFF800000
006FFFFFF9000000
0001555500000000
ENDCHAR
STARTCHAR ohorn
ENCODING 417
SWIDTH 847 0
DWIDTH 30 0
BBX 30 35 1 -5
BITMAP
0000000000015550
0000000000050010
00000000001D0010
00000055557D0010
0000150000140410
0001400000001410
0008005555005050
0070050000554140
01E0040000040100
0BD0100000010100
2FD0100BF8010100
3FD0102FFD010100
7FD0102FFD010100
BFD0102FFD010100
BFD0102FFD010100
BFD0101BFD010100
BFD0101BFD010100
BFD0101BFD010100
BFD0101BFD010100
BFD0101BFD010100
BFD0101BFD010100
BFD0101BFD010100
BFD0101BFC010100
BFD0100000010100
BFD0040000040100
BFE0050000500100
BFF0005555000500
BFF8000000000400
BFFE400000005000
7FFFE500001B4000
3FFFFFFEAFFD0000
1FFFFFFFFFF00000
07FFFFFFFF800000
006FFFFFF9000000
0001555500000000
ENDCHAR
STARTCHAR Uhorn
ENCODING 431
SWIDTH 856 0
DWIDTH 31 0
BBX 31 35 1 -5
BITMAP
0000000000015550
0000000000060004
00000000001E0004
0000000000BE0004
0015555002540404
009000100E000414
07D000107E001410
1FD01011FE019050
7FD01017FE010140
BFD01017FE010100
BFD01017FE010100
BFD01017FE010100
BFD01017FE010100
BFD01017FE010100
BFD01017FE010100
BFD01017FE010100
BFD01017FE010100
BFD01017FE010100
BFD01017FE010100
BFD01017FE010100
BFD01017FE010100
BFD01017FE010100
BFD0100BFD010100
BFD0100000010100
BFE0040000040100
BFE0014000140100
BFF4005555400100
BFFC000000000800
7FFF400000006000
3FFFF90000168000
2FFFFFFEAFFD0000
0FFFFFFFFFF40000
02FFFFFFFF800000
006FFFFFF9000000
0000555540000000
ENDCHAR
STARTCHAR uhorn
ENCODING 432
SWIDTH 856 0
DWIDTH 31 0
BBX 31 35 1 -5
BITMAP
0000000000015550
0000000000060004
00000000001E0004
0000000000BE0004
0015555002540404
009000100E000414
07D000107E001410
1FD01011FE019050
7FD01017FE010140
BFD01017FE010100
BFD01017FE010100
BFD01017FE010100
BFD01017FE010100
BFD01017FE010100
BFD01017FE010100
BFD01017FE010100
BFD01017FE010100
BFD01017FE010100
BFD01017FE010100
BFD01017FE010100
BFD01017FE010100
BFD01017FE010100
BFD0100BFD010100
BFD0100000010100
BFE0040000040100
BFE0014000140100
BFF4005555400100
BFFC000000000800
7FFF400000006000
3FFFF90000168000
2FFFFFFEAFFD0000
0FFFFFFFFFF40000
02FFFFFFFF800000
006FFFFFF9000000
0000555540000000
ENDCHAR
STARTCHAR Acaron
ENCODING 461
SWIDTH 830 0
DWIDTH 30 0
BBX 28 41 1 -4
BITMAP
00000000000500
00004000055100
00028005540100
000B8000000100
003F8000000100
00FF8054054100
01FF8005500100
01FFD000000100
01FFF900002800
01FFFFD006E000
01FFFFFEAF4000
00BFF955555400
001BE000000100
0002D000000100
000FC015550100
003F4040010040
00BF0040004040
00FE0100004010
01FD0103D01010
02FC0407E01010
03F4040BF01004
07F0040FF40404
0FE0101FF80404
1FD0102FF80101
2FD01000000101
3FC01000000101
7FC01000000101
BFC02555555501
BFC01000000101
FFC01000000101
FFC01015540101
FFC0103FFD0101
FFC0103FFD0101
FFC0103FFD0101
FFC0003FFD0001
FFC0001BFD0001
FFE5558BFE5555
FFFFFF4BFFFFF8
FFFFF80BFFFFD0
FFFFE00BFFFF40
BFFF4007FFF800
ENDCHAR
STARTCHAR acaron
ENCODING 462
SWIDTH 830 0
DWIDTH 30 0
BBX 28 41 1 -4
BITMAP
00000000000500
00004000055100
00028005540100
000B8000000100
003F8000000100
00FF8054054100
01FF8005500100
01FFD000000100
01FFF900002800
01FFFFD006E000
01FFFFFEAF4000
00BFF955555400
001BE000000100
0002D000000100
000FC015550100
003F4040010040
00BF0040004040
00FE0100004010
01FD0103D01010
02FC0407E01010
03F4040BF01004
07F0040FF40404
0FE0101FF80404
1FD0102FF80101
2FD01000000101
3FC01000000101
7FC01000000101
BFC02555555501
BFC01000000101
FFC01000000101
FFC01015540101
FFC0103FFD0101
FFC0103FFD0101
FFC0103FFD0101
FFC0003FFD0001
FFC0001BFD0001
FFE5558BFE5555
FFFFFF4BFFFFF8
FFFFF80BFFFFD0
FFFFE00BFFFF40
BFFF4007FFF800
ENDCHAR
STARTCHAR Icaron
ENCODING 463
SWIDTH 705 0
DWIDTH 25 0
BBX 24 41 1 -4
BITMAP
000000000050
000404005510
003400550010
01F400000010
07F400000010
1FF405005010
1FF800550010
2FFD00000050
2FFF90000640
2FFFF9006D00
1FFFFFEBF400
1FE555555554
02C000000001
0BC000000001
2FC055555501
BFC000040001
FFC000040001
FFEA900406A8
FFFFF0040BE0
FFFFF0040B80
FFFFF0040900
6ABFF0040400
003FF0040400
003FF0040400
003FF0040400
003FF0040400
003FF0040400
003FF0040400
003FF0040400
003AA0040554
008000040001
02C000040001
1FC000040001
7FC055555501
FFC000000001
FFC000000001
FFE555555554
FFFFFFFFFFE0
FFFFFFFFFF80
FFFFFFFFFE00
BFFFFFFFF400
ENDCHAR
STARTCHAR icaron
ENCODING 464
SWIDTH 705 0
DWIDTH 25 0
BBX 24 41 1 -4
BITMAP
000000000050
000404005510
003400550010
01F400000010
07F400000010
1FF405005010
1FF800550010
2FFD00000050
2FFF90000640
2FFFF9006D00
1FFFFFEBF400
1FE555555554
02C000000001
0BC000000001
2FC055555501
BFC000040001
FFC000040001
FFEA900406A8
FFFFF0040BE0
FFFFF0040B80
FFFFF0040900
6ABFF0040400
003FF0040400
003FF0040400
003FF0040400
003FF0040400
003FF0040400
003FF0040400
003FF0040400
003AA0040554
008000040001
02C000040001
1FC000040001
7FC055555501
FFC000000001
FFC000000001
FFE555555554
FFFFFFFFFFE0
FFFFFFFFFF80
FFFFFFFFFE00
BFFFFFFFF400
ENDCHAR
STARTCHAR Ocaron
ENCODING 465
SWIDTH 837 0
DWIDTH 30 0
BBX 28 42 1 -5
BITMAP
00000000000500
00004010015140
00028005540040
000B8000000040
003F8000000040
00FF8054054040
00FFC005500140
01FFD000000100
01FFFD00002800
01FFFFE006E000
00FFFFFE6F8000
007FF940005500
000B4000000050
00180055550004
00B00500005005
02E00400000401
0FD01000000101
2FD0100BF80101
7FD0102FFD0101
BFD0102FFD0101
BFD0102FFD0101
BFD0102FFD0101
BFD0101BFD0101
BFD0101BFD0101
BFD0101BFD0101
BFD0101BFD0101
BFD0101BFD0101
BFD0101BFD0101
BFD0101BFD0101
BFD0101BFC0101
BFD01000000101
BFD00400000401
BFE00500005001
BFF00055550005
BFF80000000008
7FFE4000000060
3FFFE500001A80
2FFFFFFEAFFD00
0BFFFFFFFFF400
02FFFFFFFF8000
002FFFFFF90000
00005555000000
ENDCHAR
ENDFONT
